<svg width="134" height="138" viewBox="0 0 134 138" fill="none" xmlns="http://www.w3.org/2000/svg">
<path d="M40.3546 138C36.8869 138 33.9384 136.783 31.5093 134.349C29.0801 131.917 27.8655 128.965 27.8655 125.492C27.8655 122.018 29.0801 119.065 31.5093 116.633C33.9384 114.2 36.8869 112.984 40.3546 112.984C43.8235 112.984 46.7726 114.2 49.2018 116.633C51.631 119.065 52.8455 122.018 52.8455 125.492C52.8455 128.965 51.631 131.917 49.2018 134.349C46.7726 136.783 43.8235 138 40.3546 138ZM109.537 138C106.068 138 103.119 136.783 100.689 134.349C98.2602 131.917 97.0456 128.965 97.0456 125.492C97.0456 122.018 98.2602 119.065 100.689 116.633C103.119 114.2 106.068 112.984 109.537 112.984C113.004 112.984 115.953 114.2 118.382 116.633C120.811 119.065 122.026 122.018 122.026 125.492C122.026 128.965 120.811 131.917 118.382 134.349C115.953 136.783 113.004 138 109.537 138ZM32.2284 25.0159L50.3206 62.9524H98.9799C99.3915 62.9524 99.7579 62.8494 100.079 62.6433C100.399 62.4372 100.673 62.1507 100.902 61.7838L120.05 26.9403C120.325 26.4364 120.348 25.9897 120.118 25.6002C119.89 25.2106 119.501 25.0159 118.951 25.0159H32.2284ZM27.0964 14.2948H126.199C129.119 14.2948 131.326 15.539 132.821 18.0275C134.318 20.5148 134.389 23.0551 133.036 25.6484L110.166 67.1301C108.996 69.1921 107.448 70.7979 105.522 71.9474C103.594 73.0981 101.483 73.6735 99.1869 73.6735H47.1086L38.845 88.792C38.4786 89.3424 38.4673 89.938 38.8111 90.5789C39.1537 91.2209 39.6682 91.542 40.3546 91.542H122.026V102.263H40.3546C35.5962 102.263 32.0208 100.208 29.6285 96.0984C27.235 91.9887 27.1505 87.8855 29.3751 83.7888L39.5588 65.454L13.5901 10.7211H0V0H20.3156L27.0964 14.2948Z" fill="black"/>
</svg>
