<svg width="320" height="67" viewBox="0 0 320 67" fill="none" xmlns="http://www.w3.org/2000/svg">
<path d="M33.0158 67C23.9364 67 16.1649 63.7189 9.70114 57.1566C3.23372 50.598 0 42.7125 0 33.5C0 24.2875 3.23372 16.402 9.70114 9.84342C16.1649 3.28114 23.9364 0 33.0158 0C42.0951 0 49.8685 3.28114 56.3359 9.84342C62.7997 16.402 66.0316 24.2875 66.0316 33.5C66.0316 42.7125 62.7997 50.598 56.3359 57.1566C49.8685 63.7189 42.0951 67 33.0158 67ZM160 67C150.921 67 143.149 63.7189 136.685 57.1566C130.218 50.598 126.984 42.7125 126.984 33.5C126.984 24.2875 130.218 16.402 136.685 9.84342C143.149 3.28114 150.921 0 160 0C169.079 0 176.851 3.28114 183.315 9.84342C189.782 16.402 193.016 24.2875 193.016 33.5C193.016 42.7125 189.782 50.598 183.315 57.1566C176.851 63.7189 169.079 67 160 67ZM286.984 67C277.905 67 270.132 63.7189 263.664 57.1566C257.2 50.598 253.968 42.7125 253.968 33.5C253.968 24.2875 257.2 16.402 263.664 9.84342C270.132 3.28114 277.905 0 286.984 0C296.064 0 303.835 3.28114 310.299 9.84342C316.766 16.402 320 24.2875 320 33.5C320 42.7125 316.766 50.598 310.299 57.1566C303.835 63.7189 296.064 67 286.984 67Z" fill="black"/>
</svg>
