<svg width="386" height="214" viewBox="0 0 386 214" fill="none" xmlns="http://www.w3.org/2000/svg">
<path d="M371.246 127.911C378.353 113.828 384.859 93.5004 382.821 68.2605C382.429 63.4267 381.698 58.7759 380.652 54.4386L380.548 53.9422C377.308 38.7355 368.006 24.7308 354.394 14.4885C352.695 13.2082 350.971 12.0324 349.22 10.935C346.032 8.92316 342.61 7.22482 339.056 5.86615C338.978 5.84002 338.899 5.78777 338.821 5.76164C331.218 2.75689 322.439 1.21532 322.073 1.16306C321.785 1.1108 321.498 1.08467 321.237 1.05854C313.215 -0.378511 304.567 -0.352381 294.847 1.13693C291.529 1.63337 288.393 2.33883 285.781 3.14881C285.023 3.38396 284.187 3.67137 283.508 3.93266C272.821 7.25095 263.258 12.9208 255.106 20.7854C255.028 20.8638 254.923 20.9422 254.845 21.0206C252.284 23.3198 249.123 27.0301 246.771 29.9303L239.351 27.9968C239.037 27.9184 238.75 27.84 238.436 27.7616C238.384 27.7616 238.332 27.7616 238.279 27.7355C224.066 24.4956 210.897 24.4695 199.113 27.631C196.03 28.4671 192.999 29.5384 190.047 30.8448C189.054 30.5051 188.061 30.1654 187.042 29.878C186.833 29.7997 186.598 29.7213 186.363 29.669L186.075 29.5906C186.075 29.5906 185.84 29.5122 185.788 29.5122C185.605 29.46 185.422 29.4077 185.239 29.3816L179.177 27.7878C179.021 27.7355 178.838 27.6833 178.733 27.6571C178.524 27.6049 178.315 27.5526 178.08 27.5004L176.852 27.1868C176.46 27.0823 176.068 27.0039 175.676 26.9778C163.605 24.3127 150.149 24.9137 135.674 28.7545C126.346 17.7023 114.849 9.99442 101.393 5.84002C100.583 5.55261 99.7996 5.26519 99.1202 5.0823C97.9445 4.7165 96.6642 4.37684 95.3055 4.0633L92.0918 3.22719C90.7331 2.80914 89.2438 2.41722 87.5977 2.05142C87.4409 1.99917 87.2841 1.97303 87.1274 1.94691C85.7948 1.6595 84.41 1.39821 82.973 1.18919C64.0038 -1.71105 49.0324 0.77113 35.8898 9.00154C34.1654 10.0728 32.4409 11.2747 30.7948 12.5027C17.3649 22.5882 8.19384 36.4101 4.95394 51.5645L4.90169 51.878C3.85656 56.1892 3.15109 60.8139 2.75917 65.5954C0.721164 90.966 7.35773 111.372 14.6214 125.481C7.72352 129.871 -1.00331 138.807 0.0940738 151.192C0.485998 155.581 2.07982 159.709 4.7449 163.211C4.9278 163.472 5.11071 163.707 5.34586 163.942C6.36487 165.17 7.54064 166.32 8.82093 167.339C8.92544 167.417 9.05608 167.522 9.16059 167.6C11.9563 169.926 16.3981 172.956 22.1463 174.812C22.6689 174.994 23.1915 175.151 23.7402 175.282L25.125 175.648C25.6214 175.752 26.0917 175.883 26.5881 175.961C26.6927 175.961 26.8233 176.014 26.9017 176.04C27.2936 176.118 27.6855 176.144 28.0775 176.17C29.8542 176.379 32.0228 176.379 34.0086 176.118C38.1369 175.569 42.4219 174.289 47.0205 172.225C52.4813 177.973 60.0323 184.531 69.4124 189.365C75.5787 193.363 82.0062 196.263 88.5122 198.014C95.3316 199.869 102.987 200.783 111.218 200.783C121.591 200.783 131.154 199.294 137.686 197.935C139.384 199.764 141.161 201.436 142.964 202.899C143.094 203.03 143.225 203.135 143.382 203.239L143.512 203.344C144.139 203.84 144.792 204.337 145.472 204.807C145.655 204.937 145.838 205.068 146.099 205.225C149.6 207.655 154.721 210.816 159.45 212.227C159.477 212.227 159.529 212.227 159.555 212.253C162.037 213.011 164.598 213.377 167.158 213.377C173.664 213.377 180.222 210.895 185.187 206.557C188.766 203.422 191.771 199.111 193.391 194.12C195.037 197.622 197.389 200.679 200.08 203.03C200.498 203.396 200.942 203.762 201.386 204.101C201.622 204.284 201.857 204.467 202.118 204.65L203.372 205.486C203.372 205.486 203.607 205.643 203.633 205.669C210.636 210.163 213.536 211.261 214.659 211.6C217.769 212.776 220.983 213.377 224.249 213.377C229.736 213.377 235.092 211.652 239.743 208.36C244.472 205.042 248.313 200.861 251.082 197.334C257.614 198.823 268.379 200.757 280.189 200.757C288.42 200.757 296.075 199.816 302.895 197.987C321.263 193.023 334.823 180.037 342.27 171.206C347.679 173.845 352.669 175.439 357.398 176.066C364.087 176.98 371.168 175.047 376.472 170.814C381.724 166.633 384.938 160.65 385.538 154.013C386.74 140.348 377.073 131.752 371.299 127.911H371.246Z" fill="white"/>
<path d="M364.218 132.875L360.795 130.655C368.869 117.068 377.177 96.0085 374.983 68.8873C374.617 64.4194 373.938 60.1082 372.971 56.1106L372.866 55.5619C370.018 42.2104 361.762 29.8517 349.664 20.759C348.149 19.6355 346.607 18.5643 345.04 17.5714C329.729 7.95619 313.529 9.05357 302.686 10.7258C299.681 11.1961 296.885 11.797 294.586 12.5025C293.907 12.7115 293.175 12.9728 292.496 13.208C279.51 17.2056 268.51 24.8873 259.809 36.0963C258.398 37.6379 257.118 39.2317 255.89 40.7994C237.888 34.5287 221.662 33.2222 207.683 37.0108C203.477 38.1605 199.479 39.7543 195.664 41.7923C191.85 39.7543 187.852 38.1343 183.645 37.0108C169.641 33.2222 153.415 34.5287 135.413 40.7994C134.185 39.2317 132.93 37.664 131.519 36.0963C122.819 24.8873 111.819 17.1795 98.833 13.1818C98.1014 12.9206 97.3959 12.6593 96.7688 12.4764C94.4434 11.7709 91.6215 11.1438 88.6429 10.6735C77.7997 9.00133 61.6002 7.90393 46.289 17.5191C44.7213 18.4859 43.1797 19.5571 41.6643 20.7068C29.5669 29.7994 21.3103 42.1581 18.4624 55.5097L18.3578 56.0584C17.3911 60.0821 16.7118 64.3671 16.346 68.8351C14.1512 95.9562 22.46 117.016 30.5336 130.602L27.0847 132.823C24.6809 134.077 12.5574 141.028 13.6548 153.282C14.0467 157.75 16.2153 161.773 19.7688 164.621C22.8258 167.051 26.6667 168.384 30.5598 168.384C31.3175 168.384 32.1013 168.332 32.859 168.227C38.2676 167.495 44.2771 165.118 51.1227 161.094C56.27 168.175 70.1963 184.871 90.4719 190.358C97.2914 192.187 104.398 192.866 111.139 192.866C126.424 192.866 139.776 189.443 143.512 188.372C145.576 191.533 150.018 197.621 156.106 201.88C159.712 204.415 163.474 205.46 167.08 205.46C172.044 205.46 176.643 203.474 179.935 200.6C185.631 195.636 189.211 186.517 184.455 177.241C183.41 175.229 182.13 173.087 180.693 170.944C185.004 168.384 190.177 164.857 195.612 160.049C201.047 164.83 206.246 168.384 210.531 170.944C209.12 173.087 207.814 175.229 206.769 177.241C202.014 186.491 205.619 195.636 211.289 200.6C214.581 203.474 219.206 205.486 224.144 205.486C227.75 205.486 231.512 204.441 235.118 201.906C241.18 197.647 245.622 191.56 247.712 188.398C251.448 189.443 264.826 192.892 280.085 192.892C286.826 192.892 293.933 192.213 300.726 190.384C321.002 184.897 334.928 168.201 340.075 161.12C346.921 165.17 352.93 167.548 358.339 168.279C359.097 168.384 359.881 168.436 360.638 168.436C364.531 168.436 368.372 167.13 371.429 164.674C374.983 161.826 377.151 157.802 377.543 153.334C378.641 141.054 366.491 134.104 364.087 132.875H364.218ZM63.4553 109.386C63.0633 108.655 62.6191 107.923 62.2272 107.165C57.2629 97.5501 54.8852 90.2603 53.9707 81.9776L53.9184 81.6118C53.1346 74.322 54.8591 67.398 59.0657 60.9966C60.6857 58.5405 64.4743 52.7923 71.0325 50.3624C81.6405 46.4431 94.0515 53.9681 96.4291 55.5097C98.1797 56.6593 99.8258 57.9396 101.446 59.3766C96.5337 64.4978 90.08 74.5833 92.8496 90.3387L63.4291 109.36L63.4553 109.386ZM37.3531 56.0061C37.6928 54.7258 39.0253 53.9681 40.3056 54.3078C41.5859 54.6474 42.3436 55.98 42.0039 57.2603C41.6643 58.5405 40.3317 59.2983 39.0515 58.9586C37.7712 58.6189 37.0134 57.2864 37.3531 56.0061ZM34.2177 75.1059C34.9493 73.9301 35.9683 73.1201 36.9351 72.8327C37.4315 72.9633 37.9279 73.1724 38.4244 73.4598C38.4505 73.4598 38.5028 73.512 38.5289 73.5382C38.346 75.2365 38.2937 76.9348 38.3199 78.6332C37.6667 79.4432 36.8567 79.9657 36.0989 80.2009C35.6025 80.0441 35.1061 79.8612 34.6358 79.5738C34.1655 79.2864 33.7735 78.9206 33.4077 78.5287C33.2248 77.5358 33.4861 76.2555 34.2177 75.0797V75.1059ZM49.3983 39.3362C51.0443 38.056 53.0823 37.9253 53.9707 39.0488L47.9873 43.6735C47.1251 42.55 47.7522 40.6165 49.3983 39.3362ZM70.7973 27.9182C72.0776 28.2579 72.8353 29.5904 72.4957 30.8707C72.156 32.151 70.8234 32.9087 69.5432 32.569C68.2629 32.2294 67.5051 30.8968 67.8448 29.6165C68.1845 28.3363 69.517 27.5785 70.7973 27.9182ZM52.5598 43.4123C50.9137 44.6926 48.8757 44.8232 47.9873 43.6997L53.9707 39.0488C54.8329 40.1724 54.2059 42.132 52.5598 43.4123ZM159.059 55.2745C159.738 54.7519 160.94 55.17 161.75 56.2151L159.712 57.8089C159.529 57.8089 159.346 57.8612 159.189 57.8873C158.536 56.8945 158.432 55.7709 159.059 55.2745ZM159.712 57.8351L161.75 56.2412C162.116 56.7116 162.299 57.208 162.403 57.6522C161.515 57.7044 160.626 57.7567 159.738 57.8351H159.712ZM231.617 57.8351L229.579 56.2412C230.415 55.1961 231.617 54.7781 232.27 55.3006C232.897 55.7971 232.793 56.9206 232.139 57.9135C231.957 57.9135 231.774 57.8612 231.617 57.8351ZM229.579 56.2412L231.617 57.8351C230.702 57.7567 229.814 57.7044 228.926 57.6522C229.004 57.1819 229.213 56.6854 229.579 56.2412ZM343.341 43.6997L337.358 39.075C338.22 37.9515 340.284 38.0821 341.93 39.3624C343.577 40.6427 344.204 42.5762 343.341 43.6997ZM337.358 39.0488L343.341 43.6997C342.479 44.8232 340.415 44.6926 338.769 43.4123C337.123 42.132 336.496 40.1724 337.358 39.0488ZM320.531 27.9182C321.812 27.5785 323.144 28.3363 323.484 29.6165C323.824 30.8968 323.066 32.2294 321.786 32.569C320.505 32.9087 319.173 32.151 318.833 30.8707C318.493 29.5904 319.251 28.2579 320.531 27.9182ZM320.27 50.3624C326.828 52.7923 330.617 58.5405 332.237 60.9966C336.443 67.3719 338.168 74.2959 337.384 81.5334L337.332 82.0037C336.444 90.2341 334.066 97.5239 329.101 107.139C328.71 107.897 328.291 108.628 327.873 109.36L298.453 90.3387C301.249 74.5833 294.769 64.5239 289.857 59.3766C291.451 57.9396 293.097 56.6593 294.873 55.5097C297.251 53.9681 309.662 46.4431 320.27 50.3624ZM352.277 58.9586C350.997 59.2983 349.664 58.5405 349.325 57.2603C348.985 55.98 349.743 54.6474 351.023 54.3078C352.303 53.9681 353.636 54.7258 353.976 56.0061C354.315 57.2864 353.558 58.6189 352.277 58.9586ZM356.693 79.5738C356.223 79.8612 355.726 80.0702 355.23 80.2009C354.472 79.9657 353.662 79.4432 353.009 78.6332C353.009 76.9348 352.983 75.2104 352.8 73.5382C352.826 73.5382 352.878 73.4859 352.93 73.4598C353.427 73.1462 353.897 72.9633 354.394 72.8327C355.36 73.1201 356.379 73.9301 357.111 75.1059C357.843 76.2816 358.104 77.5358 357.921 78.5548C357.555 78.9467 357.163 79.3125 356.693 79.5738ZM284.631 41.1391C284.945 40.3553 286.199 40.094 287.453 40.5904C287.871 40.7472 288.211 40.9823 288.498 41.2436C287.662 41.7401 286.983 42.1581 286.434 42.5239C286.173 42.7068 285.911 42.9158 285.65 43.0987C284.84 42.55 284.396 41.7923 284.657 41.1391H284.631ZM243.218 75.9942C243.296 89.6854 249.123 98.4123 254.557 103.586C250.508 111.085 245.726 119.054 241.049 126.056L240.03 127.859C239.142 129.165 236.842 132.614 233.446 137.631C232.035 136.978 230.31 136.089 228.377 134.966L228.299 133.032C228.299 133.032 225.033 130.681 221.061 126.735C221.244 126.343 221.453 125.978 221.636 125.586C230.572 106.956 231.408 89.189 224.327 73.1724C228.952 72.6759 238.358 74.0869 243.192 75.9942H243.218ZM183.88 80.2531C185.03 81.2721 186.023 82.3957 186.859 83.6237C186.859 83.6498 186.885 83.6759 186.911 83.7282C186.859 83.9895 186.781 84.2769 186.65 84.5643C185.866 86.4978 184.168 87.6474 182.835 87.0987C181.503 86.5762 181.085 84.5643 181.869 82.6308C182.313 81.5334 183.07 80.6973 183.88 80.2531ZM209.46 82.6047L204.679 84.5382C204.574 84.2769 204.496 83.9895 204.417 83.7282C204.417 83.7021 204.443 83.6759 204.47 83.6237C205.306 82.3957 206.299 81.2721 207.448 80.2531C208.258 80.6712 209.016 81.5073 209.46 82.6308V82.6047ZM208.467 87.0987C207.135 87.6213 205.436 86.4978 204.652 84.5643L209.434 82.6308C210.218 84.5643 209.774 86.5762 208.467 87.0987ZM211.446 103.063C211.106 104.343 209.774 105.101 208.493 104.761C207.997 104.631 207.605 104.317 207.318 103.951C207.161 103.168 207.004 102.384 206.899 101.6C207.344 100.45 208.546 99.7971 209.747 100.111C211.028 100.45 211.785 101.783 211.446 103.063ZM184.534 101.809C184.873 103.089 184.116 104.422 182.835 104.761L181.581 100.111C182.862 99.771 184.194 100.529 184.534 101.809ZM181.581 100.111L182.835 104.761C181.555 105.101 180.223 104.343 179.883 103.063C179.543 101.783 180.301 100.45 181.581 100.111ZM197.572 63.6617C197.911 64.942 197.154 66.2745 195.873 66.6142C195.795 66.6142 195.743 66.6142 195.664 66.6142C195.586 66.6142 195.534 66.6142 195.455 66.6142C194.175 66.2745 193.417 64.942 193.757 63.6617C194.018 62.7211 194.776 62.094 195.664 61.9372C196.553 62.094 197.31 62.7472 197.572 63.6617ZM217.612 58.6712C217.612 58.6712 217.377 58.7234 217.272 58.7496L211.629 54.3078C211.629 54.3078 211.576 54.2555 211.55 54.2294C212.491 53.0536 214.555 53.132 216.201 54.4123C217.743 55.6142 218.318 57.4431 217.638 58.645L217.612 58.6712ZM211.603 54.3339L217.246 58.7757C216.75 58.9063 216.253 59.037 215.783 59.1676C214.477 57.5477 213.118 55.9277 211.629 54.3339H211.603ZM175.154 54.4384C176.8 53.1581 178.864 53.0797 179.804 54.2555C179.778 54.2816 179.752 54.3078 179.726 54.3339L174.082 58.7496C174.082 58.7496 173.847 58.6973 173.743 58.6712C173.063 57.4693 173.638 55.6403 175.18 54.4384H175.154ZM179.726 54.3339C178.237 55.9016 176.878 57.5215 175.572 59.1676C175.075 59.037 174.605 58.9063 174.109 58.7757L179.726 54.3339ZM169.667 125.586C170.268 126.814 170.869 127.99 171.496 129.165C166.27 133.267 161.149 136.037 157.857 137.605C154.277 132.327 151.952 128.878 151.272 127.859L150.645 126.683L150.28 126.056C145.603 119.054 140.821 111.085 136.771 103.586C142.206 98.4123 148.032 89.6854 148.111 75.9942C152.971 74.0869 162.377 72.6759 166.975 73.1724C159.895 89.189 160.731 106.982 169.667 125.586ZM103.876 40.5904C105.104 40.094 106.384 40.3553 106.698 41.1391C106.959 41.7662 106.515 42.55 105.705 43.0987C105.443 42.9158 105.182 42.7068 104.921 42.5239C104.372 42.1842 103.693 41.7401 102.857 41.2436C103.144 40.9823 103.484 40.7472 103.902 40.5904H103.876ZM105.809 126.579C111.113 137.082 116.078 144.529 116.914 145.757L121.408 152.942C115.79 154.51 108.056 156.156 100.897 154.196C92.4315 151.897 86.6572 144.842 83.6263 140.348C91.8306 135.201 99.6952 130.341 105.835 126.579H105.809ZM290.484 154.196C283.325 156.13 275.591 154.484 269.973 152.942L274.467 145.757C275.251 144.581 280.215 137.108 285.52 126.579C291.66 130.341 299.524 135.201 307.755 140.374C304.698 144.868 298.949 151.923 290.484 154.222V154.196ZM298.74 36.4883C297.748 35.6783 297.46 33.9538 298.113 32.2816C298.871 30.3481 300.648 29.2246 302.059 29.7733C303.47 30.322 303.992 32.36 303.208 34.2935C303.052 34.6593 302.869 34.9728 302.66 35.2864C301.301 35.6522 299.968 36.0441 298.714 36.4883H298.74ZM88.1204 34.3196C87.3626 32.3861 87.8591 30.3481 89.27 29.7994C90.6809 29.2507 92.4315 30.3743 93.2154 32.3077C93.8686 33.98 93.5811 35.7044 92.5883 36.5144C91.3341 36.0702 90.0277 35.6783 88.6429 35.3125C88.4339 34.999 88.251 34.6854 88.0942 34.3196H88.1204Z" fill="#481267"/>
<path d="M193.286 94.4678C193.913 96.558 201.674 126.266 221.871 138.703L203.947 155.19C203.947 155.19 186.31 142.622 178.759 122.19L186.702 117.016L193.286 94.4678Z" fill="#FF6B00"/>
<path d="M178.76 122.216C178.76 122.216 188.453 145.183 213.171 162.14L200.603 160.677C200.603 160.677 178.943 141.629 172.045 122.216C165.147 102.803 178.76 122.216 178.76 122.216Z" fill="#481267"/>
<path d="M193.182 92.7952C193.182 92.7952 193.757 120.543 221.871 138.703L221.531 130.237C221.531 130.237 200.707 115.37 199.871 96.4793C199.035 77.5624 193.182 92.7952 193.182 92.7952Z" fill="#481267"/>
<path d="M273.37 189.156C256.909 189.156 242.617 185.106 240.474 184.479L232.218 182.023L251.762 148.109L256.7 149.31C257.536 149.519 258.607 149.833 259.888 150.199C265.584 151.897 275.12 154.693 283.926 152.315C294.873 149.363 301.405 138.755 303.548 135.28L307.206 129.322L338.037 149.598L334.301 155.268C331.584 159.422 316.795 180.429 293.75 186.648C287.035 188.477 280.006 189.13 273.344 189.13L273.37 189.156ZM252.833 173.531C263.363 175.595 278.073 176.902 290.249 173.584C303.417 170.03 313.581 159.788 318.938 153.282L311.256 148.239C306.762 154.275 299.054 162.348 287.505 165.458C276.322 168.462 265.322 165.902 258.372 163.916L252.833 173.531Z" fill="#481267"/>
<path d="M353.975 164.7C353.244 164.7 352.512 164.647 351.781 164.543C345.301 163.681 337.907 160.415 329.154 154.588C312.353 143.379 288.472 128.643 275.747 120.856L270.652 117.747L273.108 112.286C276.27 105.206 278.726 98.4123 280.372 92.0631L282.724 82.9443L356.928 130.942C361.971 133.45 370.802 140.557 369.914 150.486C369.548 154.693 367.484 158.481 364.139 161.146C361.265 163.446 357.633 164.7 353.949 164.7H353.975ZM287.845 112.339C301.275 120.569 321.707 133.294 336.705 143.301C345.275 149.023 350.631 150.695 353.61 151.113C354.341 151.218 355.125 151.008 355.674 150.564C356.118 150.225 356.353 149.807 356.379 149.31C356.588 147.063 352.695 144.032 350.657 142.987C350.344 142.83 350.056 142.674 349.769 142.491L290.823 104.37C289.935 106.982 288.942 109.647 287.845 112.365V112.339Z" fill="#481267"/>
<path d="M217.429 201.776C212.726 201.776 208.336 199.869 205.201 197.152C199.793 192.449 196.37 183.774 200.916 174.969C202.196 172.487 203.764 169.9 205.619 167.235C221.505 144.373 232.793 127.546 234.125 125.586L235.118 123.836C244.472 109.805 258.477 85.4794 258.686 75.9426V74.5839L259.261 73.3559C260.384 70.8475 264.46 62.1468 270.339 55.5364L274.676 50.6504L279.719 54.8048C284.187 58.4889 294.168 69.0447 290.667 87.8309C285.781 114.011 268.353 140.27 266.864 142.465L241.206 183.513C240.37 184.95 235.353 193.154 227.854 198.38C224.432 200.783 220.852 201.776 217.429 201.776ZM246.562 131.073L245.961 132.197C245.804 132.484 245.622 132.772 245.439 133.059C245.021 133.686 233.394 151.035 216.776 174.969C215.261 177.137 214.006 179.228 213.013 181.161C211.498 184.114 213.301 186.178 214.163 186.909C215.025 187.667 217.325 189.209 220.094 187.275C225.477 183.513 229.448 176.772 229.605 176.484L229.709 176.301L255.576 134.94C256.282 133.895 272.873 109.335 277.341 85.3226C278.491 79.1302 277.394 74.4532 275.721 71.1088C274.075 73.8 272.847 76.3084 272.142 77.7715C270.6 94.1017 251.056 124.306 246.562 131.073ZM234.23 125.403C234.23 125.403 234.23 125.43 234.177 125.456C234.177 125.43 234.203 125.403 234.23 125.403Z" fill="#481267"/>
<path d="M213.223 172.252L207.892 169.404C197.075 163.656 176.957 149.886 163.762 122.373C151.272 96.3492 154.774 71.9976 173.9 51.9311L174.318 51.5131C181.921 43.4656 190.961 38.0048 201.178 35.2352C215.313 31.4204 231.774 32.8314 250.09 39.4157L257.98 42.2375L253.565 49.3706C250.116 54.962 247.895 60.7364 247.033 66.5368L246.954 67.2684L245.778 76.2304L237.496 72.5725C232.453 70.3516 221.14 68.7055 216.593 69.5416C207.187 71.2922 200.577 74.8979 196.919 80.3064C193.6 85.1924 192.738 91.6984 194.332 99.6414C198.878 122.242 221.27 133.582 228.037 136.508L235.562 139.774L230.938 146.542C227.018 152.29 222.185 159.318 216.698 167.287L213.249 172.252H213.223ZM183.384 129.349C191.876 141.76 201.648 149.677 209.068 154.406C211.289 151.192 213.379 148.135 215.313 145.314C208.101 141.264 198.251 134.418 190.778 124.202C190.569 124.568 190.36 124.934 190.125 125.273C188.479 127.677 186.049 129.14 183.384 129.349ZM178.629 118.323C178.629 118.323 178.681 118.715 178.916 119.081C179.622 120.23 181.085 121.014 182.653 121.04C185.187 121.145 186.781 119.316 186.807 118.532C186.807 118.428 186.755 118.14 186.52 117.774C185.971 116.886 184.664 115.841 182.783 115.815C181.242 115.763 179.726 116.468 178.968 117.591C178.733 117.957 178.655 118.219 178.655 118.323H178.629ZM172.698 108.447C173.22 109.962 173.795 111.504 174.448 113.071C176.016 109.858 178.942 107.689 182.339 107.506C182.208 107.062 182.078 106.618 181.947 106.147C180.824 107.271 179.413 108.107 177.819 108.525C176.12 108.995 174.344 108.943 172.698 108.42V108.447ZM175.415 95.2779C175.049 95.2779 174.657 95.3302 174.265 95.4347C173.168 95.7221 172.175 96.4798 171.626 97.4727C171.052 98.4656 170.895 99.6675 171.208 100.791C171.496 101.888 172.254 102.855 173.246 103.43C174.239 104.005 175.441 104.162 176.565 103.848C178.89 103.221 180.275 100.817 179.648 98.4917C179.125 96.5321 177.349 95.2518 175.415 95.2518V95.2779ZM170.189 88.1711C170.033 89.5297 169.954 90.8884 169.954 92.2732C170.843 91.5938 171.888 91.0713 173.037 90.7839C173.22 90.7316 173.429 90.6794 173.612 90.6532C173.612 90.6532 173.56 90.6532 173.534 90.6271C172.201 90.0784 171.052 89.2423 170.163 88.1972L170.189 88.1711ZM178.629 91.019C179.073 91.2019 179.543 91.411 179.961 91.6461C179.961 91.3064 179.961 90.9668 179.987 90.6271C179.543 90.81 179.099 90.9407 178.629 91.0452V91.019ZM173.586 79.2352C173.455 79.5487 173.455 79.9929 173.56 80.4632C173.847 81.7957 174.971 83.0238 176.382 83.5986C177.793 84.1734 179.439 84.0428 180.588 83.2851C180.797 83.1283 180.98 82.9715 181.137 82.8147C181.242 82.3706 181.372 81.9264 181.503 81.4822C181.372 80.3064 180.406 78.7387 178.629 78.0071C176.356 77.0927 174.056 78.0855 173.612 79.2091L173.586 79.2352ZM178.211 70.3777C179.308 70.3777 180.406 70.5867 181.451 71.0048C182.888 71.5796 184.09 72.4941 185.03 73.696C185.239 73.3563 185.448 73.0428 185.657 72.7031C186.128 71.9976 186.65 71.2922 187.173 70.639C186.023 70.4822 184.926 70.0903 183.881 69.4893C182.208 68.5226 180.902 67.1117 180.118 65.3872C178.759 67.0855 177.531 68.7839 176.46 70.5345C177.035 70.4299 177.636 70.3516 178.211 70.3516V70.3777ZM184.142 60.8409C184.037 61.4418 184.09 62.0689 184.246 62.6698C184.534 63.7672 185.291 64.734 186.284 65.3088C187.277 65.8836 188.505 66.0404 189.603 65.7269C191.928 65.0998 193.313 62.696 192.686 60.3706C192.372 59.247 191.641 58.2803 190.648 57.7055C189.864 57.2613 188.923 57.0523 188.035 57.1568C187.826 57.3135 187.643 57.4964 187.434 57.6793C186.311 58.6722 185.213 59.7173 184.142 60.8409ZM192.973 53.4988C192.973 53.4988 193.025 53.4988 193.025 53.5249C195.168 54.753 196.683 56.7387 197.337 59.1164C197.572 60.0309 197.676 60.9454 197.65 61.8599C198.617 61.3112 199.636 60.7886 200.707 60.3183C198.068 57.6793 196.997 54.1259 197.702 50.9121C196.082 51.6698 194.515 52.5321 192.999 53.5249L192.973 53.4988ZM232.035 57.0261C233.08 57.2352 234.099 57.4442 235.092 57.6793C235.85 55.0143 236.816 52.3753 237.992 49.7886C235.484 49.0831 233.028 48.5083 230.624 48.038C232.166 49.7102 232.923 52.0095 232.688 54.4133C232.61 55.3017 232.375 56.19 232.035 57.0523V57.0261ZM205.358 51.9573C204.47 53.0808 204.13 54.5439 204.496 55.7981C204.653 56.3207 204.914 56.7387 205.227 57C206.194 57.7577 208.572 57.6271 210.087 55.6675L205.358 51.9573ZM226.235 56.1639C227.045 56.2684 227.881 56.3729 228.717 56.4774C229.187 54.7791 228.586 52.4537 226.731 50.9644C225.555 50.0499 224.04 49.6057 222.603 49.7886C221.453 49.9192 220.486 50.4418 219.885 51.1734C219.493 51.6698 219.258 52.3231 219.18 53.0808C219.102 53.9953 219.258 54.9098 219.65 55.7459C221.767 55.6675 223.961 55.8765 226.235 56.1378V56.1639ZM205.358 51.9573L210.087 55.6675C211.603 53.734 211.185 51.3824 210.218 50.6508C209.251 49.8931 206.873 50.0238 205.358 51.9834V51.9573ZM214.189 46.81C215.287 47.7767 216.175 48.9525 216.802 50.2067C217.011 49.8931 217.22 49.5796 217.455 49.266C218.265 48.2209 219.232 47.3848 220.277 46.7577C218.187 46.6532 216.149 46.6793 214.163 46.81H214.189Z" fill="#481267"/>
<path d="M347.809 135.881L316.9 115.971L320.087 110.379C321.289 108.263 322.282 106.486 323.144 104.814C328.161 95.0683 330.591 87.7001 331.479 79.3391L331.531 78.921C332.341 71.4222 330.565 64.2892 326.227 57.7049C324.555 55.1704 320.662 49.2393 313.79 46.6787C302.764 42.6027 289.961 50.3367 287.531 51.9305C284.762 53.7333 282.227 55.8497 279.797 58.4103C279.667 58.5932 279.536 58.7761 279.405 58.9851L278.778 59.8996L277.968 60.6573C272.795 66.0136 268.876 74.1395 267.752 76.6479C267.595 80.2013 266.367 86.3676 260.071 99.0398L256.151 106.931L249.515 101.13C243.636 95.9828 236.79 86.5766 237.417 70.9519C237.496 69.0707 237.679 67.1372 237.966 65.2037C239.586 54.282 244.916 43.7785 253.747 34.0065C262.344 22.9281 273.187 15.3509 285.99 11.4317H286.016C286.617 11.1965 287.348 10.9352 288.054 10.7262C290.327 10.0207 293.071 9.41979 296.023 8.97561C313.033 6.36279 326.28 8.5053 337.724 15.6906C339.265 16.6573 340.807 17.7025 342.27 18.826C354.185 27.788 362.31 39.9376 365.106 53.054L365.211 53.5505C366.177 57.522 366.857 61.7809 367.196 66.2227C369.522 94.9899 359.907 116.859 351.441 130.159L347.783 135.907L347.809 135.881ZM335.006 111.477L343.498 116.938C348.097 108.341 352.382 96.9756 353.636 83.1277C350.866 84.7476 347.574 84.6692 344.7 83.1799C343.446 92.3248 340.598 100.581 335.215 111.033C335.137 111.189 335.059 111.32 334.98 111.477H335.006ZM272.978 33.5101C269.869 36.0706 266.994 39.0493 264.382 42.4198L263.859 43.0469C256.857 50.7547 252.65 58.9067 251.396 67.1894C251.187 68.6265 251.03 70.0635 250.978 71.4744C250.795 75.8379 251.474 79.4174 252.572 82.3438C254.061 78.2417 254.192 76.3604 254.192 75.7072C254.192 74.4792 254.401 73.2251 254.897 72.0754C255.446 70.7951 260.489 59.0635 268.458 50.9376C268.641 50.6502 268.85 50.3628 269.059 50.1015C269.32 49.7619 269.529 49.5006 269.79 49.2393C271.149 47.8022 272.534 46.4436 273.997 45.1894C273.448 44.7191 272.978 44.1965 272.56 43.6217C270.888 41.2963 270.496 38.4222 271.515 35.8877C271.854 34.9994 272.351 34.2155 272.952 33.5362L272.978 33.5101ZM345.301 76.4127C345.484 76.4911 345.667 76.5433 345.902 76.5956C347.052 76.8569 348.358 76.6217 349.429 75.9685C350.736 75.1585 351.624 73.7476 351.65 72.3889C351.65 71.9448 351.572 71.6835 351.519 71.579C351.101 70.8996 348.828 70.168 346.66 71.5006C346.033 71.8925 345.588 72.3367 345.223 72.8331C345.301 74.0089 345.327 75.2108 345.301 76.4127ZM267.778 75.5243C267.778 75.5243 267.778 75.5243 267.778 75.5505C267.778 75.5505 267.778 75.5505 267.778 75.5243ZM346.843 63.1395C347.548 63.1395 348.28 63.2179 348.985 63.4008C350.631 63.7927 352.199 64.6027 353.557 65.7785C353.322 63.4008 352.983 61.1277 352.538 58.9329C351.337 60.7357 349.534 62.1467 347.287 62.7476C346.006 63.0873 344.752 63.1395 343.524 62.9566C343.603 63.2179 343.681 63.4792 343.733 63.7144C344.726 63.3486 345.771 63.1395 346.869 63.1395H346.843ZM279.693 58.541C279.693 58.541 279.667 58.5671 279.641 58.5932C279.641 58.5932 279.667 58.5671 279.693 58.541ZM343.707 49.6312C341.382 50.2583 339.997 52.6621 340.624 54.9875C341.251 57.3391 343.681 58.6977 346.006 58.0706C347.13 57.7832 348.097 57.0255 348.672 56.0326C349.246 55.0398 349.403 53.8117 349.09 52.7144C348.463 50.3889 346.059 49.0303 343.733 49.6312L344.23 51.5124L343.707 49.6312ZM336.313 48.3509C336.522 48.6645 336.731 48.9519 336.914 49.2132C337.175 48.7951 337.436 48.377 337.75 48.0113C337.28 48.168 336.809 48.2725 336.313 48.3509ZM343.733 38.997C343.916 41.1918 343.289 43.3343 341.93 45.0849C341.93 45.0849 341.904 45.1371 341.878 45.1371C342.061 45.0849 342.244 45.0065 342.453 44.9543C344.282 44.4578 346.111 44.5623 347.783 45.111C346.607 42.9946 345.249 40.9566 343.733 38.997ZM276.035 37.6383C275.329 39.3889 275.538 41.3747 276.584 42.8117C276.636 42.864 276.662 42.9162 276.714 42.9946C277.838 42.1324 278.987 41.3224 280.163 40.5647C281.156 39.9376 282.645 39.0231 284.527 38.0303C284.422 37.1941 284.109 36.3842 283.612 35.6787C283.168 35.0778 282.619 34.6336 282.018 34.3723C281.417 34.1371 280.712 34.0849 279.98 34.2155C278.23 34.5552 276.74 35.8616 276.035 37.6122V37.6383ZM331.218 36.75C330.277 37.9519 329.938 39.5718 330.356 40.8782C330.512 41.3224 330.747 41.7143 331.009 41.9234C331.976 42.655 334.458 42.3675 335.947 40.4341L331.218 36.75ZM331.218 36.75L335.973 40.4341C337.515 38.4483 337.123 36.0184 336.182 35.2868C335.79 34.9732 335.085 34.8426 334.327 34.9471C333.125 35.1039 332.002 35.7571 331.218 36.7761V36.75ZM320.166 34.6075C321.341 35.1039 322.439 35.6787 323.484 36.2535C323.693 34.7642 324.268 33.3533 325.208 32.0991C327.063 29.6953 329.938 28.5457 332.89 28.7025C332.106 28.1538 331.322 27.6051 330.512 27.1086C328.004 25.5409 325.391 24.2868 322.622 23.3723C322.883 23.8949 323.092 24.4436 323.249 25.0184C324.215 28.6241 322.883 32.3343 320.166 34.5552V34.6075ZM290.118 29.0421C289.961 29.4079 289.961 29.9044 290.092 30.4269C290.405 31.6811 291.451 32.7785 292.783 33.3272C294.116 33.8497 295.605 33.7452 296.702 33.0659C297.147 32.7785 297.486 32.4127 297.643 32.0208C298.087 30.8972 297.277 28.6502 295.004 27.7357C293.671 27.2132 292.156 27.3177 291.059 27.997C290.614 28.2844 290.275 28.6502 290.118 29.0421ZM300.099 22.0659C301.614 23.2939 302.712 25.0445 303.234 27.0825C303.652 28.7025 303.679 30.4269 303.313 32.1253C304.306 32.0208 305.325 31.9685 306.344 31.9424C305.978 31.2892 305.717 30.6098 305.508 29.8782C304.854 27.5267 305.194 25.0445 306.422 22.902C306.71 22.3794 307.049 21.9091 307.441 21.4649C305.116 21.5433 302.686 21.7523 300.125 22.0659H300.099ZM279.405 30.7666C280.633 30.7666 281.914 31.0017 283.168 31.4982C283.534 31.6288 283.873 31.7856 284.187 31.9685C284.109 30.3747 284.37 28.6763 285.023 27.0041C285.154 26.6645 285.31 26.3248 285.493 25.9851C281.861 27.5006 278.439 29.4341 275.251 31.7595C276.505 31.1063 277.942 30.7405 279.432 30.7405L279.405 30.7666ZM313.242 23.2678C310.916 23.8949 309.531 26.2987 310.158 28.6241C310.785 30.9495 313.189 32.3343 315.515 31.7072C316.638 31.4198 317.605 30.6621 318.18 29.6692C318.755 28.6763 318.911 27.4483 318.598 26.3509C318.31 25.2535 317.553 24.2868 316.56 23.712C315.567 23.1371 314.365 22.9804 313.242 23.2939V23.2678Z" fill="#481267"/>
<path d="M285.728 158.899C273.082 162.322 259.913 157.096 255.132 155.921L242.407 177.973C250.507 180.377 273.239 185.184 291.999 180.115C311.203 174.916 324.764 157.462 328.657 151.557L309.348 138.859C306.396 143.666 298.845 155.346 285.728 158.899Z" fill="#FF6B00"/>
<path d="M353.714 136.899C353.714 136.899 353.557 136.821 353.478 136.769L286.956 93.7354C285.022 101.234 282.253 108.524 279.326 115.056C291.502 122.503 315.932 137.579 332.968 148.944C340.728 154.118 347.364 157.096 352.721 157.828C355.307 158.168 357.92 157.462 359.932 155.842C361.813 154.353 362.963 152.21 363.172 149.885C363.878 141.994 353.818 136.952 353.714 136.899Z" fill="#FF6B00"/>
<path d="M284.004 86.5507C286.852 71.2396 278.831 62.8262 275.408 60.0044C270.13 65.9616 266.289 74.1921 265.453 76.0733C265.113 90.7051 242.382 125.116 240.736 127.572L239.978 128.983C239.978 128.983 239.899 129.114 239.873 129.166C239.769 129.349 228.142 146.672 211.184 171.102C209.512 173.506 208.075 175.857 206.952 178.052C203.921 183.957 206.507 189.261 209.669 192.031C212.831 194.8 218.5 196.655 223.961 192.814C230.755 188.059 235.405 179.985 235.458 179.907L261.168 138.755C261.403 138.415 279.196 112.313 284.004 86.5769" fill="#FF6B00"/>
<path d="M211.079 163.42C216.566 155.477 221.4 148.449 225.293 142.727C216.88 139.069 192.79 126.501 187.668 100.974C185.709 91.1757 186.911 82.9453 191.274 76.4917C195.977 69.5415 204.077 64.943 215.338 62.8788C221.4 61.7553 234.02 63.6365 240.212 66.38C240.239 66.0926 240.265 65.8313 240.317 65.5439C241.336 58.7767 243.844 52.1662 247.79 45.8171C230.728 39.6769 215.73 38.3444 202.954 41.7933C193.939 44.2232 186.022 49.0308 179.255 56.19L178.837 56.608C161.592 74.7149 158.588 95.8527 169.901 119.447C182.155 144.974 200.576 157.803 211.106 163.42M225.79 51.9833C226.626 50.9382 227.828 50.5201 228.507 51.0427C229.186 51.5653 229.056 52.8456 228.22 53.8907C227.41 54.9358 226.182 55.3539 225.502 54.8313C224.823 54.3087 224.954 53.0285 225.79 51.9833ZM209.172 50.5985C210.113 49.3966 212.203 49.5011 213.849 50.7814C215.495 52.0617 216.07 54.0736 215.129 55.2755C214.189 56.4774 212.098 56.3729 210.452 55.0926C208.806 53.8123 208.231 51.8004 209.172 50.5985ZM187.851 59.1947C189.132 58.8551 190.464 59.6128 190.804 60.8931C191.144 62.1734 190.386 63.5059 189.106 63.8456C187.825 64.1852 186.493 63.4275 186.153 62.1472C185.813 60.8669 186.571 59.5344 187.851 59.1947ZM185.395 118.506C185.343 120.805 184.089 122.634 182.6 122.582C181.11 122.556 179.961 120.648 180.013 118.349C180.065 116.05 181.319 114.221 182.835 114.273C184.324 114.325 185.474 116.207 185.421 118.506M174.265 81.2209C175.049 79.2874 176.747 78.1377 178.079 78.6864C179.412 79.209 179.83 81.2209 179.046 83.1544C178.262 85.0879 176.564 86.2375 175.231 85.6888C173.899 85.1662 173.481 83.1544 174.265 81.2209ZM174.787 97.3159C176.068 96.9762 177.4 97.7339 177.74 99.0142C178.079 100.295 177.322 101.627 176.041 101.967C174.761 102.306 173.429 101.549 173.089 100.268C172.749 98.9881 173.507 97.6556 174.787 97.3159Z" fill="#FF6B00"/>
<path d="M104.399 189.155C97.7362 189.155 90.7077 188.502 83.9927 186.673C60.9476 180.455 46.159 159.421 43.4417 155.293L39.7053 149.623L70.5367 129.348L74.1946 135.305C76.3372 138.78 82.8692 149.388 93.817 152.341C102.622 154.718 112.159 151.896 117.855 150.224C119.135 149.858 120.207 149.545 121.043 149.336L125.981 148.134L145.525 182.048L137.268 184.504C135.126 185.132 120.86 189.181 104.373 189.181L104.399 189.155ZM58.8573 153.281C64.2136 159.787 74.3775 170.029 87.5462 173.583C99.7481 176.875 114.432 175.569 124.962 173.531L119.423 163.915C112.499 165.901 101.473 168.462 90.2897 165.457C78.741 162.348 71.0331 154.274 66.5391 148.238L58.8573 153.281Z" fill="#481267"/>
<path d="M23.819 164.7C20.1349 164.7 16.5031 163.446 13.629 161.146C10.2846 158.481 8.24657 154.693 7.88078 150.486C6.99242 140.505 15.7976 133.45 20.8665 130.942L95.0708 82.9443L97.4224 92.0631C99.0684 98.4123 101.498 105.232 104.686 112.286L107.142 117.747L102.047 120.856C89.3226 128.643 65.4414 143.379 48.6409 154.588C39.8879 160.415 32.4936 163.681 26.0138 164.543C25.2822 164.647 24.5506 164.7 23.8452 164.7H23.819ZM27.1112 142.987C25.0732 144.032 21.1801 147.037 21.3891 149.284C21.4413 149.78 21.6765 150.199 22.0945 150.538C22.6694 150.982 23.4271 151.191 24.1848 151.087C27.1634 150.695 32.4936 148.997 41.0898 143.275C56.0874 133.267 76.5459 120.569 89.9497 112.313C88.8523 109.621 87.8594 106.93 86.9711 104.317L28.0257 142.438C27.7644 142.621 27.4508 142.778 27.1373 142.935L27.1112 142.987Z" fill="#481267"/>
<path d="M160.339 201.775C156.916 201.775 153.337 200.782 149.914 198.378C142.441 193.126 137.425 184.948 136.484 183.354L110.93 142.464C109.415 140.243 91.9874 113.984 87.1276 87.8295C83.6264 69.0432 93.6335 58.4613 98.0753 54.8033L103.118 50.6489L107.455 55.5349C113.308 62.1454 117.41 70.8461 118.534 73.3544L119.082 74.5824V75.9411C119.344 85.4779 133.349 109.803 142.702 123.834L143.042 124.383L143.695 125.611C146.178 129.295 157.021 145.416 172.175 167.259C174.03 169.925 175.598 172.511 176.878 174.993C181.398 183.799 177.976 192.473 172.567 197.176C169.432 199.92 165.068 201.801 160.339 201.801V201.775ZM100.453 85.3211C104.921 109.333 121.512 133.894 122.218 134.913L122.375 135.148L148.189 176.483C148.346 176.77 152.344 183.485 157.7 187.274C160.47 189.207 162.769 187.666 163.631 186.908C164.493 186.15 166.296 184.112 164.781 181.16C163.788 179.226 162.508 177.136 161.018 174.967C145.446 152.549 134.394 136.115 132.33 133.031C132.12 132.718 131.964 132.457 131.807 132.195L131.206 131.072C126.712 124.305 107.168 94.1003 105.626 77.7701C104.947 76.3069 103.693 73.8247 102.047 71.1074C100.375 74.4518 99.2772 79.1287 100.427 85.3211H100.453ZM143.512 125.324C143.512 125.324 143.539 125.376 143.565 125.402C143.565 125.402 143.539 125.35 143.512 125.324Z" fill="#481267"/>
<path d="M164.546 172.25L161.097 167.286C155.584 159.343 150.776 152.288 146.857 146.54L142.232 139.773L149.757 136.507C156.498 133.581 178.89 122.241 183.462 99.6399C185.056 91.6969 184.194 85.191 180.876 80.305C177.218 74.8964 170.607 71.2907 161.201 69.5401C156.681 68.704 145.341 70.3501 140.325 72.571L132.042 76.229L130.762 66.4831C129.899 60.7349 127.705 54.9605 124.23 49.3691L119.814 42.2361L127.705 39.4142C146.047 32.8299 162.481 31.419 176.617 35.2337C186.807 38.0033 195.847 43.4641 203.477 51.5377L203.869 51.9558C222.995 72.0484 226.496 96.4 214.006 122.424C200.812 149.937 180.693 163.68 169.876 169.455L164.546 172.303V172.25ZM162.455 145.312C164.389 148.134 166.479 151.165 168.7 154.405C176.12 149.676 185.892 141.785 194.384 129.348C191.719 129.113 189.289 127.676 187.643 125.272C187.408 124.932 187.199 124.566 186.99 124.2C179.517 134.443 169.667 141.288 162.455 145.312ZM190.987 118.531C190.987 119.21 192.451 121.065 195.142 121.039C196.709 120.987 198.173 120.229 198.878 119.079C199.113 118.714 199.166 118.426 199.166 118.322C199.166 118.322 199.087 117.93 198.852 117.59C198.094 116.466 196.579 115.761 195.011 115.813C193.13 115.866 191.823 116.911 191.275 117.773C191.04 118.139 190.987 118.426 190.987 118.531L192.372 118.504H190.987V118.531ZM195.455 107.505C198.878 107.687 201.778 109.856 203.346 113.07C203.999 111.502 204.574 109.961 205.097 108.445C203.451 108.968 201.674 108.994 199.949 108.55C198.356 108.132 196.971 107.295 195.821 106.172C195.69 106.616 195.56 107.086 195.429 107.531L195.455 107.505ZM201.204 103.873C202.301 104.16 203.529 104.003 204.522 103.455C205.515 102.88 206.272 101.913 206.56 100.79C206.847 99.6921 206.69 98.4641 206.142 97.4713C205.567 96.4784 204.6 95.7206 203.477 95.4332C201.151 94.8062 198.747 96.1909 198.12 98.5164C197.493 100.842 198.878 103.246 201.204 103.873ZM204.156 90.6256C204.339 90.6779 204.548 90.704 204.731 90.7563C205.881 91.0698 206.926 91.5924 207.814 92.2456C207.814 90.8608 207.709 89.5021 207.579 88.1434C206.69 89.1886 205.567 90.0247 204.208 90.5734C204.208 90.5734 204.156 90.5734 204.13 90.5995L204.156 90.6256ZM197.781 90.6256C197.781 90.9653 197.781 91.305 197.807 91.6446C198.251 91.4095 198.695 91.2005 199.139 91.0176C198.669 90.9131 198.225 90.7824 197.781 90.5995V90.6256ZM196.657 82.8133C196.814 82.97 196.997 83.1529 197.206 83.2836C198.329 84.0413 199.976 84.172 201.413 83.5971C202.823 83.0223 203.947 81.7943 204.234 80.4617C204.339 79.9914 204.313 79.5472 204.208 79.2337C203.764 78.1102 201.439 77.1173 199.192 78.0318C197.415 78.7373 196.448 80.305 196.318 81.5069C196.448 81.951 196.579 82.3952 196.683 82.8394L196.657 82.8133ZM190.595 70.6375C191.118 71.3168 191.641 71.9962 192.111 72.7016C192.32 73.0152 192.555 73.3548 192.738 73.6945C193.679 72.4926 194.88 71.5781 196.318 71.0033C197.911 70.3501 199.61 70.2194 201.282 70.5591C200.185 68.8085 198.983 67.1102 197.624 65.4118C196.84 67.1363 195.534 68.5472 193.861 69.514C192.842 70.1149 191.719 70.4807 190.569 70.6375H190.595ZM188.166 65.7254C189.289 66.0389 190.491 65.8822 191.484 65.3073C192.477 64.7325 193.234 63.7658 193.522 62.6423C193.679 62.0674 193.705 61.4403 193.626 60.8394C192.555 59.7159 191.484 58.6708 190.334 57.6779C190.125 57.495 189.942 57.3382 189.733 57.1553C188.845 57.0508 187.904 57.2598 187.12 57.704C186.128 58.2788 185.37 59.2456 185.082 60.343C184.455 62.6684 185.84 65.0722 188.166 65.6993V65.7254ZM177.061 60.3168C178.106 60.8133 179.125 61.3097 180.118 61.8584C180.092 60.9439 180.196 60.0294 180.432 59.1149C181.059 56.7373 182.6 54.7776 184.717 53.5496C184.717 53.5496 184.769 53.5496 184.795 53.5235C183.28 52.5567 181.712 51.6945 180.092 50.9107C180.797 54.1244 179.726 57.6779 177.087 60.3168H177.061ZM139.802 49.761C140.978 52.3738 141.945 55.0128 142.702 57.6518C143.695 57.4166 144.714 57.2076 145.759 56.9985C145.42 56.1624 145.211 55.2741 145.106 54.3596C144.871 51.9558 145.629 49.6565 147.17 47.9843C144.766 48.4546 142.31 49.0294 139.802 49.7349V49.761ZM172.41 51.9558L167.681 55.666C169.196 57.5995 171.574 57.7563 172.541 56.9985C172.854 56.7373 173.116 56.3192 173.272 55.7966C173.638 54.5686 173.272 53.0793 172.41 51.9558ZM154.538 49.7349C153.31 49.7349 152.056 50.1529 151.063 50.9629C149.182 52.4261 148.581 54.7515 149.078 56.476C149.914 56.3453 150.724 56.2408 151.56 56.1624C153.807 55.9012 156.028 55.7705 158.092 55.7705H158.144C158.536 54.9344 158.719 53.9938 158.641 53.1054C158.562 52.3477 158.327 51.6945 157.909 51.1719C157.334 50.4403 156.341 49.9178 155.218 49.7871C155.009 49.7871 154.8 49.761 154.591 49.761L154.538 49.7349ZM169.04 50.2052C168.439 50.2052 167.916 50.362 167.576 50.6232C166.61 51.381 166.192 53.7064 167.707 55.666L172.436 51.9558C171.47 50.7016 170.137 50.2052 169.04 50.2052ZM157.491 46.7563C158.536 47.3833 159.503 48.2194 160.313 49.2384C160.548 49.552 160.783 49.8655 160.966 50.1791C161.593 48.9249 162.508 47.7491 163.579 46.7824C161.593 46.6517 159.555 46.6517 157.465 46.7301L157.491 46.7563Z" fill="#481267"/>
<path d="M29.9586 135.88L26.3007 130.132C17.8351 116.832 8.24602 94.9631 10.5453 66.1958C10.9111 61.7801 11.5643 57.4951 12.5311 53.5236L12.6356 53.0272C15.4313 39.9108 23.5572 27.7611 35.4717 18.7991C36.961 17.6756 38.4764 16.6305 40.018 15.6637C51.4622 8.47845 64.7092 6.33593 81.7188 8.94876C84.6712 9.39294 87.4147 10.02 89.714 10.7255C90.3411 10.9084 91.0465 11.1697 91.752 11.4309C104.555 15.3502 115.398 22.9535 123.994 34.0319C132.852 43.83 138.13 54.3074 139.776 65.2291C140.063 67.1626 140.246 69.0699 140.324 70.9512C140.952 86.5759 134.106 95.982 128.227 101.129L121.59 106.93L117.671 99.0391C111.348 86.3407 110.12 80.1744 109.99 76.6471C108.84 74.1127 104.947 66.0129 99.695 60.6044L98.9373 59.925L98.3102 59.0105C98.1795 58.8276 98.0489 58.6186 97.9183 58.4357C95.4361 55.849 92.9278 53.7588 90.1843 51.9559C87.7282 50.3621 74.9515 42.6281 63.9254 46.7041C57.0798 49.2386 53.1605 55.1697 51.4883 57.7041C47.151 64.2885 45.3743 71.4215 46.1843 78.9464L46.2365 79.3122C47.1249 87.7255 49.5548 95.0937 54.5715 104.84C55.4337 106.512 56.4004 108.288 57.6285 110.405L60.8161 115.996L29.9064 135.906L29.9586 135.88ZM24.1581 83.1531C25.4384 96.9749 29.7235 108.367 34.2959 116.963L42.7876 111.502C42.7092 111.345 42.6308 111.215 42.5525 111.058C37.17 100.633 34.3221 92.3763 33.0679 83.2053C30.1938 84.6946 26.9016 84.773 24.132 83.1531H24.1581ZM109.284 50.9369C117.279 59.1412 122.296 70.7944 122.845 72.1008C123.341 73.2505 123.576 74.4785 123.55 75.7326C123.55 76.3597 123.707 78.241 125.17 82.3431C126.267 79.4167 126.947 75.8371 126.764 71.4737C126.712 70.0889 126.581 68.6519 126.346 67.2148C125.118 58.9322 120.885 50.7801 113.83 42.9939L113.334 42.393C110.721 39.0224 107.873 36.0699 104.764 33.5093C105.365 34.1887 105.861 34.9725 106.227 35.8609C107.22 38.3953 106.828 41.2956 105.182 43.5948C104.764 44.1697 104.294 44.6922 103.745 45.1625C105.208 46.4428 106.619 47.8015 108.03 49.2908C108.213 49.4737 108.448 49.7611 108.683 50.0485C108.918 50.3621 109.127 50.6495 109.31 50.9369H109.284ZM26.2745 71.5782C26.2745 71.5782 26.1178 71.944 26.1439 72.3882C26.17 73.7469 27.0584 75.1578 28.3909 75.9678C29.4622 76.621 30.7686 76.8562 31.9182 76.5949C32.1534 76.5426 32.3363 76.4642 32.5192 76.412C32.5192 75.2101 32.5192 74.0343 32.5976 72.8324C32.2579 72.3621 31.7876 71.8918 31.1867 71.526C29.018 70.1934 26.7448 70.925 26.3268 71.6044L26.2745 71.5782ZM109.99 75.5497C109.99 75.5497 109.99 75.5497 109.99 75.5759C109.99 75.5759 109.99 75.5759 109.99 75.5497ZM25.2555 58.906C24.8114 61.1269 24.4717 63.4001 24.2104 65.7516C25.5691 64.5759 27.1368 63.7659 28.7829 63.374C30.5857 62.9559 32.4147 63.0604 34.0608 63.6875C34.1391 63.4262 34.1914 63.1649 34.2698 62.9298C33.0679 63.1127 31.7876 63.0604 30.5334 62.7207C28.2864 62.1198 26.4574 60.7089 25.2555 58.906ZM98.1012 58.5664C98.1012 58.5664 98.1534 58.6447 98.2057 58.6709C98.1796 58.6447 98.1534 58.5925 98.1012 58.5664ZM31.7615 58.0699C34.0869 58.697 36.4907 57.3122 37.1178 55.0129C37.7448 52.6875 36.36 50.2837 34.0608 49.6305L33.5382 51.5117L34.0346 49.6305C31.7092 49.0034 29.3054 50.3882 28.6783 52.7136C28.3909 53.811 28.5477 55.039 29.1225 56.0319C29.6973 57.0248 30.6641 57.7825 31.7615 58.0699ZM40.018 48.0105C40.3315 48.3763 40.5928 48.7944 40.8541 49.2124C41.037 48.9511 41.2199 48.6637 41.4551 48.3502C40.9586 48.2718 40.4883 48.1673 40.018 48.0105ZM35.3149 44.9535C35.4978 45.0058 35.7069 45.058 35.8898 45.1364C35.8898 45.1364 35.8636 45.0842 35.8375 45.058C34.4788 43.3336 33.8779 41.191 34.0346 38.9701C32.4931 40.9298 31.1344 42.9939 29.9848 45.1103C31.657 44.5616 33.4859 44.4571 35.3149 44.9535ZM93.2674 38.0034C95.1487 38.9963 96.638 39.9108 97.6309 40.5378C98.8066 41.3217 99.9563 42.1317 101.08 42.9678C101.132 42.9155 101.158 42.8633 101.21 42.7849C102.256 41.3478 102.465 39.3621 101.759 37.5853C101.054 35.8348 99.5382 34.5283 97.8137 34.1887C97.0821 34.058 96.3767 34.0842 95.7757 34.3193C95.1748 34.5545 94.6261 34.9986 94.1819 35.6257C93.6855 36.3051 93.372 37.115 93.2674 37.9773V38.0034ZM46.5762 36.7492L41.847 40.4333C43.3363 42.3668 45.8446 42.6542 46.7852 41.9226C47.0465 41.7136 47.2817 41.3478 47.4384 40.8775C47.8565 39.5711 47.5168 37.9511 46.5762 36.7492ZM42.9966 34.8941C42.4218 34.8941 41.9254 35.0248 41.6118 35.2599C40.6712 35.9915 40.2793 38.4214 41.8209 40.4072L46.5762 36.7231C45.7924 35.7041 44.6688 35.0509 43.4669 34.8941C43.3102 34.8941 43.1534 34.868 42.9966 34.868V34.8941ZM45.4004 28.7279C48.17 28.7279 50.809 29.8775 52.5335 32.1245C53.5002 33.3787 54.075 34.7896 54.2579 36.2789C55.3031 35.678 56.4004 35.1293 57.5762 34.6328C54.8589 32.4119 53.5263 28.7017 54.4931 25.096C54.6498 24.5212 54.8589 23.9464 55.1201 23.4238C52.3244 24.3383 49.7116 25.5925 47.2294 27.1602C46.4194 27.6566 45.6356 28.2053 44.8518 28.754C45.0346 28.754 45.2175 28.754 45.4004 28.754V28.7279ZM80.151 32.02C80.3078 32.4119 80.6475 32.7777 81.0917 33.0652C82.189 33.7706 83.6783 33.849 85.037 33.3264C86.3696 32.8039 87.3886 31.7065 87.7021 30.4523C87.8327 29.9298 87.8328 29.4333 87.676 29.0675C87.5192 28.7017 87.2057 28.3098 86.7354 28.0224C85.638 27.3169 84.1487 27.2385 82.8161 27.7611C80.5168 28.6756 79.7069 30.8965 80.151 32.0462V32.02ZM71.4503 31.9416C72.4693 31.9416 73.4883 32.02 74.4812 32.1245C74.1154 30.4262 74.1415 28.7017 74.5596 27.0818C75.0822 25.0438 76.1795 23.3193 77.695 22.0651C75.1344 21.7255 72.6784 21.5165 70.3791 21.4642C70.771 21.9084 71.1107 22.3787 71.3981 22.9013C72.6261 25.0438 72.9396 27.526 72.2864 29.8775C72.1035 30.6091 71.8161 31.2884 71.4503 31.9416ZM92.771 27.0034C93.4242 28.6756 93.6855 30.3478 93.6071 31.9678C93.9468 31.7849 94.2865 31.6281 94.6261 31.4975C97.4219 30.4001 100.296 30.583 102.569 31.7849C99.3815 29.4333 95.9587 27.526 92.3007 26.0105C92.4575 26.3502 92.6142 26.6899 92.771 27.0295V27.0034ZM62.2532 31.7065C64.5786 32.3336 66.9824 30.9488 67.6095 28.6233C68.2366 26.2979 66.8517 23.8941 64.5525 23.2671C63.4289 22.9796 62.227 23.1364 61.2342 23.6851C60.2413 24.2599 59.4836 25.2267 59.1962 26.3502C58.9088 27.4476 59.0655 28.6756 59.6403 29.6685C60.2152 30.6613 61.1819 31.4191 62.3054 31.7065H62.2532Z" fill="#481267"/>
<path d="M92.0657 158.899C104.712 162.322 117.88 157.096 122.662 155.921L135.386 177.973C127.287 180.377 104.555 185.184 85.7949 180.115C66.5906 174.916 53.0301 157.462 49.137 151.557L68.4458 138.859C71.3983 143.666 78.9493 155.346 92.0657 158.899Z" fill="#FF6B00"/>
<path d="M24.0801 136.899C24.0801 136.899 24.2368 136.821 24.3152 136.769L90.8378 93.7354C92.7713 101.234 95.5409 108.524 98.4673 115.056C86.2915 122.503 61.8616 137.579 44.8259 148.944C37.0658 154.118 30.4292 157.096 25.0729 157.828C22.4862 158.168 19.8734 157.462 17.8615 155.842C15.9803 154.353 14.8306 152.21 14.6216 149.885C13.9162 141.994 23.9756 136.952 24.0801 136.899Z" fill="#FF6B00"/>
<path d="M166.687 163.42C177.217 157.829 195.637 144.974 207.892 119.447C219.205 95.8527 216.2 74.7149 198.956 56.608L198.538 56.19C191.744 49.0308 183.827 44.2232 174.839 41.7933C162.036 38.3444 147.039 39.6769 130.003 45.8171C133.949 52.1924 136.457 58.7767 137.476 65.5439C137.528 65.8313 137.528 66.0926 137.58 66.38C143.773 63.6365 156.393 61.7814 162.454 62.8788C173.716 64.9691 181.816 69.5415 186.519 76.4917C190.882 82.9453 192.084 91.1757 190.124 100.974C184.977 126.475 160.913 139.069 152.5 142.727C156.419 148.449 161.226 155.477 166.713 163.42M154.982 53.4465C155.818 54.4916 155.922 55.7719 155.269 56.2945C154.59 56.8171 153.388 56.399 152.552 55.3539C151.716 54.3087 151.611 53.0285 152.264 52.5059C152.944 51.9833 154.146 52.4014 154.982 53.4465ZM173.036 50.7292C173.977 51.9311 173.402 53.943 171.756 55.2232C170.11 56.5035 168.02 56.5819 167.079 55.4061C166.139 54.2042 166.713 52.1924 168.359 50.9121C170.006 49.6318 172.096 49.5534 173.036 50.7292ZM190.595 60.9192C191.875 61.2589 192.633 62.5914 192.293 63.8717C191.953 65.152 190.621 65.9097 189.341 65.57C188.06 65.2304 187.302 63.8978 187.642 62.6175C187.982 61.3372 189.314 60.5795 190.595 60.9192ZM192.371 118.506C192.319 116.207 193.469 114.325 194.958 114.273C196.447 114.221 197.702 116.076 197.78 118.349C197.832 120.648 196.683 122.53 195.193 122.582C193.704 122.634 192.45 120.779 192.398 118.506M202.823 81.1686C203.607 83.1021 203.162 85.114 201.856 85.6366C200.523 86.1591 198.825 85.0356 198.041 83.1021C197.257 81.1686 197.702 79.1567 199.008 78.6342C200.34 78.1116 202.039 79.2351 202.823 81.1686ZM202.979 97.3159C204.26 97.6556 205.017 98.9881 204.678 100.268C204.338 101.549 203.006 102.306 201.725 101.967C200.445 101.627 199.687 100.295 200.027 99.0142C200.367 97.7339 201.699 96.9762 202.979 97.3159Z" fill="#FF6B00"/>
<path d="M133.557 71.1861C133.479 69.54 133.322 67.8678 133.087 66.1956C131.65 56.5542 126.868 47.2264 118.873 38.4212C118.821 38.369 118.794 38.3428 118.768 38.2906C111.034 28.2834 101.288 21.4117 89.792 17.8844C89.7398 17.8844 89.6353 17.8321 89.583 17.806C88.9559 17.5709 88.3288 17.3357 87.754 17.1789C85.7944 16.578 83.3383 16.0293 80.7255 15.6374C67.6614 13.6255 55.0937 14.2003 43.6495 21.3856C42.2647 22.2478 40.906 23.1884 39.5735 24.1813C29.697 31.6017 21.8846 42.2621 19.2979 54.4117C19.2979 54.5424 19.2718 54.6469 19.2457 54.7775C18.3051 58.5139 17.678 62.5376 17.3383 66.7181C14.9868 95.7728 25.7777 116.649 32.0485 126.474L51.8015 113.749C50.7041 111.816 49.6329 109.882 48.6139 107.922C42.9701 97.0008 40.5141 88.9272 39.5473 80.0436L39.4951 79.6516C38.9725 74.9485 38.659 64.8892 45.8704 53.9675C47.7255 51.1457 52.6637 43.6207 61.6257 40.3286C75.3431 35.2597 89.8443 43.5685 93.9464 46.2597C97.2386 48.4022 100.243 50.9367 103.091 53.9675C103.144 54.0198 103.196 54.0982 103.248 54.1766C103.562 54.5946 103.849 55.0127 104.136 55.4307C104.163 55.4568 104.215 55.483 104.241 55.5091C111.531 62.825 116.391 74.2953 116.6 74.7656C116.73 75.0531 116.783 75.3405 116.783 75.654C116.73 80.2265 119.761 87.9082 123.785 96.0079C128.462 91.9058 134.106 84.2241 133.557 71.2122M27.45 72.3096C28.6519 70.35 30.6637 69.4094 31.944 70.1932C33.2243 70.977 33.2504 73.198 32.0485 75.1576C30.8466 77.1172 28.8348 78.0578 27.5545 77.274C26.3003 76.4901 26.2481 74.2692 27.45 72.3096ZM33.5378 51.5115C34.8181 51.8511 35.5759 53.1837 35.2362 54.464C34.8965 55.7443 33.564 56.502 32.2837 56.1623C31.0034 55.8226 30.2457 54.4901 30.5853 53.2098C30.925 51.9295 32.2576 51.1718 33.5378 51.5115ZM47.1768 36.2787C48.039 37.4022 47.412 39.3618 45.7659 40.6421C44.1198 41.9224 42.0818 42.053 41.1934 40.9295C40.3312 39.806 40.9583 37.8464 42.6044 36.5661C44.2504 35.2858 46.2884 35.1552 47.1768 36.2787ZM64.0295 25.148C65.3098 25.4877 66.0676 26.8203 65.7279 28.1005C65.3882 29.3808 64.0557 30.1386 62.7754 29.7989C61.4951 29.4592 60.7374 28.1267 61.0771 26.8464C61.4167 25.5661 62.7493 24.8084 64.0295 25.148ZM86.4476 29.5115C87.2053 31.445 86.7089 33.483 85.298 34.0317C83.887 34.5804 82.1365 33.4568 81.3526 31.5233C80.5949 29.5899 81.0913 27.5519 82.5023 27.0032C83.9132 26.4545 85.6638 27.578 86.4476 29.5115ZM99.9298 38.3428C100.243 39.1267 99.4856 40.1718 98.2576 40.6682C97.0296 41.1647 95.7493 40.9034 95.4357 40.1195C95.1222 39.3357 95.8799 38.2906 97.1079 37.7941C98.336 37.2977 99.6163 37.559 99.9298 38.3428Z" fill="#FF6B00"/>
<path d="M182.287 90.417C182.914 92.5073 190.674 122.215 210.871 134.652L192.947 151.139C192.947 151.139 175.31 138.571 167.759 118.139L175.702 112.966L182.287 90.417Z" fill="#FF6B00"/>
<path d="M169.875 119.446C169.875 119.446 179.569 142.413 204.286 159.37L191.718 157.907C191.718 157.907 170.058 138.859 163.16 119.446C156.262 100.059 169.875 119.446 169.875 119.446Z" fill="#481267"/>
<path d="M184.299 90.0509C184.299 90.0509 184.874 117.799 212.988 135.958L212.648 127.493C212.648 127.493 191.824 112.626 190.988 93.735C190.152 74.8442 184.299 90.0509 184.299 90.0509Z" fill="#481267"/>
<path d="M189.315 146.253L198.669 155.084L210.871 140.844C210.871 140.844 195.403 134.286 195.455 135.958C195.507 137.631 189.315 146.253 189.315 146.253Z" fill="#FF6B00"/>
<path d="M166.113 110.118C166.113 110.118 169.301 119.707 175.101 128.982C175.101 128.982 169.954 124.201 169.406 124.096C168.857 123.992 165.748 119.55 165.748 119.55L166.087 110.118H166.113Z" fill="#481267"/>
<path d="M191.641 149.128L194.332 151.584L198.879 147.639L191.641 149.128Z" fill="#FF6B00"/>
<path d="M202.667 127.807C202.667 127.807 206.795 131.7 209.643 133.66C212.491 135.619 205.332 135.959 205.332 135.959L203.712 134.626C203.712 134.626 203.686 134.313 203.294 132.876C202.902 131.439 202.641 127.781 202.641 127.781L202.667 127.807Z" fill="#FF6B00"/>
<path d="M147.641 127.154L149.836 125.43C149.836 125.43 154.565 132.772 155.27 133.791C155.976 134.81 148.973 133.425 148.843 133.268C148.712 133.111 148.085 132.876 148.007 132.04C147.928 131.204 147.615 127.154 147.615 127.154H147.641Z" fill="#481267"/>
<path d="M170.817 178.052C169.693 175.857 168.256 173.506 166.584 171.102C157.596 158.168 150.149 147.247 145.08 139.774C144.035 138.232 139.227 130.89 137.059 127.598C137.059 127.598 136.876 127.285 136.745 127.076C136.327 126.449 136.092 126.057 136.04 126.004C131.232 118.636 112.681 89.3203 112.368 76.0733C111.532 74.1921 107.717 65.9616 102.413 60.0044C98.99 62.8262 90.9686 71.2657 93.8165 86.5507C98.6241 112.287 116.418 138.389 116.653 138.729L142.363 179.881C142.363 179.881 147.066 188.033 153.859 192.788C159.32 196.629 164.964 194.774 168.152 192.004C171.313 189.261 173.926 183.957 170.869 178.026L170.817 178.052Z" fill="#FF6B00"/>
<path d="M154.408 197.386L162.246 200.495L161.698 204.728C155.793 203.056 148.111 197.046 148.111 197.046L154.382 197.412L154.408 197.386Z" fill="#481267"/>
<path d="M206.429 198.118C206.429 198.118 214.11 203.239 217.194 204.153C220.277 205.068 220.564 199.267 220.564 199.267L219.232 198.823C218.526 198.588 211.236 195.4 210.949 195.505C210.661 195.609 206.429 198.118 206.429 198.118Z" fill="#481267"/>
<path d="M251.474 110.118C251.474 110.118 226.652 149.702 219.283 159.396C219.283 159.396 243.896 154.039 244.184 153.569C244.471 153.099 254.557 136.429 254.557 136.429L251.474 110.118Z" fill="#FF6B00"/>
<path d="M221.087 126.736C221.087 126.736 226.887 132.275 228.324 133.033C228.324 133.033 233.707 126.214 237.6 119.969C241.493 113.724 236.921 126.188 236.921 126.188C236.921 126.188 231.669 134.261 230.885 135.097C230.101 135.933 226.051 138.18 225.999 138.05C225.947 137.919 220.251 130.342 220.251 130.342L221.061 126.71L221.087 126.736Z" fill="#481267"/>
<path d="M360.455 66.7455C360.116 62.565 359.489 58.5412 358.548 54.8049C358.522 54.7003 358.496 54.5697 358.496 54.4391C355.909 42.2894 348.097 31.6291 338.22 24.2086C336.888 23.2158 335.529 22.2751 334.144 21.4129C322.7 14.2276 310.158 13.6528 297.068 15.6647C294.455 16.0566 291.999 16.6053 290.04 17.2063C289.465 17.3892 288.838 17.5982 288.211 17.8333C288.158 17.8333 288.054 17.8856 288.002 17.9117C283.612 19.2704 279.484 21.0994 275.617 23.3987C274.624 23.9996 273.631 24.6528 272.69 25.306C272.063 25.7502 271.436 26.2205 270.809 26.6647C270.365 26.9782 269.947 27.3179 269.529 27.6314C269.059 28.0234 268.562 28.3892 268.092 28.7811C257.405 37.6908 251.605 48.0115 251.605 48.0115C247.947 53.9165 245.622 59.9783 244.681 66.1968C244.42 67.869 244.263 69.5673 244.211 71.1873C243.688 84.1992 249.306 91.8809 253.983 95.983C258.006 87.8833 261.037 80.2015 260.985 75.6291C260.985 75.3156 261.037 75.0281 261.168 74.7407C261.377 74.2443 266.263 62.8001 273.527 55.4842C273.553 55.4581 273.605 55.4319 273.631 55.4058C273.919 54.9878 274.206 54.5697 274.519 54.1517C274.572 54.0733 274.624 54.021 274.676 53.9426C277.524 50.9117 280.529 48.3773 283.821 46.2348C287.923 43.5697 302.424 35.2348 316.142 40.3037C325.104 43.622 330.042 51.1208 331.897 53.9426C339.082 64.8642 338.769 74.9236 338.272 79.6267L338.22 80.0186C337.28 88.9023 334.797 96.9759 329.154 107.898C328.135 109.857 327.063 111.791 325.966 113.724L345.719 126.449C351.964 116.624 362.755 95.774 360.429 66.6932L360.455 66.7455ZM282.332 40.1208C282.018 40.9046 280.764 41.1659 279.51 40.6695C278.282 40.173 277.524 39.1279 277.838 38.344C278.151 37.5602 279.405 37.2989 280.66 37.7953C281.888 38.2918 282.645 39.3369 282.332 40.1208ZM296.415 31.5246C295.657 33.4581 293.881 34.5816 292.47 34.0329C291.059 33.4842 290.536 31.4462 291.32 29.5127C292.078 27.5792 293.854 26.4557 295.265 27.0044C296.676 27.5531 297.199 29.5911 296.415 31.5246ZM315.018 29.8001C313.738 30.1398 312.405 29.382 312.066 28.1018C311.726 26.8215 312.484 25.4889 313.764 25.1493C315.044 24.8096 316.377 25.5673 316.717 26.8476C317.056 28.1279 316.299 29.4604 315.018 29.8001ZM336.574 40.9307C335.712 42.0543 333.648 41.9236 332.002 40.6433C330.356 39.363 329.729 37.4034 330.591 36.2799C331.453 35.1564 333.517 35.287 335.163 36.5673C336.809 37.8476 337.436 39.8072 336.574 40.9307ZM342.531 54.4652C342.192 53.1849 342.949 51.8524 344.23 51.5127C345.51 51.173 346.843 51.9307 347.182 53.211C347.522 54.4913 346.764 55.8239 345.484 56.1635C344.204 56.5032 342.871 55.7455 342.531 54.4652ZM350.213 77.2752C348.933 78.059 346.947 77.1184 345.719 75.1588C344.517 73.1992 344.569 70.9783 345.824 70.1944C347.078 69.4106 349.09 70.3512 350.318 72.3108C351.52 74.2704 351.467 76.4913 350.213 77.2752Z" fill="#FF6B00"/>
<path d="M249.697 38.8925C249.697 38.8925 256.125 30.5054 260.122 26.8735C260.122 26.8735 260.044 31.4721 259.443 32.3605C258.842 33.2488 254.923 36.3581 254.923 36.3581L249.723 38.8925H249.697Z" fill="#481267"/>
<path d="M320.714 8.92358C320.714 8.92358 328.997 10.3606 335.947 13.1041C342.897 15.8476 334.092 16.9972 334.092 16.9972L326.881 14.6195L320.714 8.89746V8.92358Z" fill="#481267"/>
<path d="M85.6646 9.65527C85.6646 9.65527 92.6669 11.4581 94.7311 12.0068C96.7952 12.5555 94.7311 15.4296 94.7311 15.4296C94.7311 15.4296 90.7596 15.2206 90.2893 14.9593C89.819 14.698 86.4484 13.1042 86.1871 12.9736C85.9258 12.8429 85.6907 9.65527 85.6907 9.65527H85.6646Z" fill="#481267"/>
<path d="M174.813 34.7642L184.35 37.2725L183.253 38.2915C183.253 38.2915 178.419 38.9708 178.053 38.6573C177.687 38.3437 174.813 34.7642 174.813 34.7642Z" fill="#481267"/>
<path d="M236.581 35.4175L247.424 38.2393L243.113 39.9115C243.113 39.9115 240.5 40.4864 239.507 39.9115C238.514 39.3367 236.581 35.4175 236.581 35.4175Z" fill="#481267"/>
<path d="M360.769 130.655L365.446 133.556C365.446 133.556 366.099 134.47 365.812 134.575C365.524 134.679 362.885 135.62 362.624 135.881C362.363 136.142 360.795 134.575 360.795 134.575V130.655H360.769Z" fill="#481267"/>
<path d="M101.915 52.7402C101.915 52.7402 105.025 55.9279 107.089 58.6714C109.153 61.4148 103.927 58.5407 103.744 58.4362C103.562 58.3317 101.21 54.9873 101.21 54.9873L101.915 52.7402Z" fill="#481267"/>
<path d="M89.5046 51.8777C89.5046 51.8777 92.013 52.9751 93.032 53.9157C93.032 53.9157 93.7374 51.8777 93.7113 51.7732C93.6852 51.6687 93.5807 51.4074 93.3455 51.329C93.1103 51.2506 92.4832 50.8587 92.222 50.8065C91.9607 50.7542 89.5046 51.8777 89.5046 51.8777Z" fill="#481267"/>
<path d="M71.6858 14.6449C71.6858 14.6449 86.5528 15.1936 98.1015 21.177C98.1015 21.177 106.907 25.3314 114.275 33.0654C121.643 40.7993 114.641 26.8468 114.641 26.8468C114.641 26.8468 114.379 23.3718 109.702 20.968C105.025 18.5642 90.3414 15.2197 88.9827 14.9585C87.6241 14.6972 79.7333 12.6069 79.5504 12.5547C79.3675 12.5024 71.6858 14.6449 71.6858 14.6449Z" fill="#481267"/>
<path d="M267.778 62.6431C267.778 62.6431 274.415 52.845 280.059 48.978C280.059 48.978 280.477 49.997 280.477 50.598C280.477 51.1989 276.975 57.3391 276.087 58.2013C275.199 59.0635 267.752 62.617 267.752 62.617L267.778 62.6431Z" fill="#481267"/>
<path d="M190.596 60.9185C191.876 61.2582 192.634 62.5907 192.294 63.871C191.955 65.1513 190.622 65.909 189.342 65.5694C188.061 65.2297 187.304 63.8971 187.643 62.6169C187.983 61.3366 189.316 60.5789 190.596 60.9185Z" fill="#481267"/>
<path d="M11.2769 158.821C11.2769 158.821 17.7567 166.372 28.2602 168.254C28.2602 168.254 30.3505 163.707 29.9063 163.733C29.4621 163.76 11.2769 158.821 11.2769 158.821Z" fill="#481267"/>
<path d="M183.122 84.9046C183.122 84.9046 184.612 89.3986 184.612 94.6504C184.612 94.6504 184.899 98.8048 186.284 102.045C187.669 105.285 182.338 104.187 182.338 104.187C182.338 104.187 180.98 101.94 180.509 98.6219C180.039 95.3036 179.543 92.4556 179.543 92.4556L179.778 91.3844L183.122 84.8784V84.9046Z" fill="#FF6B00"/>
<path d="M184.351 90.626C184.351 90.626 184.978 99.3789 187.565 105.049C190.152 110.719 183.411 101.887 183.411 101.887C183.411 101.887 181.53 94.9633 181.895 94.0749C182.261 93.1865 184.351 90.626 184.351 90.626Z" fill="#FF6B00"/>
<path d="M185.187 96.8188C185.187 96.8188 186.075 106.016 195.063 118.793L196.683 116.702L188.662 96.8188H185.187Z" fill="#481267"/>
</svg>
