<svg width="1029" height="227" viewBox="0 0 1029 227" fill="none" xmlns="http://www.w3.org/2000/svg">
<path d="M371.246 127.911C378.353 113.828 384.859 93.5004 382.821 68.2605C382.429 63.4267 381.698 58.7759 380.652 54.4386L380.548 53.9422C377.308 38.7355 368.006 24.7308 354.394 14.4885C352.695 13.2082 350.971 12.0324 349.22 10.935C346.032 8.92316 342.61 7.22482 339.056 5.86615C338.978 5.84002 338.899 5.78777 338.821 5.76164C331.218 2.75689 322.439 1.21532 322.073 1.16306C321.785 1.1108 321.498 1.08467 321.237 1.05854C313.215 -0.378511 304.567 -0.352381 294.847 1.13693C291.529 1.63337 288.393 2.33883 285.781 3.14881C285.023 3.38396 284.187 3.67137 283.508 3.93266C272.821 7.25095 263.258 12.9208 255.106 20.7854C255.028 20.8638 254.923 20.9422 254.845 21.0206C252.284 23.3198 249.123 27.0301 246.771 29.9303L239.351 27.9968C239.037 27.9184 238.75 27.84 238.436 27.7616C238.384 27.7616 238.332 27.7616 238.279 27.7355C224.066 24.4956 210.897 24.4695 199.113 27.631C196.03 28.4671 192.999 29.5384 190.047 30.8448C189.054 30.5051 188.061 30.1654 187.042 29.878C186.833 29.7997 186.598 29.7213 186.363 29.669L186.075 29.5906C186.075 29.5906 185.84 29.5122 185.788 29.5122C185.605 29.46 185.422 29.4077 185.239 29.3816L179.177 27.7878C179.021 27.7355 178.838 27.6833 178.733 27.6571C178.524 27.6049 178.315 27.5526 178.08 27.5004L176.852 27.1868C176.46 27.0823 176.068 27.0039 175.676 26.9778C163.605 24.3127 150.149 24.9137 135.674 28.7545C126.346 17.7023 114.849 9.99442 101.393 5.84002C100.583 5.55261 99.7996 5.26519 99.1202 5.0823C97.9445 4.7165 96.6642 4.37684 95.3055 4.0633L92.0918 3.22719C90.7331 2.80914 89.2438 2.41722 87.5977 2.05142C87.4409 1.99917 87.2841 1.97303 87.1274 1.94691C85.7948 1.6595 84.41 1.39821 82.973 1.18919C64.0038 -1.71105 49.0324 0.77113 35.8898 9.00154C34.1654 10.0728 32.4409 11.2747 30.7948 12.5027C17.3649 22.5882 8.19384 36.4101 4.95394 51.5645L4.90169 51.878C3.85656 56.1892 3.15109 60.8139 2.75917 65.5954C0.721164 90.966 7.35773 111.372 14.6214 125.481C7.72352 129.871 -1.00331 138.807 0.0940738 151.192C0.485998 155.581 2.07982 159.709 4.7449 163.211C4.9278 163.472 5.11071 163.707 5.34586 163.942C6.36487 165.17 7.54064 166.32 8.82093 167.339C8.92544 167.417 9.05608 167.522 9.16059 167.6C11.9563 169.926 16.3981 172.956 22.1463 174.812C22.6689 174.994 23.1915 175.151 23.7402 175.282L25.125 175.648C25.6214 175.752 26.0917 175.883 26.5881 175.961C26.6927 175.961 26.8233 176.014 26.9017 176.04C27.2936 176.118 27.6855 176.144 28.0775 176.17C29.8542 176.379 32.0228 176.379 34.0086 176.118C38.1369 175.569 42.4219 174.289 47.0205 172.225C52.4813 177.973 60.0323 184.531 69.4124 189.365C75.5787 193.363 82.0062 196.263 88.5122 198.014C95.3316 199.869 102.987 200.783 111.218 200.783C121.591 200.783 131.154 199.294 137.686 197.935C139.384 199.764 141.161 201.436 142.964 202.899C143.094 203.03 143.225 203.135 143.382 203.239L143.512 203.344C144.139 203.84 144.792 204.337 145.472 204.807C145.655 204.937 145.838 205.068 146.099 205.225C149.6 207.655 154.721 210.816 159.45 212.227C159.477 212.227 159.529 212.227 159.555 212.253C162.037 213.011 164.598 213.377 167.158 213.377C173.664 213.377 180.222 210.895 185.187 206.557C188.766 203.422 191.771 199.111 193.391 194.12C195.037 197.622 197.389 200.679 200.08 203.03C200.498 203.396 200.942 203.762 201.386 204.101C201.622 204.284 201.857 204.467 202.118 204.65L203.372 205.486C203.372 205.486 203.607 205.643 203.633 205.669C210.636 210.163 213.536 211.261 214.659 211.6C217.769 212.776 220.983 213.377 224.249 213.377C229.736 213.377 235.092 211.652 239.743 208.36C244.472 205.042 248.313 200.861 251.082 197.334C257.614 198.823 268.379 200.757 280.189 200.757C288.42 200.757 296.075 199.816 302.895 197.987C321.263 193.023 334.823 180.037 342.27 171.206C347.679 173.845 352.669 175.439 357.398 176.066C364.087 176.98 371.168 175.047 376.472 170.814C381.724 166.633 384.938 160.65 385.538 154.013C386.74 140.348 377.073 131.752 371.299 127.911H371.246Z" fill="white"/>
<path d="M364.218 132.875L360.795 130.655C368.869 117.068 377.178 96.0085 374.983 68.8873C374.617 64.4194 373.938 60.1082 372.971 56.1106L372.866 55.5619C370.018 42.2104 361.762 29.8517 349.665 20.759C348.149 19.6355 346.608 18.5643 345.04 17.5714C329.729 7.95619 313.529 9.05357 302.686 10.7258C299.681 11.1961 296.885 11.797 294.586 12.5025C293.907 12.7115 293.175 12.9728 292.496 13.208C279.51 17.2056 268.51 24.8873 259.809 36.0963C258.398 37.6379 257.118 39.2317 255.89 40.7994C237.888 34.5287 221.662 33.2222 207.683 37.0108C203.477 38.1605 199.479 39.7543 195.664 41.7923C191.85 39.7543 187.852 38.1343 183.645 37.0108C169.641 33.2222 153.415 34.5287 135.413 40.7994C134.185 39.2317 132.93 37.664 131.52 36.0963C122.819 24.8873 111.819 17.1795 98.8331 13.1818C98.1015 12.9206 97.396 12.6593 96.7689 12.4764C94.4435 11.7709 91.6217 11.1438 88.643 10.6735C77.7998 9.00133 61.6003 7.90393 46.2891 17.5191C44.7214 18.4859 43.1798 19.5571 41.6644 20.7068C29.567 29.7994 21.3105 42.1581 18.4625 55.5097L18.358 56.0584C17.3912 60.0821 16.7119 64.3671 16.3461 68.8351C14.1513 95.9562 22.4601 117.016 30.5338 130.602L27.0848 132.823C24.681 134.077 12.5575 141.028 13.6549 153.282C14.0468 157.75 16.2155 161.773 19.7689 164.621C22.8259 167.051 26.6668 168.384 30.5599 168.384C31.3176 168.384 32.1014 168.332 32.8592 168.227C38.2677 167.495 44.2772 165.118 51.1228 161.094C56.2701 168.175 70.1965 184.871 90.472 190.358C97.2915 192.187 104.398 192.866 111.139 192.866C126.425 192.866 139.776 189.443 143.512 188.372C145.577 191.533 150.018 197.621 156.106 201.88C159.712 204.415 163.474 205.46 167.08 205.46C172.045 205.46 176.643 203.474 179.935 200.6C185.631 195.636 189.211 186.517 184.455 177.241C183.41 175.229 182.13 173.087 180.693 170.944C185.004 168.384 190.178 164.857 195.612 160.049C201.047 164.83 206.246 168.384 210.531 170.944C209.121 173.087 207.814 175.229 206.769 177.241C202.014 186.491 205.619 195.636 211.289 200.6C214.581 203.474 219.206 205.486 224.144 205.486C227.75 205.486 231.512 204.441 235.118 201.906C241.18 197.647 245.622 191.56 247.712 188.398C251.448 189.443 264.826 192.892 280.085 192.892C286.826 192.892 293.933 192.213 300.726 190.384C321.002 184.897 334.928 168.201 340.075 161.12C346.921 165.17 352.931 167.548 358.339 168.279C359.097 168.384 359.881 168.436 360.638 168.436C364.532 168.436 368.372 167.13 371.429 164.674C374.983 161.826 377.151 157.802 377.543 153.334C378.641 141.054 366.491 134.104 364.087 132.875H364.218ZM63.4554 109.386C63.0635 108.655 62.6193 107.923 62.2273 107.165C57.263 97.5501 54.8853 90.2603 53.9708 81.9776L53.9186 81.6118C53.1347 74.322 54.8592 67.398 59.0658 60.9966C60.6858 58.5405 64.4744 52.7923 71.0326 50.3624C81.6407 46.4431 94.0516 53.9681 96.4293 55.5097C98.1798 56.6593 99.826 57.9396 101.446 59.3766C96.5338 64.4978 90.0801 74.5833 92.8497 90.3387L63.4292 109.36L63.4554 109.386ZM37.3532 56.0061C37.6929 54.7258 39.0254 53.9681 40.3057 54.3078C41.586 54.6474 42.3437 55.98 42.0041 57.2603C41.6644 58.5405 40.3319 59.2983 39.0516 58.9586C37.7713 58.6189 37.0136 57.2864 37.3532 56.0061ZM34.2178 75.1059C34.9494 73.9301 35.9684 73.1201 36.9352 72.8327C37.4316 72.9633 37.928 73.1724 38.4245 73.4598C38.4506 73.4598 38.5029 73.512 38.529 73.5382C38.3461 75.2365 38.2939 76.9348 38.32 78.6332C37.6668 79.4432 36.8568 79.9657 36.0991 80.2009C35.6026 80.0441 35.1062 79.8612 34.6359 79.5738C34.1656 79.2864 33.7737 78.9206 33.4079 78.5287C33.225 77.5358 33.4862 76.2555 34.2178 75.0797V75.1059ZM49.3984 39.3362C51.0445 38.056 53.0825 37.9253 53.9708 39.0488L47.9874 43.6735C47.1252 42.55 47.7523 40.6165 49.3984 39.3362ZM70.7974 27.9182C72.0777 28.2579 72.8354 29.5904 72.4958 30.8707C72.1561 32.151 70.8236 32.9087 69.5433 32.569C68.263 32.2294 67.5053 30.8968 67.8449 29.6165C68.1846 28.3363 69.5171 27.5785 70.7974 27.9182ZM52.5599 43.4123C50.9138 44.6926 48.8758 44.8232 47.9874 43.6997L53.9708 39.0488C54.8331 40.1724 54.206 42.132 52.5599 43.4123ZM159.059 55.2745C159.738 54.7519 160.94 55.17 161.75 56.2151L159.712 57.8089C159.529 57.8089 159.346 57.8612 159.189 57.8873C158.536 56.8945 158.432 55.7709 159.059 55.2745ZM159.712 57.8351L161.75 56.2412C162.116 56.7116 162.299 57.208 162.403 57.6522C161.515 57.7044 160.626 57.7567 159.738 57.8351H159.712ZM231.617 57.8351L229.579 56.2412C230.415 55.1961 231.617 54.7781 232.27 55.3006C232.897 55.7971 232.793 56.9206 232.14 57.9135C231.957 57.9135 231.774 57.8612 231.617 57.8351ZM229.579 56.2412L231.617 57.8351C230.702 57.7567 229.814 57.7044 228.926 57.6522C229.004 57.1819 229.213 56.6854 229.579 56.2412ZM343.341 43.6997L337.358 39.075C338.22 37.9515 340.284 38.0821 341.931 39.3624C343.577 40.6427 344.204 42.5762 343.341 43.6997ZM337.358 39.0488L343.341 43.6997C342.479 44.8232 340.415 44.6926 338.769 43.4123C337.123 42.132 336.496 40.1724 337.358 39.0488ZM320.531 27.9182C321.812 27.5785 323.144 28.3363 323.484 29.6165C323.824 30.8968 323.066 32.2294 321.786 32.569C320.505 32.9087 319.173 32.151 318.833 30.8707C318.493 29.5904 319.251 28.2579 320.531 27.9182ZM320.27 50.3624C326.828 52.7923 330.617 58.5405 332.237 60.9966C336.444 67.3719 338.168 74.2959 337.384 81.5334L337.332 82.0037C336.444 90.2341 334.066 97.5239 329.102 107.139C328.71 107.897 328.292 108.628 327.874 109.36L298.453 90.3387C301.249 74.5833 294.769 64.5239 289.857 59.3766C291.451 57.9396 293.097 56.6593 294.874 55.5097C297.251 53.9681 309.662 46.4431 320.27 50.3624ZM352.277 58.9586C350.997 59.2983 349.665 58.5405 349.325 57.2603C348.985 55.98 349.743 54.6474 351.023 54.3078C352.303 53.9681 353.636 54.7258 353.976 56.0061C354.315 57.2864 353.558 58.6189 352.277 58.9586ZM356.693 79.5738C356.223 79.8612 355.726 80.0702 355.23 80.2009C354.472 79.9657 353.662 79.4432 353.009 78.6332C353.009 76.9348 352.983 75.2104 352.8 73.5382C352.826 73.5382 352.878 73.4859 352.931 73.4598C353.427 73.1462 353.897 72.9633 354.394 72.8327C355.361 73.1201 356.379 73.9301 357.111 75.1059C357.843 76.2816 358.104 77.5358 357.921 78.5548C357.555 78.9467 357.163 79.3125 356.693 79.5738ZM284.631 41.1391C284.945 40.3553 286.199 40.094 287.453 40.5904C287.871 40.7472 288.211 40.9823 288.498 41.2436C287.662 41.7401 286.983 42.1581 286.434 42.5239C286.173 42.7068 285.912 42.9158 285.65 43.0987C284.84 42.55 284.396 41.7923 284.657 41.1391H284.631ZM243.218 75.9942C243.296 89.6854 249.123 98.4123 254.558 103.586C250.508 111.085 245.726 119.054 241.049 126.056L240.03 127.859C239.142 129.165 236.843 132.614 233.446 137.631C232.035 136.978 230.311 136.089 228.377 134.966L228.299 133.032C228.299 133.032 225.033 130.681 221.061 126.735C221.244 126.343 221.453 125.978 221.636 125.586C230.572 106.956 231.408 89.189 224.327 73.1724C228.952 72.6759 238.358 74.0869 243.192 75.9942H243.218ZM183.881 80.2531C185.03 81.2721 186.023 82.3957 186.859 83.6237C186.859 83.6498 186.885 83.6759 186.911 83.7282C186.859 83.9895 186.781 84.2769 186.65 84.5643C185.866 86.4978 184.168 87.6474 182.835 87.0987C181.503 86.5762 181.085 84.5643 181.869 82.6308C182.313 81.5334 183.071 80.6973 183.881 80.2531ZM209.46 82.6047L204.679 84.5382C204.574 84.2769 204.496 83.9895 204.417 83.7282C204.417 83.7021 204.444 83.6759 204.47 83.6237C205.306 82.3957 206.299 81.2721 207.448 80.2531C208.258 80.6712 209.016 81.5073 209.46 82.6308V82.6047ZM208.467 87.0987C207.135 87.6213 205.436 86.4978 204.653 84.5643L209.434 82.6308C210.218 84.5643 209.774 86.5762 208.467 87.0987ZM211.446 103.063C211.106 104.343 209.774 105.101 208.493 104.761C207.997 104.631 207.605 104.317 207.318 103.951C207.161 103.168 207.004 102.384 206.9 101.6C207.344 100.45 208.546 99.7971 209.748 100.111C211.028 100.45 211.786 101.783 211.446 103.063ZM184.534 101.809C184.873 103.089 184.116 104.422 182.835 104.761L181.581 100.111C182.862 99.771 184.194 100.529 184.534 101.809ZM181.581 100.111L182.835 104.761C181.555 105.101 180.223 104.343 179.883 103.063C179.543 101.783 180.301 100.45 181.581 100.111ZM197.572 63.6617C197.911 64.942 197.154 66.2745 195.874 66.6142C195.795 66.6142 195.743 66.6142 195.664 66.6142C195.586 66.6142 195.534 66.6142 195.455 66.6142C194.175 66.2745 193.417 64.942 193.757 63.6617C194.018 62.7211 194.776 62.094 195.664 61.9372C196.553 62.094 197.311 62.7472 197.572 63.6617ZM217.612 58.6712C217.612 58.6712 217.377 58.7234 217.273 58.7496L211.629 54.3078C211.629 54.3078 211.577 54.2555 211.55 54.2294C212.491 53.0536 214.555 53.132 216.201 54.4123C217.743 55.6142 218.318 57.4431 217.638 58.645L217.612 58.6712ZM211.603 54.3339L217.246 58.7757C216.75 58.9063 216.254 59.037 215.783 59.1676C214.477 57.5477 213.118 55.9277 211.629 54.3339H211.603ZM175.154 54.4384C176.8 53.1581 178.864 53.0797 179.805 54.2555C179.778 54.2816 179.752 54.3078 179.726 54.3339L174.083 58.7496C174.083 58.7496 173.847 58.6973 173.743 58.6712C173.064 57.4693 173.638 55.6403 175.18 54.4384H175.154ZM179.726 54.3339C178.237 55.9016 176.878 57.5215 175.572 59.1676C175.075 59.037 174.605 58.9063 174.109 58.7757L179.726 54.3339ZM169.667 125.586C170.268 126.814 170.869 127.99 171.496 129.165C166.27 133.267 161.149 136.037 157.857 137.605C154.277 132.327 151.952 128.878 151.273 127.859L150.645 126.683L150.28 126.056C145.603 119.054 140.821 111.085 136.771 103.586C142.206 98.4123 148.033 89.6854 148.111 75.9942C152.971 74.0869 162.377 72.6759 166.976 73.1724C159.895 89.189 160.731 106.982 169.667 125.586ZM103.876 40.5904C105.104 40.094 106.384 40.3553 106.698 41.1391C106.959 41.7662 106.515 42.55 105.705 43.0987C105.444 42.9158 105.182 42.7068 104.921 42.5239C104.372 42.1842 103.693 41.7401 102.857 41.2436C103.144 40.9823 103.484 40.7472 103.902 40.5904H103.876ZM105.809 126.579C111.113 137.082 116.078 144.529 116.914 145.757L121.408 152.942C115.79 154.51 108.056 156.156 100.897 154.196C92.4316 151.897 86.6573 144.842 83.6264 140.348C91.8307 135.201 99.6953 130.341 105.835 126.579H105.809ZM290.484 154.196C283.325 156.13 275.591 154.484 269.973 152.942L274.467 145.757C275.251 144.581 280.216 137.108 285.52 126.579C291.66 130.341 299.524 135.201 307.755 140.374C304.698 144.868 298.95 151.923 290.484 154.222V154.196ZM298.741 36.4883C297.748 35.6783 297.46 33.9538 298.113 32.2816C298.871 30.3481 300.648 29.2246 302.059 29.7733C303.47 30.322 303.992 32.36 303.208 34.2935C303.052 34.6593 302.869 34.9728 302.66 35.2864C301.301 35.6522 299.969 36.0441 298.714 36.4883H298.741ZM88.1205 34.3196C87.3628 32.3861 87.8592 30.3481 89.2701 29.7994C90.6811 29.2507 92.4316 30.3743 93.2155 32.3077C93.8687 33.98 93.5813 35.7044 92.5884 36.5144C91.3342 36.0702 90.0278 35.6783 88.643 35.3125C88.434 34.999 88.2511 34.6854 88.0944 34.3196H88.1205Z" fill="#481267"/>
<path d="M193.286 94.4678C193.913 96.558 201.674 126.266 221.871 138.703L203.947 155.19C203.947 155.19 186.31 142.622 178.759 122.19L186.702 117.016L193.286 94.4678Z" fill="#FF6B00"/>
<path d="M178.76 122.216C178.76 122.216 188.453 145.183 213.171 162.14L200.603 160.677C200.603 160.677 178.943 141.629 172.045 122.216C165.147 102.803 178.76 122.216 178.76 122.216Z" fill="#481267"/>
<path d="M193.182 92.7952C193.182 92.7952 193.757 120.543 221.871 138.703L221.531 130.237C221.531 130.237 200.707 115.37 199.871 96.4793C199.035 77.5624 193.182 92.7952 193.182 92.7952Z" fill="#481267"/>
<path d="M273.37 189.156C256.909 189.156 242.617 185.106 240.474 184.479L232.218 182.023L251.762 148.109L256.7 149.31C257.536 149.519 258.607 149.833 259.888 150.199C265.584 151.897 275.12 154.693 283.926 152.315C294.873 149.363 301.405 138.755 303.548 135.28L307.206 129.322L338.037 149.598L334.301 155.268C331.584 159.422 316.795 180.429 293.75 186.648C287.035 188.477 280.006 189.13 273.344 189.13L273.37 189.156ZM252.833 173.531C263.363 175.595 278.073 176.902 290.249 173.584C303.417 170.03 313.581 159.788 318.938 153.282L311.256 148.239C306.762 154.275 299.054 162.348 287.505 165.458C276.322 168.462 265.322 165.902 258.372 163.916L252.833 173.531Z" fill="#481267"/>
<path d="M353.975 164.7C353.244 164.7 352.512 164.647 351.781 164.543C345.301 163.681 337.907 160.415 329.154 154.588C312.353 143.379 288.472 128.643 275.747 120.856L270.652 117.747L273.108 112.286C276.27 105.206 278.726 98.4123 280.372 92.0631L282.724 82.9443L356.928 130.942C361.971 133.45 370.802 140.557 369.914 150.486C369.548 154.693 367.484 158.481 364.139 161.146C361.265 163.446 357.633 164.7 353.949 164.7H353.975ZM287.845 112.339C301.275 120.569 321.707 133.294 336.705 143.301C345.275 149.023 350.631 150.695 353.61 151.113C354.341 151.218 355.125 151.008 355.674 150.564C356.118 150.225 356.353 149.807 356.379 149.31C356.588 147.063 352.695 144.032 350.657 142.987C350.344 142.83 350.056 142.674 349.769 142.491L290.823 104.37C289.935 106.982 288.942 109.647 287.845 112.365V112.339Z" fill="#481267"/>
<path d="M217.429 201.776C212.726 201.776 208.336 199.869 205.201 197.152C199.792 192.449 196.37 183.774 200.916 174.969C202.196 172.487 203.764 169.9 205.619 167.235C221.505 144.373 232.792 127.546 234.125 125.586L235.118 123.836C244.472 109.805 258.477 85.4794 258.686 75.9426V74.5839L259.26 73.3559C260.384 70.8475 264.46 62.1468 270.339 55.5364L274.676 50.6504L279.719 54.8048C284.187 58.4889 294.168 69.0447 290.667 87.8309C285.781 114.011 268.353 140.27 266.864 142.465L241.206 183.513C240.37 184.95 235.353 193.154 227.854 198.38C224.431 200.783 220.852 201.776 217.429 201.776ZM246.562 131.073L245.961 132.197C245.804 132.484 245.621 132.772 245.439 133.059C245.02 133.686 233.393 151.035 216.776 174.969C215.26 177.137 214.006 179.228 213.013 181.161C211.498 184.114 213.301 186.178 214.163 186.909C215.025 187.667 217.324 189.209 220.094 187.275C225.477 183.513 229.448 176.772 229.605 176.484L229.709 176.301L255.576 134.94C256.282 133.895 272.873 109.335 277.341 85.3226C278.491 79.1302 277.393 74.4532 275.721 71.1088C274.075 73.8 272.847 76.3084 272.142 77.7715C270.6 94.1017 251.056 124.306 246.562 131.073ZM234.229 125.403C234.229 125.403 234.229 125.43 234.177 125.456C234.177 125.43 234.203 125.403 234.229 125.403Z" fill="#481267"/>
<path d="M213.223 172.252L207.892 169.404C197.075 163.656 176.957 149.886 163.762 122.373C151.272 96.3492 154.774 71.9976 173.9 51.9311L174.318 51.5131C181.921 43.4656 190.961 38.0048 201.178 35.2352C215.313 31.4204 231.774 32.8314 250.09 39.4157L257.98 42.2375L253.565 49.3706C250.116 54.962 247.895 60.7364 247.033 66.5368L246.954 67.2684L245.778 76.2304L237.496 72.5725C232.453 70.3516 221.14 68.7055 216.593 69.5416C207.187 71.2922 200.577 74.8979 196.919 80.3064C193.6 85.1924 192.738 91.6984 194.332 99.6414C198.878 122.242 221.27 133.582 228.037 136.508L235.562 139.774L230.938 146.542C227.018 152.29 222.185 159.318 216.698 167.287L213.249 172.252H213.223ZM183.384 129.349C191.876 141.76 201.648 149.677 209.068 154.406C211.289 151.192 213.379 148.135 215.313 145.314C208.101 141.264 198.251 134.418 190.778 124.202C190.569 124.568 190.36 124.934 190.125 125.273C188.479 127.677 186.049 129.14 183.384 129.349ZM178.629 118.323C178.629 118.323 178.681 118.715 178.916 119.081C179.622 120.23 181.085 121.014 182.653 121.04C185.187 121.145 186.781 119.316 186.807 118.532C186.807 118.428 186.755 118.14 186.52 117.774C185.971 116.886 184.664 115.841 182.783 115.815C181.242 115.763 179.726 116.468 178.968 117.591C178.733 117.957 178.655 118.219 178.655 118.323H178.629ZM172.698 108.447C173.22 109.962 173.795 111.504 174.448 113.071C176.016 109.858 178.942 107.689 182.339 107.506C182.208 107.062 182.078 106.618 181.947 106.147C180.824 107.271 179.413 108.107 177.819 108.525C176.12 108.995 174.344 108.943 172.698 108.42V108.447ZM175.415 95.2779C175.049 95.2779 174.657 95.3302 174.265 95.4347C173.168 95.7221 172.175 96.4798 171.626 97.4727C171.052 98.4656 170.895 99.6675 171.208 100.791C171.496 101.888 172.254 102.855 173.246 103.43C174.239 104.005 175.441 104.162 176.565 103.848C178.89 103.221 180.275 100.817 179.648 98.4917C179.125 96.5321 177.349 95.2518 175.415 95.2518V95.2779ZM170.189 88.1711C170.033 89.5297 169.954 90.8884 169.954 92.2732C170.843 91.5938 171.888 91.0713 173.037 90.7839C173.22 90.7316 173.429 90.6794 173.612 90.6532C173.612 90.6532 173.56 90.6532 173.534 90.6271C172.201 90.0784 171.052 89.2423 170.163 88.1972L170.189 88.1711ZM178.629 91.019C179.073 91.2019 179.543 91.411 179.961 91.6461C179.961 91.3064 179.961 90.9668 179.987 90.6271C179.543 90.81 179.099 90.9407 178.629 91.0452V91.019ZM173.586 79.2352C173.455 79.5487 173.455 79.9929 173.56 80.4632C173.847 81.7957 174.971 83.0238 176.382 83.5986C177.793 84.1734 179.439 84.0428 180.588 83.2851C180.797 83.1283 180.98 82.9715 181.137 82.8147C181.242 82.3706 181.372 81.9264 181.503 81.4822C181.372 80.3064 180.406 78.7387 178.629 78.0071C176.356 77.0927 174.056 78.0855 173.612 79.2091L173.586 79.2352ZM178.211 70.3777C179.308 70.3777 180.406 70.5867 181.451 71.0048C182.888 71.5796 184.09 72.4941 185.03 73.696C185.239 73.3563 185.448 73.0428 185.657 72.7031C186.128 71.9976 186.65 71.2922 187.173 70.639C186.023 70.4822 184.926 70.0903 183.881 69.4893C182.208 68.5226 180.902 67.1117 180.118 65.3872C178.759 67.0855 177.531 68.7839 176.46 70.5345C177.035 70.4299 177.636 70.3516 178.211 70.3516V70.3777ZM184.142 60.8409C184.037 61.4418 184.09 62.0689 184.246 62.6698C184.534 63.7672 185.291 64.734 186.284 65.3088C187.277 65.8836 188.505 66.0404 189.603 65.7269C191.928 65.0998 193.313 62.696 192.686 60.3706C192.372 59.247 191.641 58.2803 190.648 57.7055C189.864 57.2613 188.923 57.0523 188.035 57.1568C187.826 57.3135 187.643 57.4964 187.434 57.6793C186.311 58.6722 185.213 59.7173 184.142 60.8409ZM192.973 53.4988C192.973 53.4988 193.025 53.4988 193.025 53.5249C195.168 54.753 196.683 56.7387 197.337 59.1164C197.572 60.0309 197.676 60.9454 197.65 61.8599C198.617 61.3112 199.636 60.7886 200.707 60.3183C198.068 57.6793 196.997 54.1259 197.702 50.9121C196.082 51.6698 194.515 52.5321 192.999 53.5249L192.973 53.4988ZM232.035 57.0261C233.08 57.2352 234.099 57.4442 235.092 57.6793C235.85 55.0143 236.816 52.3753 237.992 49.7886C235.484 49.0831 233.028 48.5083 230.624 48.038C232.166 49.7102 232.923 52.0095 232.688 54.4133C232.61 55.3017 232.375 56.19 232.035 57.0523V57.0261ZM205.358 51.9573C204.47 53.0808 204.13 54.5439 204.496 55.7981C204.653 56.3207 204.914 56.7387 205.227 57C206.194 57.7577 208.572 57.6271 210.087 55.6675L205.358 51.9573ZM226.235 56.1639C227.045 56.2684 227.881 56.3729 228.717 56.4774C229.187 54.7791 228.586 52.4537 226.731 50.9644C225.555 50.0499 224.04 49.6057 222.603 49.7886C221.453 49.9192 220.486 50.4418 219.885 51.1734C219.493 51.6698 219.258 52.3231 219.18 53.0808C219.102 53.9953 219.258 54.9098 219.65 55.7459C221.767 55.6675 223.961 55.8765 226.235 56.1378V56.1639ZM205.358 51.9573L210.087 55.6675C211.603 53.734 211.185 51.3824 210.218 50.6508C209.251 49.8931 206.873 50.0238 205.358 51.9834V51.9573ZM214.189 46.81C215.287 47.7767 216.175 48.9525 216.802 50.2067C217.011 49.8931 217.22 49.5796 217.455 49.266C218.265 48.2209 219.232 47.3848 220.277 46.7577C218.187 46.6532 216.149 46.6793 214.163 46.81H214.189Z" fill="#481267"/>
<path d="M347.809 135.881L316.899 115.971L320.087 110.379C321.289 108.263 322.282 106.486 323.144 104.814C328.161 95.0683 330.591 87.7001 331.479 79.3391L331.531 78.921C332.341 71.4222 330.565 64.2892 326.227 57.7049C324.555 55.1704 320.662 49.2393 313.79 46.6787C302.764 42.6027 289.961 50.3367 287.531 51.9305C284.762 53.7333 282.227 55.8497 279.797 58.4103C279.667 58.5932 279.536 58.7761 279.405 58.9851L278.778 59.8996L277.968 60.6573C272.795 66.0136 268.876 74.1395 267.752 76.6479C267.595 80.2013 266.367 86.3676 260.07 99.0398L256.151 106.931L249.515 101.13C243.636 95.9828 236.79 86.5766 237.417 70.9519C237.496 69.0707 237.678 67.1372 237.966 65.2037C239.586 54.282 244.916 43.7785 253.747 34.0065C262.344 22.9281 273.187 15.3509 285.99 11.4317H286.016C286.617 11.1965 287.348 10.9352 288.054 10.7262C290.327 10.0207 293.07 9.41979 296.023 8.97561C313.032 6.36279 326.279 8.5053 337.724 15.6906C339.265 16.6573 340.807 17.7025 342.27 18.826C354.184 27.788 362.31 39.9376 365.106 53.054L365.211 53.5505C366.177 57.522 366.857 61.7809 367.196 66.2227C369.522 94.9899 359.907 116.859 351.441 130.159L347.783 135.907L347.809 135.881ZM335.006 111.477L343.498 116.938C348.097 108.341 352.382 96.9756 353.636 83.1277C350.866 84.7476 347.574 84.6692 344.7 83.1799C343.446 92.3248 340.598 100.581 335.215 111.033C335.137 111.189 335.059 111.32 334.98 111.477H335.006ZM272.978 33.5101C269.869 36.0706 266.994 39.0493 264.382 42.4198L263.859 43.0469C256.857 50.7547 252.65 58.9067 251.396 67.1894C251.187 68.6265 251.03 70.0635 250.978 71.4744C250.795 75.8379 251.474 79.4174 252.572 82.3438C254.061 78.2417 254.192 76.3604 254.192 75.7072C254.192 74.4792 254.401 73.2251 254.897 72.0754C255.446 70.7951 260.488 59.0635 268.458 50.9376C268.64 50.6502 268.85 50.3628 269.059 50.1015C269.32 49.7619 269.529 49.5006 269.79 49.2393C271.149 47.8022 272.534 46.4436 273.997 45.1894C273.448 44.7191 272.978 44.1965 272.56 43.6217C270.888 41.2963 270.496 38.4222 271.515 35.8877C271.854 34.9994 272.351 34.2155 272.952 33.5362L272.978 33.5101ZM345.301 76.4127C345.484 76.4911 345.667 76.5433 345.902 76.5956C347.051 76.8569 348.358 76.6217 349.429 75.9685C350.736 75.1585 351.624 73.7476 351.65 72.3889C351.65 71.9448 351.572 71.6835 351.519 71.579C351.101 70.8996 348.828 70.168 346.66 71.5006C346.032 71.8925 345.588 72.3367 345.222 72.8331C345.301 74.0089 345.327 75.2108 345.301 76.4127ZM267.778 75.5243C267.778 75.5243 267.778 75.5243 267.778 75.5505C267.778 75.5505 267.778 75.5505 267.778 75.5243ZM346.842 63.1395C347.548 63.1395 348.279 63.2179 348.985 63.4008C350.631 63.7927 352.199 64.6027 353.557 65.7785C353.322 63.4008 352.983 61.1277 352.538 58.9329C351.336 60.7357 349.534 62.1467 347.287 62.7476C346.006 63.0873 344.752 63.1395 343.524 62.9566C343.603 63.2179 343.681 63.4792 343.733 63.7144C344.726 63.3486 345.771 63.1395 346.869 63.1395H346.842ZM279.693 58.541C279.693 58.541 279.667 58.5671 279.64 58.5932C279.64 58.5932 279.667 58.5671 279.693 58.541ZM343.707 49.6312C341.382 50.2583 339.997 52.6621 340.624 54.9875C341.251 57.3391 343.681 58.6977 346.006 58.0706C347.13 57.7832 348.097 57.0255 348.671 56.0326C349.246 55.0398 349.403 53.8117 349.089 52.7144C348.462 50.3889 346.059 49.0303 343.733 49.6312L344.23 51.5124L343.707 49.6312ZM336.313 48.3509C336.522 48.6645 336.731 48.9519 336.914 49.2132C337.175 48.7951 337.436 48.377 337.75 48.0113C337.279 48.168 336.809 48.2725 336.313 48.3509ZM343.733 38.997C343.916 41.1918 343.289 43.3343 341.93 45.0849C341.93 45.0849 341.904 45.1371 341.878 45.1371C342.061 45.0849 342.244 45.0065 342.453 44.9543C344.282 44.4578 346.111 44.5623 347.783 45.111C346.607 42.9946 345.249 40.9566 343.733 38.997ZM276.035 37.6383C275.329 39.3889 275.538 41.3747 276.583 42.8117C276.636 42.864 276.662 42.9162 276.714 42.9946C277.838 42.1324 278.987 41.3224 280.163 40.5647C281.156 39.9376 282.645 39.0231 284.526 38.0303C284.422 37.1941 284.108 36.3842 283.612 35.6787C283.168 35.0778 282.619 34.6336 282.018 34.3723C281.417 34.1371 280.712 34.0849 279.98 34.2155C278.23 34.5552 276.74 35.8616 276.035 37.6122V37.6383ZM331.218 36.75C330.277 37.9519 329.937 39.5718 330.355 40.8782C330.512 41.3224 330.747 41.7143 331.009 41.9234C331.975 42.655 334.458 42.3675 335.947 40.4341L331.218 36.75ZM331.218 36.75L335.973 40.4341C337.515 38.4483 337.123 36.0184 336.182 35.2868C335.79 34.9732 335.085 34.8426 334.327 34.9471C333.125 35.1039 332.002 35.7571 331.218 36.7761V36.75ZM320.165 34.6075C321.341 35.1039 322.439 35.6787 323.484 36.2535C323.693 34.7642 324.268 33.3533 325.208 32.0991C327.063 29.6953 329.937 28.5457 332.89 28.7025C332.106 28.1538 331.322 27.6051 330.512 27.1086C328.004 25.5409 325.391 24.2868 322.621 23.3723C322.883 23.8949 323.092 24.4436 323.249 25.0184C324.215 28.6241 322.883 32.3343 320.165 34.5552V34.6075ZM290.118 29.0421C289.961 29.4079 289.961 29.9044 290.092 30.4269C290.405 31.6811 291.45 32.7785 292.783 33.3272C294.116 33.8497 295.605 33.7452 296.702 33.0659C297.146 32.7785 297.486 32.4127 297.643 32.0208C298.087 30.8972 297.277 28.6502 295.004 27.7357C293.671 27.2132 292.156 27.3177 291.059 27.997C290.614 28.2844 290.275 28.6502 290.118 29.0421ZM300.099 22.0659C301.614 23.2939 302.712 25.0445 303.234 27.0825C303.652 28.7025 303.678 30.4269 303.313 32.1253C304.306 32.0208 305.325 31.9685 306.344 31.9424C305.978 31.2892 305.716 30.6098 305.507 29.8782C304.854 27.5267 305.194 25.0445 306.422 22.902C306.709 22.3794 307.049 21.9091 307.441 21.4649C305.116 21.5433 302.686 21.7523 300.125 22.0659H300.099ZM279.405 30.7666C280.633 30.7666 281.914 31.0017 283.168 31.4982C283.534 31.6288 283.873 31.7856 284.187 31.9685C284.108 30.3747 284.37 28.6763 285.023 27.0041C285.154 26.6645 285.31 26.3248 285.493 25.9851C281.861 27.5006 278.439 29.4341 275.251 31.7595C276.505 31.1063 277.942 30.7405 279.431 30.7405L279.405 30.7666ZM313.241 23.2678C310.916 23.8949 309.531 26.2987 310.158 28.6241C310.785 30.9495 313.189 32.3343 315.515 31.7072C316.638 31.4198 317.605 30.6621 318.18 29.6692C318.755 28.6763 318.911 27.4483 318.598 26.3509C318.31 25.2535 317.553 24.2868 316.56 23.712C315.567 23.1371 314.365 22.9804 313.241 23.2939V23.2678Z" fill="#481267"/>
<path d="M285.728 158.899C273.082 162.322 259.913 157.096 255.132 155.921L242.407 177.973C250.507 180.377 273.239 185.184 291.999 180.115C311.203 174.916 324.764 157.462 328.657 151.557L309.348 138.859C306.396 143.666 298.845 155.346 285.728 158.899Z" fill="#FF6B00"/>
<path d="M353.714 136.899C353.714 136.899 353.557 136.821 353.478 136.769L286.956 93.7354C285.022 101.234 282.253 108.524 279.326 115.056C291.502 122.503 315.932 137.579 332.968 148.944C340.728 154.118 347.364 157.096 352.721 157.828C355.307 158.168 357.92 157.462 359.932 155.842C361.813 154.353 362.963 152.21 363.172 149.885C363.878 141.994 353.818 136.952 353.714 136.899Z" fill="#FF6B00"/>
<path d="M284.004 86.5507C286.852 71.2396 278.831 62.8262 275.408 60.0044C270.13 65.9616 266.289 74.1921 265.453 76.0733C265.113 90.7051 242.382 125.116 240.736 127.572L239.978 128.983C239.978 128.983 239.899 129.114 239.873 129.166C239.769 129.349 228.142 146.672 211.184 171.102C209.512 173.506 208.075 175.857 206.952 178.052C203.921 183.957 206.507 189.261 209.669 192.031C212.831 194.8 218.5 196.655 223.961 192.814C230.755 188.059 235.405 179.985 235.458 179.907L261.168 138.755C261.403 138.415 279.196 112.313 284.004 86.5769" fill="#FF6B00"/>
<path d="M211.079 163.42C216.566 155.477 221.4 148.449 225.293 142.727C216.88 139.069 192.79 126.501 187.668 100.974C185.709 91.1757 186.911 82.9453 191.274 76.4917C195.977 69.5415 204.077 64.943 215.338 62.8788C221.4 61.7553 234.02 63.6365 240.212 66.38C240.239 66.0926 240.265 65.8313 240.317 65.5439C241.336 58.7767 243.844 52.1662 247.79 45.8171C230.728 39.6769 215.73 38.3444 202.954 41.7933C193.939 44.2232 186.022 49.0308 179.255 56.19L178.837 56.608C161.592 74.7149 158.588 95.8527 169.901 119.447C182.155 144.974 200.576 157.803 211.106 163.42M225.79 51.9833C226.626 50.9382 227.828 50.5201 228.507 51.0427C229.186 51.5653 229.056 52.8456 228.22 53.8907C227.41 54.9358 226.182 55.3539 225.502 54.8313C224.823 54.3087 224.954 53.0285 225.79 51.9833ZM209.172 50.5985C210.113 49.3966 212.203 49.5011 213.849 50.7814C215.495 52.0617 216.07 54.0736 215.129 55.2755C214.189 56.4774 212.098 56.3729 210.452 55.0926C208.806 53.8123 208.231 51.8004 209.172 50.5985ZM187.851 59.1947C189.132 58.8551 190.464 59.6128 190.804 60.8931C191.144 62.1734 190.386 63.5059 189.106 63.8456C187.825 64.1852 186.493 63.4275 186.153 62.1472C185.813 60.8669 186.571 59.5344 187.851 59.1947ZM185.395 118.506C185.343 120.805 184.089 122.634 182.6 122.582C181.11 122.556 179.961 120.648 180.013 118.349C180.065 116.05 181.319 114.221 182.835 114.273C184.324 114.325 185.474 116.207 185.421 118.506M174.265 81.2209C175.049 79.2874 176.747 78.1377 178.079 78.6864C179.412 79.209 179.83 81.2209 179.046 83.1544C178.262 85.0879 176.564 86.2375 175.231 85.6888C173.899 85.1662 173.481 83.1544 174.265 81.2209ZM174.787 97.3159C176.068 96.9762 177.4 97.7339 177.74 99.0142C178.079 100.295 177.322 101.627 176.041 101.967C174.761 102.306 173.429 101.549 173.089 100.268C172.749 98.9881 173.507 97.6556 174.787 97.3159Z" fill="#FF6B00"/>
<path d="M104.399 189.155C97.7363 189.155 90.7078 188.502 83.9929 186.673C60.9477 180.455 46.1591 159.421 43.4418 155.293L39.7054 149.623L70.5368 129.348L74.1948 135.305C76.3373 138.78 82.8693 149.388 93.8171 152.341C102.622 154.718 112.159 151.896 117.855 150.224C119.135 149.858 120.207 149.545 121.043 149.336L125.981 148.134L145.525 182.048L137.268 184.504C135.126 185.132 120.86 189.181 104.373 189.181L104.399 189.155ZM58.8575 153.281C64.2138 159.787 74.3777 170.029 87.5463 173.583C99.7482 176.875 114.432 175.569 124.962 173.531L119.423 163.915C112.499 165.901 101.473 168.462 90.2898 165.457C78.7411 162.348 71.0332 154.274 66.5392 148.238L58.8575 153.281Z" fill="#481267"/>
<path d="M23.819 164.7C20.1349 164.7 16.5031 163.446 13.629 161.146C10.2846 158.481 8.24657 154.693 7.88078 150.486C6.99242 140.505 15.7976 133.45 20.8665 130.942L95.0708 82.9443L97.4224 92.0631C99.0684 98.4123 101.498 105.232 104.686 112.286L107.142 117.747L102.047 120.856C89.3226 128.643 65.4414 143.379 48.6409 154.588C39.8879 160.415 32.4936 163.681 26.0138 164.543C25.2822 164.647 24.5506 164.7 23.8452 164.7H23.819ZM27.1112 142.987C25.0732 144.032 21.1801 147.037 21.3891 149.284C21.4413 149.78 21.6765 150.199 22.0945 150.538C22.6694 150.982 23.4271 151.191 24.1848 151.087C27.1634 150.695 32.4936 148.997 41.0898 143.275C56.0874 133.267 76.5459 120.569 89.9497 112.313C88.8523 109.621 87.8594 106.93 86.9711 104.317L28.0257 142.438C27.7644 142.621 27.4508 142.778 27.1373 142.935L27.1112 142.987Z" fill="#481267"/>
<path d="M160.339 201.775C156.916 201.775 153.337 200.782 149.914 198.378C142.441 193.126 137.425 184.948 136.484 183.354L110.93 142.464C109.415 140.243 91.9874 113.984 87.1276 87.8295C83.6264 69.0432 93.6335 58.4613 98.0753 54.8033L103.118 50.6489L107.455 55.5349C113.308 62.1454 117.41 70.8461 118.534 73.3544L119.082 74.5824V75.9411C119.344 85.4779 133.349 109.803 142.702 123.834L143.042 124.383L143.695 125.611C146.178 129.295 157.021 145.416 172.175 167.259C174.03 169.925 175.598 172.511 176.878 174.993C181.398 183.799 177.976 192.473 172.567 197.176C169.432 199.92 165.068 201.801 160.339 201.801V201.775ZM100.453 85.3211C104.921 109.333 121.512 133.894 122.218 134.913L122.375 135.148L148.189 176.483C148.346 176.77 152.344 183.485 157.7 187.274C160.47 189.207 162.769 187.666 163.631 186.908C164.493 186.15 166.296 184.112 164.781 181.16C163.788 179.226 162.508 177.136 161.018 174.967C145.446 152.549 134.394 136.115 132.33 133.031C132.12 132.718 131.964 132.457 131.807 132.195L131.206 131.072C126.712 124.305 107.168 94.1003 105.626 77.7701C104.947 76.3069 103.693 73.8247 102.047 71.1074C100.375 74.4518 99.2772 79.1287 100.427 85.3211H100.453ZM143.512 125.324C143.512 125.324 143.539 125.376 143.565 125.402C143.565 125.402 143.539 125.35 143.512 125.324Z" fill="#481267"/>
<path d="M164.545 172.25L161.096 167.286C155.583 159.343 150.776 152.288 146.857 146.54L142.232 139.773L149.757 136.507C156.498 133.581 178.89 122.241 183.462 99.6399C185.056 91.6969 184.194 85.191 180.876 80.305C177.218 74.8964 170.607 71.2907 161.201 69.5401C156.681 68.704 145.341 70.3501 140.325 72.571L132.042 76.229L130.762 66.4831C129.899 60.7349 127.705 54.9605 124.229 49.3691L119.814 42.2361L127.705 39.4142C146.047 32.8299 162.481 31.419 176.617 35.2337C186.807 38.0033 195.847 43.4641 203.477 51.5377L203.868 51.9558C222.994 72.0484 226.496 96.4 214.006 122.424C200.811 149.937 180.693 163.68 169.876 169.455L164.545 172.303V172.25ZM162.455 145.312C164.389 148.134 166.479 151.165 168.7 154.405C176.12 149.676 185.892 141.785 194.384 129.348C191.719 129.113 189.289 127.676 187.643 125.272C187.408 124.932 187.199 124.566 186.99 124.2C179.517 134.443 169.667 141.288 162.455 145.312ZM190.987 118.531C190.987 119.21 192.45 121.065 195.142 121.039C196.709 120.987 198.173 120.229 198.878 119.079C199.113 118.714 199.165 118.426 199.165 118.322C199.165 118.322 199.087 117.93 198.852 117.59C198.094 116.466 196.579 115.761 195.011 115.813C193.13 115.866 191.823 116.911 191.275 117.773C191.039 118.139 190.987 118.426 190.987 118.531L192.372 118.504H190.987V118.531ZM195.455 107.505C198.878 107.687 201.778 109.856 203.346 113.07C203.999 111.502 204.574 109.961 205.097 108.445C203.45 108.968 201.674 108.994 199.949 108.55C198.355 108.132 196.971 107.295 195.821 106.172C195.69 106.616 195.56 107.086 195.429 107.531L195.455 107.505ZM201.203 103.873C202.301 104.16 203.529 104.003 204.522 103.455C205.515 102.88 206.272 101.913 206.56 100.79C206.847 99.6921 206.69 98.4641 206.142 97.4713C205.567 96.4784 204.6 95.7206 203.477 95.4332C201.151 94.8062 198.747 96.1909 198.12 98.5164C197.493 100.842 198.878 103.246 201.203 103.873ZM204.156 90.6256C204.339 90.6779 204.548 90.704 204.731 90.7563C205.88 91.0698 206.925 91.5924 207.814 92.2456C207.814 90.8608 207.709 89.5021 207.579 88.1434C206.69 89.1886 205.567 90.0247 204.208 90.5734C204.208 90.5734 204.156 90.5734 204.13 90.5995L204.156 90.6256ZM197.781 90.6256C197.781 90.9653 197.781 91.305 197.807 91.6446C198.251 91.4095 198.695 91.2005 199.139 91.0176C198.669 90.9131 198.225 90.7824 197.781 90.5995V90.6256ZM196.657 82.8133C196.814 82.97 196.997 83.1529 197.206 83.2836C198.329 84.0413 199.975 84.172 201.412 83.5971C202.823 83.0223 203.947 81.7943 204.234 80.4617C204.339 79.9914 204.313 79.5472 204.208 79.2337C203.764 78.1102 201.439 77.1173 199.192 78.0318C197.415 78.7373 196.448 80.305 196.317 81.5069C196.448 81.951 196.579 82.3952 196.683 82.8394L196.657 82.8133ZM190.595 70.6375C191.118 71.3168 191.64 71.9962 192.111 72.7016C192.32 73.0152 192.555 73.3548 192.738 73.6945C193.678 72.4926 194.88 71.5781 196.317 71.0033C197.911 70.3501 199.61 70.2194 201.282 70.5591C200.184 68.8085 198.983 67.1102 197.624 65.4118C196.84 67.1363 195.534 68.5472 193.861 69.514C192.842 70.1149 191.719 70.4807 190.569 70.6375H190.595ZM188.165 65.7254C189.289 66.0389 190.491 65.8822 191.484 65.3073C192.477 64.7325 193.234 63.7658 193.522 62.6423C193.678 62.0674 193.705 61.4403 193.626 60.8394C192.555 59.7159 191.484 58.6708 190.334 57.6779C190.125 57.495 189.942 57.3382 189.733 57.1553C188.845 57.0508 187.904 57.2598 187.12 57.704C186.127 58.2788 185.37 59.2456 185.082 60.343C184.455 62.6684 185.84 65.0722 188.165 65.6993V65.7254ZM177.061 60.3168C178.106 60.8133 179.125 61.3097 180.118 61.8584C180.092 60.9439 180.196 60.0294 180.431 59.1149C181.059 56.7373 182.6 54.7776 184.716 53.5496C184.716 53.5496 184.769 53.5496 184.795 53.5235C183.279 52.5567 181.712 51.6945 180.092 50.9107C180.797 54.1244 179.726 57.6779 177.087 60.3168H177.061ZM139.802 49.761C140.978 52.3738 141.944 55.0128 142.702 57.6518C143.695 57.4166 144.714 57.2076 145.759 56.9985C145.42 56.1624 145.211 55.2741 145.106 54.3596C144.871 51.9558 145.629 49.6565 147.17 47.9843C144.766 48.4546 142.31 49.0294 139.802 49.7349V49.761ZM172.41 51.9558L167.681 55.666C169.196 57.5995 171.574 57.7563 172.541 56.9985C172.854 56.7373 173.116 56.3192 173.272 55.7966C173.638 54.5686 173.272 53.0793 172.41 51.9558ZM154.538 49.7349C153.31 49.7349 152.056 50.1529 151.063 50.9629C149.182 52.4261 148.581 54.7515 149.078 56.476C149.914 56.3453 150.724 56.2408 151.56 56.1624C153.807 55.9012 156.028 55.7705 158.092 55.7705H158.144C158.536 54.9344 158.719 53.9938 158.64 53.1054C158.562 52.3477 158.327 51.6945 157.909 51.1719C157.334 50.4403 156.341 49.9178 155.218 49.7871C155.009 49.7871 154.8 49.761 154.591 49.761L154.538 49.7349ZM169.04 50.2052C168.439 50.2052 167.916 50.362 167.576 50.6232C166.61 51.381 166.191 53.7064 167.707 55.666L172.436 51.9558C171.469 50.7016 170.137 50.2052 169.04 50.2052ZM157.491 46.7563C158.536 47.3833 159.503 48.2194 160.313 49.2384C160.548 49.552 160.783 49.8655 160.966 50.1791C161.593 48.9249 162.507 47.7491 163.579 46.7824C161.593 46.6517 159.555 46.6517 157.465 46.7301L157.491 46.7563Z" fill="#481267"/>
<path d="M29.9587 135.88L26.3008 130.132C17.8352 116.832 8.24615 94.9631 10.5454 66.1958C10.9112 61.7801 11.5644 57.4951 12.5312 53.5236L12.6357 53.0272C15.4314 39.9108 23.5573 27.7611 35.4718 18.7991C36.9611 17.6756 38.4766 16.6305 40.0181 15.6637C51.4623 8.47845 64.7094 6.33593 81.7189 8.94876C84.6714 9.39294 87.4148 10.02 89.7141 10.7255C90.3412 10.9084 91.0467 11.1697 91.7521 11.4309C104.555 15.3502 115.398 22.9535 123.994 34.0319C132.852 43.83 138.13 54.3074 139.776 65.2291C140.063 67.1626 140.246 69.0699 140.325 70.9512C140.952 86.5759 134.106 95.982 128.227 101.129L121.591 106.93L117.671 99.0391C111.348 86.3407 110.12 80.1744 109.99 76.6471C108.84 74.1127 104.947 66.0129 99.6951 60.6044L98.9374 59.925L98.3103 59.0105C98.1797 58.8276 98.049 58.6186 97.9184 58.4357C95.4362 55.849 92.9279 53.7588 90.1844 51.9559C87.7283 50.3621 74.9516 42.6281 63.9255 46.7041C57.0799 49.2386 53.1606 55.1697 51.4884 57.7041C47.1511 64.2885 45.3744 71.4215 46.1844 78.9464L46.2367 79.3122C47.125 87.7255 49.5549 95.0937 54.5716 104.84C55.4338 106.512 56.4006 108.288 57.6286 110.405L60.8162 115.996L29.9065 135.906L29.9587 135.88ZM24.1583 83.1531C25.4385 96.9749 29.7236 108.367 34.296 116.963L42.7877 111.502C42.7094 111.345 42.631 111.215 42.5526 111.058C37.1701 100.633 34.3222 92.3763 33.068 83.2053C30.1939 84.6946 26.9017 84.773 24.1321 83.1531H24.1583ZM109.284 50.9369C117.279 59.1412 122.296 70.7944 122.845 72.1008C123.341 73.2505 123.576 74.4785 123.55 75.7326C123.55 76.3597 123.707 78.241 125.17 82.3431C126.268 79.4167 126.947 75.8371 126.764 71.4737C126.712 70.0889 126.581 68.6519 126.346 67.2148C125.118 58.9322 120.885 50.7801 113.831 42.9939L113.334 42.393C110.721 39.0224 107.873 36.0699 104.764 33.5093C105.365 34.1887 105.861 34.9725 106.227 35.8609C107.22 38.3953 106.828 41.2956 105.182 43.5948C104.764 44.1697 104.294 44.6922 103.745 45.1625C105.208 46.4428 106.619 47.8015 108.03 49.2908C108.213 49.4737 108.448 49.7611 108.683 50.0485C108.918 50.3621 109.127 50.6495 109.31 50.9369H109.284ZM26.2747 71.5782C26.2747 71.5782 26.1179 71.944 26.144 72.3882C26.1701 73.7469 27.0585 75.1578 28.3911 75.9678C29.4623 76.621 30.7687 76.8562 31.9184 76.5949C32.1535 76.5426 32.3364 76.4642 32.5193 76.412C32.5193 75.2101 32.5193 74.0343 32.5977 72.8324C32.258 72.3621 31.7877 71.8918 31.1868 71.526C29.0181 70.1934 26.745 70.925 26.3269 71.6044L26.2747 71.5782ZM109.99 75.5497C109.99 75.5497 109.99 75.5497 109.99 75.5759C109.99 75.5759 109.99 75.5759 109.99 75.5497ZM25.2557 58.906C24.8115 61.1269 24.4718 63.4001 24.2105 65.7516C25.5692 64.5759 27.1369 63.7659 28.783 63.374C30.5858 62.9559 32.4148 63.0604 34.0609 63.6875C34.1393 63.4262 34.1915 63.1649 34.2699 62.9298C33.068 63.1127 31.7877 63.0604 30.5336 62.7207C28.2865 62.1198 26.4576 60.7089 25.2557 58.906ZM98.1013 58.5664C98.1013 58.5664 98.1535 58.6447 98.2058 58.6709C98.1797 58.6447 98.1535 58.5925 98.1013 58.5664ZM31.7616 58.0699C34.087 58.697 36.4908 57.3122 37.1179 55.0129C37.745 52.6875 36.3602 50.2837 34.0609 49.6305L33.5383 51.5117L34.0347 49.6305C31.7093 49.0034 29.3055 50.3882 28.6785 52.7136C28.3911 53.811 28.5478 55.039 29.1226 56.0319C29.6975 57.0248 30.6642 57.7825 31.7616 58.0699ZM40.0181 48.0105C40.3317 48.3763 40.5929 48.7944 40.8542 49.2124C41.0371 48.9511 41.22 48.6637 41.4552 48.3502C40.9588 48.2718 40.4884 48.1673 40.0181 48.0105ZM35.315 44.9535C35.4979 45.0058 35.707 45.058 35.8899 45.1364C35.8899 45.1364 35.8637 45.0842 35.8376 45.058C34.4789 43.3336 33.878 41.191 34.0347 38.9701C32.4932 40.9298 31.1345 42.9939 29.9849 45.1103C31.6571 44.5616 33.4861 44.4571 35.315 44.9535ZM93.2676 38.0034C95.1488 38.9963 96.6381 39.9108 97.631 40.5378C98.8068 41.3217 99.9564 42.1317 101.08 42.9678C101.132 42.9155 101.158 42.8633 101.211 42.7849C102.256 41.3478 102.465 39.3621 101.759 37.5853C101.054 35.8348 99.5383 34.5283 97.8139 34.1887C97.0823 34.058 96.3768 34.0842 95.7759 34.3193C95.1749 34.5545 94.6262 34.9986 94.182 35.6257C93.6856 36.3051 93.3721 37.115 93.2676 37.9773V38.0034ZM46.5763 36.7492L41.8471 40.4333C43.3364 42.3668 45.8447 42.6542 46.7854 41.9226C47.0466 41.7136 47.2818 41.3478 47.4386 40.8775C47.8566 39.5711 47.5169 37.9511 46.5763 36.7492ZM42.9967 34.8941C42.4219 34.8941 41.9255 35.0248 41.612 35.2599C40.6713 35.9915 40.2794 38.4214 41.821 40.4072L46.5763 36.7231C45.7925 35.7041 44.669 35.0509 43.4671 34.8941C43.3103 34.8941 43.1535 34.868 42.9967 34.868V34.8941ZM45.4006 28.7279C48.1702 28.7279 50.8091 29.8775 52.5336 32.1245C53.5003 33.3787 54.0751 34.7896 54.258 36.2789C55.3032 35.678 56.4006 35.1293 57.5763 34.6328C54.859 32.4119 53.5264 28.7017 54.4932 25.096C54.65 24.5212 54.859 23.9464 55.1203 23.4238C52.3245 24.3383 49.7117 25.5925 47.2295 27.1602C46.4196 27.6566 45.6357 28.2053 44.8519 28.754C45.0348 28.754 45.2177 28.754 45.4006 28.754V28.7279ZM80.1512 32.02C80.3079 32.4119 80.6476 32.7777 81.0918 33.0652C82.1892 33.7706 83.6785 33.849 85.0371 33.3264C86.3697 32.8039 87.3887 31.7065 87.7022 30.4523C87.8329 29.9298 87.8329 29.4333 87.6761 29.0675C87.5193 28.7017 87.2058 28.3098 86.7355 28.0224C85.6381 27.3169 84.1488 27.2385 82.8163 27.7611C80.517 28.6756 79.707 30.8965 80.1512 32.0462V32.02ZM71.4504 31.9416C72.4694 31.9416 73.4885 32.02 74.4813 32.1245C74.1155 30.4262 74.1417 28.7017 74.5597 27.0818C75.0823 25.0438 76.1797 23.3193 77.6951 22.0651C75.1345 21.7255 72.6785 21.5165 70.3792 21.4642C70.7711 21.9084 71.1108 22.3787 71.3982 22.9013C72.6262 25.0438 72.9398 27.526 72.2866 29.8775C72.1037 30.6091 71.8162 31.2884 71.4504 31.9416ZM92.7711 27.0034C93.4243 28.6756 93.6856 30.3478 93.6072 31.9678C93.9469 31.7849 94.2866 31.6281 94.6262 31.4975C97.422 30.4001 100.296 30.583 102.569 31.7849C99.3816 29.4333 95.9588 27.526 92.3008 26.0105C92.4576 26.3502 92.6143 26.6899 92.7711 27.0295V27.0034ZM62.2533 31.7065C64.5787 32.3336 66.9825 30.9488 67.6096 28.6233C68.2367 26.2979 66.8519 23.8941 64.5526 23.2671C63.4291 22.9796 62.2272 23.1364 61.2343 23.6851C60.2414 24.2599 59.4837 25.2267 59.1963 26.3502C58.9089 27.4476 59.0656 28.6756 59.6405 29.6685C60.2153 30.6613 61.182 31.4191 62.3055 31.7065H62.2533Z" fill="#481267"/>
<path d="M92.0658 158.899C104.712 162.322 117.881 157.096 122.662 155.921L135.387 177.973C127.287 180.377 104.555 185.184 85.7951 180.115C66.5908 174.916 53.0302 157.462 49.1371 151.557L68.4459 138.859C71.3984 143.666 78.9494 155.346 92.0658 158.899Z" fill="#FF6B00"/>
<path d="M24.0799 136.899C24.0799 136.899 24.2367 136.821 24.3151 136.769L90.8377 93.7354C92.7712 101.234 95.5408 108.524 98.4671 115.056C86.2914 122.503 61.8614 137.579 44.8258 148.944C37.0657 154.118 30.4291 157.096 25.0728 157.828C22.4861 158.168 19.8733 157.462 17.8614 155.842C15.9802 154.353 14.8305 152.21 14.6215 149.885C13.916 141.994 23.9754 136.952 24.0799 136.899Z" fill="#FF6B00"/>
<path d="M166.687 163.42C177.217 157.829 195.638 144.974 207.892 119.447C219.205 95.8527 216.2 74.7149 198.956 56.608L198.538 56.19C191.744 49.0308 183.828 44.2232 174.839 41.7933C162.037 38.3444 147.039 39.6769 130.003 45.8171C133.949 52.1924 136.457 58.7767 137.476 65.5439C137.528 65.8313 137.528 66.0926 137.58 66.38C143.773 63.6365 156.393 61.7814 162.455 62.8788C173.716 64.9691 181.816 69.5415 186.519 76.4917C190.882 82.9453 192.084 91.1757 190.124 100.974C184.977 126.475 160.913 139.069 152.5 142.727C156.419 148.449 161.227 155.477 166.714 163.42M154.982 53.4465C155.818 54.4916 155.923 55.7719 155.269 56.2945C154.59 56.8171 153.388 56.399 152.552 55.3539C151.716 54.3087 151.611 53.0285 152.265 52.5059C152.944 51.9833 154.146 52.4014 154.982 53.4465ZM173.037 50.7292C173.977 51.9311 173.402 53.943 171.756 55.2232C170.11 56.5035 168.02 56.5819 167.079 55.4061C166.139 54.2042 166.714 52.1924 168.36 50.9121C170.006 49.6318 172.096 49.5534 173.037 50.7292ZM190.595 60.9192C191.875 61.2589 192.633 62.5914 192.293 63.8717C191.953 65.152 190.621 65.9097 189.341 65.57C188.06 65.2304 187.303 63.8978 187.642 62.6175C187.982 61.3372 189.314 60.5795 190.595 60.9192ZM192.371 118.506C192.319 116.207 193.469 114.325 194.958 114.273C196.448 114.221 197.702 116.076 197.78 118.349C197.832 120.648 196.683 122.53 195.193 122.582C193.704 122.634 192.45 120.779 192.398 118.506M202.823 81.1686C203.607 83.1021 203.162 85.114 201.856 85.6366C200.524 86.1591 198.825 85.0356 198.041 83.1021C197.257 81.1686 197.702 79.1567 199.008 78.6342C200.341 78.1116 202.039 79.2351 202.823 81.1686ZM202.98 97.3159C204.26 97.6556 205.018 98.9881 204.678 100.268C204.338 101.549 203.006 102.306 201.725 101.967C200.445 101.627 199.687 100.295 200.027 99.0142C200.367 97.7339 201.699 96.9762 202.98 97.3159Z" fill="#FF6B00"/>
<path d="M133.557 71.1861C133.479 69.54 133.322 67.8678 133.087 66.1956C131.65 56.5542 126.868 47.2264 118.873 38.4212C118.821 38.369 118.794 38.3428 118.768 38.2906C111.034 28.2834 101.288 21.4117 89.792 17.8844C89.7398 17.8844 89.6353 17.8321 89.583 17.806C88.9559 17.5709 88.3288 17.3357 87.754 17.1789C85.7944 16.578 83.3383 16.0293 80.7255 15.6374C67.6614 13.6255 55.0937 14.2003 43.6495 21.3856C42.2647 22.2478 40.906 23.1884 39.5735 24.1813C29.697 31.6017 21.8846 42.2621 19.2979 54.4117C19.2979 54.5424 19.2718 54.6469 19.2457 54.7775C18.3051 58.5139 17.678 62.5376 17.3383 66.7181C14.9868 95.7728 25.7777 116.649 32.0485 126.474L51.8015 113.749C50.7041 111.816 49.6329 109.882 48.6139 107.922C42.9701 97.0008 40.5141 88.9272 39.5473 80.0436L39.4951 79.6516C38.9725 74.9485 38.659 64.8892 45.8704 53.9675C47.7255 51.1457 52.6637 43.6207 61.6257 40.3286C75.3431 35.2597 89.8443 43.5685 93.9464 46.2597C97.2386 48.4022 100.243 50.9367 103.091 53.9675C103.144 54.0198 103.196 54.0982 103.248 54.1766C103.562 54.5946 103.849 55.0127 104.136 55.4307C104.163 55.4568 104.215 55.483 104.241 55.5091C111.531 62.825 116.391 74.2953 116.6 74.7656C116.73 75.0531 116.783 75.3405 116.783 75.654C116.73 80.2265 119.761 87.9082 123.785 96.0079C128.462 91.9058 134.106 84.2241 133.557 71.2122M27.45 72.3096C28.6519 70.35 30.6637 69.4094 31.944 70.1932C33.2243 70.977 33.2504 73.198 32.0485 75.1576C30.8466 77.1172 28.8348 78.0578 27.5545 77.274C26.3003 76.4901 26.2481 74.2692 27.45 72.3096ZM33.5378 51.5115C34.8181 51.8511 35.5759 53.1837 35.2362 54.464C34.8965 55.7443 33.564 56.502 32.2837 56.1623C31.0034 55.8226 30.2457 54.4901 30.5853 53.2098C30.925 51.9295 32.2576 51.1718 33.5378 51.5115ZM47.1768 36.2787C48.039 37.4022 47.412 39.3618 45.7659 40.6421C44.1198 41.9224 42.0818 42.053 41.1934 40.9295C40.3312 39.806 40.9583 37.8464 42.6044 36.5661C44.2504 35.2858 46.2884 35.1552 47.1768 36.2787ZM64.0295 25.148C65.3098 25.4877 66.0676 26.8203 65.7279 28.1005C65.3882 29.3808 64.0557 30.1386 62.7754 29.7989C61.4951 29.4592 60.7374 28.1267 61.0771 26.8464C61.4167 25.5661 62.7493 24.8084 64.0295 25.148ZM86.4476 29.5115C87.2053 31.445 86.7089 33.483 85.298 34.0317C83.887 34.5804 82.1365 33.4568 81.3526 31.5233C80.5949 29.5899 81.0913 27.5519 82.5023 27.0032C83.9132 26.4545 85.6638 27.578 86.4476 29.5115ZM99.9298 38.3428C100.243 39.1267 99.4856 40.1718 98.2576 40.6682C97.0296 41.1647 95.7493 40.9034 95.4357 40.1195C95.1222 39.3357 95.8799 38.2906 97.1079 37.7941C98.336 37.2977 99.6163 37.559 99.9298 38.3428Z" fill="#FF6B00"/>
<path d="M182.287 90.417C182.914 92.5073 190.674 122.215 210.871 134.652L192.947 151.139C192.947 151.139 175.31 138.571 167.759 118.139L175.702 112.966L182.287 90.417Z" fill="#FF6B00"/>
<path d="M169.875 119.446C169.875 119.446 179.569 142.413 204.286 159.37L191.718 157.907C191.718 157.907 170.058 138.859 163.16 119.446C156.262 100.059 169.875 119.446 169.875 119.446Z" fill="#481267"/>
<path d="M184.299 90.0509C184.299 90.0509 184.874 117.799 212.988 135.958L212.648 127.493C212.648 127.493 191.824 112.626 190.988 93.735C190.152 74.8442 184.299 90.0509 184.299 90.0509Z" fill="#481267"/>
<path d="M189.315 146.253L198.669 155.084L210.871 140.844C210.871 140.844 195.403 134.286 195.455 135.958C195.507 137.631 189.315 146.253 189.315 146.253Z" fill="#FF6B00"/>
<path d="M166.113 110.118C166.113 110.118 169.301 119.707 175.101 128.982C175.101 128.982 169.954 124.201 169.406 124.096C168.857 123.992 165.748 119.55 165.748 119.55L166.087 110.118H166.113Z" fill="#481267"/>
<path d="M191.641 149.128L194.332 151.584L198.879 147.639L191.641 149.128Z" fill="#FF6B00"/>
<path d="M202.667 127.807C202.667 127.807 206.795 131.7 209.643 133.66C212.491 135.619 205.332 135.959 205.332 135.959L203.712 134.626C203.712 134.626 203.686 134.313 203.294 132.876C202.902 131.439 202.641 127.781 202.641 127.781L202.667 127.807Z" fill="#FF6B00"/>
<path d="M147.641 127.154L149.836 125.43C149.836 125.43 154.565 132.772 155.27 133.791C155.976 134.81 148.973 133.425 148.843 133.268C148.712 133.111 148.085 132.876 148.007 132.04C147.928 131.204 147.615 127.154 147.615 127.154H147.641Z" fill="#481267"/>
<path d="M170.817 178.052C169.693 175.857 168.256 173.506 166.584 171.102C157.596 158.168 150.149 147.247 145.08 139.774C144.035 138.232 139.227 130.89 137.059 127.598C137.059 127.598 136.876 127.285 136.745 127.076C136.327 126.449 136.092 126.057 136.04 126.004C131.232 118.636 112.681 89.3203 112.368 76.0733C111.532 74.1921 107.717 65.9616 102.413 60.0044C98.99 62.8262 90.9686 71.2657 93.8165 86.5507C98.6241 112.287 116.418 138.389 116.653 138.729L142.363 179.881C142.363 179.881 147.066 188.033 153.859 192.788C159.32 196.629 164.964 194.774 168.152 192.004C171.313 189.261 173.926 183.957 170.869 178.026L170.817 178.052Z" fill="#FF6B00"/>
<path d="M154.408 197.386L162.246 200.495L161.698 204.728C155.793 203.056 148.111 197.046 148.111 197.046L154.382 197.412L154.408 197.386Z" fill="#481267"/>
<path d="M206.429 198.118C206.429 198.118 214.11 203.239 217.194 204.153C220.277 205.068 220.564 199.267 220.564 199.267L219.232 198.823C218.526 198.588 211.236 195.4 210.949 195.505C210.661 195.609 206.429 198.118 206.429 198.118Z" fill="#481267"/>
<path d="M251.474 110.118C251.474 110.118 226.652 149.702 219.283 159.396C219.283 159.396 243.896 154.039 244.184 153.569C244.471 153.099 254.557 136.429 254.557 136.429L251.474 110.118Z" fill="#FF6B00"/>
<path d="M221.087 126.736C221.087 126.736 226.887 132.275 228.324 133.033C228.324 133.033 233.707 126.214 237.6 119.969C241.493 113.724 236.921 126.188 236.921 126.188C236.921 126.188 231.669 134.261 230.885 135.097C230.101 135.933 226.051 138.18 225.999 138.05C225.947 137.919 220.251 130.342 220.251 130.342L221.061 126.71L221.087 126.736Z" fill="#481267"/>
<path d="M360.455 66.7455C360.116 62.565 359.489 58.5412 358.548 54.8049C358.522 54.7003 358.496 54.5697 358.496 54.4391C355.909 42.2894 348.097 31.6291 338.22 24.2086C336.888 23.2158 335.529 22.2751 334.144 21.4129C322.7 14.2276 310.159 13.6528 297.068 15.6647C294.455 16.0566 291.999 16.6053 290.04 17.2063C289.465 17.3892 288.838 17.5982 288.211 17.8333C288.159 17.8333 288.054 17.8856 288.002 17.9117C283.612 19.2704 279.484 21.0994 275.617 23.3987C274.624 23.9996 273.631 24.6528 272.691 25.306C272.064 25.7502 271.436 26.2205 270.809 26.6647C270.365 26.9782 269.947 27.3179 269.529 27.6314C269.059 28.0234 268.562 28.3892 268.092 28.7811C257.406 37.6908 251.605 48.0115 251.605 48.0115C247.947 53.9165 245.622 59.9783 244.681 66.1968C244.42 67.869 244.263 69.5673 244.211 71.1873C243.688 84.1992 249.306 91.8809 253.983 95.983C258.007 87.8833 261.037 80.2015 260.985 75.6291C260.985 75.3156 261.037 75.0281 261.168 74.7407C261.377 74.2443 266.263 62.8001 273.527 55.4842C273.553 55.4581 273.605 55.4319 273.631 55.4058C273.919 54.9878 274.206 54.5697 274.52 54.1517C274.572 54.0733 274.624 54.021 274.676 53.9426C277.524 50.9117 280.529 48.3773 283.821 46.2348C287.923 43.5697 302.425 35.2348 316.142 40.3037C325.104 43.622 330.042 51.1208 331.897 53.9426C339.083 64.8642 338.769 74.9236 338.273 79.6267L338.22 80.0186C337.28 88.9023 334.798 96.9759 329.154 107.898C328.135 109.857 327.064 111.791 325.966 113.724L345.719 126.449C351.964 116.624 362.755 95.774 360.429 66.6932L360.455 66.7455ZM282.332 40.1208C282.018 40.9046 280.764 41.1659 279.51 40.6695C278.282 40.173 277.524 39.1279 277.838 38.344C278.151 37.5602 279.406 37.2989 280.66 37.7953C281.888 38.2918 282.645 39.3369 282.332 40.1208ZM296.415 31.5246C295.657 33.4581 293.881 34.5816 292.47 34.0329C291.059 33.4842 290.536 31.4462 291.32 29.5127C292.078 27.5792 293.855 26.4557 295.265 27.0044C296.676 27.5531 297.199 29.5911 296.415 31.5246ZM315.018 29.8001C313.738 30.1398 312.406 29.382 312.066 28.1018C311.726 26.8215 312.484 25.4889 313.764 25.1493C315.045 24.8096 316.377 25.5673 316.717 26.8476C317.056 28.1279 316.299 29.4604 315.018 29.8001ZM336.574 40.9307C335.712 42.0543 333.648 41.9236 332.002 40.6433C330.356 39.363 329.729 37.4034 330.591 36.2799C331.453 35.1564 333.517 35.287 335.163 36.5673C336.809 37.8476 337.436 39.8072 336.574 40.9307ZM342.531 54.4652C342.192 53.1849 342.95 51.8524 344.23 51.5127C345.51 51.173 346.843 51.9307 347.182 53.211C347.522 54.4913 346.764 55.8239 345.484 56.1635C344.204 56.5032 342.871 55.7455 342.531 54.4652ZM350.213 77.2752C348.933 78.059 346.947 77.1184 345.719 75.1588C344.517 73.1992 344.57 70.9783 345.824 70.1944C347.078 69.4106 349.09 70.3512 350.318 72.3108C351.52 74.2704 351.467 76.4913 350.213 77.2752Z" fill="#FF6B00"/>
<path d="M249.697 38.8925C249.697 38.8925 256.125 30.5054 260.122 26.8735C260.122 26.8735 260.044 31.4721 259.443 32.3605C258.842 33.2488 254.923 36.3581 254.923 36.3581L249.723 38.8925H249.697Z" fill="#481267"/>
<path d="M320.714 8.92358C320.714 8.92358 328.997 10.3606 335.947 13.1041C342.897 15.8476 334.092 16.9972 334.092 16.9972L326.881 14.6195L320.714 8.89746V8.92358Z" fill="#481267"/>
<path d="M85.6646 9.65527C85.6646 9.65527 92.6669 11.4581 94.7311 12.0068C96.7952 12.5555 94.7311 15.4296 94.7311 15.4296C94.7311 15.4296 90.7596 15.2206 90.2893 14.9593C89.819 14.698 86.4484 13.1042 86.1871 12.9736C85.9258 12.8429 85.6907 9.65527 85.6907 9.65527H85.6646Z" fill="#481267"/>
<path d="M174.813 34.7642L184.35 37.2725L183.253 38.2915C183.253 38.2915 178.419 38.9708 178.053 38.6573C177.687 38.3437 174.813 34.7642 174.813 34.7642Z" fill="#481267"/>
<path d="M236.581 35.4175L247.424 38.2393L243.113 39.9115C243.113 39.9115 240.5 40.4864 239.507 39.9115C238.514 39.3367 236.581 35.4175 236.581 35.4175Z" fill="#481267"/>
<path d="M360.769 130.655L365.446 133.556C365.446 133.556 366.099 134.47 365.812 134.575C365.524 134.679 362.886 135.62 362.624 135.881C362.363 136.142 360.795 134.575 360.795 134.575V130.655H360.769Z" fill="#481267"/>
<path d="M101.915 52.7402C101.915 52.7402 105.025 55.9279 107.089 58.6714C109.153 61.4148 103.927 58.5407 103.744 58.4362C103.562 58.3317 101.21 54.9873 101.21 54.9873L101.915 52.7402Z" fill="#481267"/>
<path d="M89.5046 51.8777C89.5046 51.8777 92.013 52.9751 93.032 53.9157C93.032 53.9157 93.7374 51.8777 93.7113 51.7732C93.6852 51.6687 93.5807 51.4074 93.3455 51.329C93.1103 51.2506 92.4832 50.8587 92.222 50.8065C91.9607 50.7542 89.5046 51.8777 89.5046 51.8777Z" fill="#481267"/>
<path d="M71.6858 14.6449C71.6858 14.6449 86.5528 15.1936 98.1015 21.177C98.1015 21.177 106.907 25.3314 114.275 33.0654C121.643 40.7993 114.641 26.8468 114.641 26.8468C114.641 26.8468 114.379 23.3718 109.702 20.968C105.025 18.5642 90.3414 15.2197 88.9827 14.9585C87.6241 14.6972 79.7333 12.6069 79.5504 12.5547C79.3675 12.5024 71.6858 14.6449 71.6858 14.6449Z" fill="#481267"/>
<path d="M267.778 62.6431C267.778 62.6431 274.415 52.845 280.059 48.978C280.059 48.978 280.477 49.997 280.477 50.598C280.477 51.1989 276.975 57.3391 276.087 58.2013C275.199 59.0635 267.752 62.617 267.752 62.617L267.778 62.6431Z" fill="#481267"/>
<path d="M190.596 60.9185C191.876 61.2582 192.634 62.5907 192.294 63.871C191.955 65.1513 190.622 65.909 189.342 65.5694C188.061 65.2297 187.304 63.8971 187.643 62.6169C187.983 61.3366 189.316 60.5789 190.596 60.9185Z" fill="#481267"/>
<path d="M11.277 158.821C11.277 158.821 17.7568 166.372 28.2604 168.254C28.2604 168.254 30.3506 163.707 29.9065 163.733C29.4623 163.76 11.277 158.821 11.277 158.821Z" fill="#481267"/>
<path d="M183.122 84.9046C183.122 84.9046 184.611 89.3986 184.611 94.6504C184.611 94.6504 184.899 98.8048 186.284 102.045C187.668 105.285 182.338 104.187 182.338 104.187C182.338 104.187 180.98 101.94 180.509 98.6219C180.039 95.3036 179.543 92.4556 179.543 92.4556L179.778 91.3844L183.122 84.8784V84.9046Z" fill="#FF6B00"/>
<path d="M184.351 90.626C184.351 90.626 184.978 99.3789 187.565 105.049C190.152 110.719 183.411 101.887 183.411 101.887C183.411 101.887 181.53 94.9633 181.895 94.0749C182.261 93.1865 184.351 90.626 184.351 90.626Z" fill="#FF6B00"/>
<path d="M185.187 96.8188C185.187 96.8188 186.075 106.016 195.063 118.793L196.683 116.702L188.662 96.8188H185.187Z" fill="#481267"/>
<path d="M1023.2 68.2866C1020.9 66.0134 1018.1 64.4719 1014.68 63.5835C1014.6 63.5574 1014.52 63.5312 1014.45 63.5051C1006.74 61.232 997.828 61.441 996.444 61.4932H993.387C988.056 61.6239 979.12 61.7806 973.503 69.6714C973.085 70.2462 972.719 70.8472 972.379 71.4481C971.857 70.7426 971.256 70.0633 970.603 69.4101C969.192 68.0253 967.546 66.9018 965.664 66.0396C965.482 65.935 965.273 65.8305 965.09 65.7521C955.919 61.7545 943.534 62.9303 941.235 63.1916C936.636 63.4529 930.679 63.8187 925.688 67.0324C923.467 65.3864 921.064 63.9754 918.451 62.7996C918.242 62.6951 918.033 62.5906 917.824 62.5122L917.693 62.46C915.759 61.65 913.669 60.9445 911.474 60.3697C907.137 59.1156 900.474 57.6001 893.263 57.4434C893.08 57.4434 892.871 57.4434 892.688 57.4434C890.128 57.3127 887.41 57.3127 884.562 57.4434C870.74 58.2011 859.061 62.0942 849.864 69.0443C849.681 69.175 849.472 69.3317 849.289 69.4885C849.733 55.7973 848.923 43.4125 840.797 35.5479C840.641 35.3911 840.484 35.2604 840.327 35.1037C838.524 33.2747 832.541 28.3887 819.66 28.1274C819.607 28.1274 819.529 28.1274 819.451 28.1274C817.987 28.049 816.42 28.1274 814.878 28.3626C814.748 28.3626 814.591 28.4148 814.434 28.441C814.094 28.4932 813.781 28.5455 813.441 28.6239C799.489 31.5502 794.812 47.9327 793.035 54.1512C792.565 55.7973 792.094 57.6001 791.65 59.5597C788.175 59.1156 783.838 58.7236 779.239 58.6452C772.028 58.2795 763.51 58.2011 757.631 58.2011H756.873C748.277 58.2011 736.807 58.3317 729.517 58.9849C729.099 58.384 728.629 57.8092 728.132 57.2866C726.016 54.9612 723.272 53.1844 720.189 52.1393C718.935 51.6429 717.576 51.2248 716.139 50.859C716.584 43.1773 716.322 37.3246 711.567 32.1251C709.842 30.1393 702.945 23.764 687.947 25.5669L687.111 25.6714C687.111 25.6714 686.902 25.6714 686.876 25.6975C686.745 25.6975 686.615 25.7236 686.484 25.7497C686.327 25.7497 686.17 25.802 686.013 25.8281C685.935 25.8281 685.831 25.8543 685.752 25.8804C670.598 28.2058 661.009 37.8471 657.22 54.5954C652.961 56.0586 649.486 58.6453 646.978 62.1987C645.253 61.5194 643.424 60.9184 641.517 60.422C637.18 59.1678 630.517 57.6524 623.332 57.4956C623.123 57.4956 622.94 57.4956 622.757 57.4956C620.196 57.365 617.479 57.365 614.657 57.4956C605.512 57.992 597.282 59.8994 590.07 63.1655C589.496 62.4339 588.842 61.7545 588.189 61.1274C588.085 60.9968 587.98 60.8923 587.85 60.7878C587.85 60.7878 587.432 60.3697 586.622 59.7426C586.569 59.6904 586.465 59.612 586.386 59.5597C585.89 59.194 585.211 58.7236 584.453 58.2272C584.165 58.0443 583.904 57.8875 583.747 57.783C581.5 56.4766 577.79 54.7521 572.721 53.8115C572.434 53.7331 572.173 53.6809 571.859 53.6548H571.546C570.082 53.3935 568.541 53.2367 566.921 53.1844C564.308 53.0015 562.27 52.9493 560.833 53.0277C558.952 53.0799 556.992 53.289 554.954 53.6025L553.935 53.7593C553.021 53.916 552.184 54.0989 551.374 54.2818C550.382 54.517 549.755 54.6999 549.702 54.6999L548.84 54.9612C548.631 55.0134 548.422 55.0918 548.213 55.1702L543.902 56.8424C543.745 56.8947 543.614 56.973 543.458 57.0253C542.203 57.6001 540.975 58.2272 539.747 58.9588C536.142 57.9921 532.823 57.365 529.871 57.0514C527.284 56.6856 523.679 56.7379 520.386 56.9208C518.375 48.4552 514.56 41.3222 508.968 35.6785C505.127 31.7854 500.477 28.6761 495.094 26.2984C494.389 25.9065 493.37 25.4885 491.985 25.0182C491.933 25.0182 491.88 24.992 491.802 24.9659C489.79 24.2343 487.674 23.6334 485.453 23.1108C476.648 20.8376 469.854 20.2889 469.854 20.2889C466.432 19.897 462.852 19.688 459.116 19.688C458.332 19.688 457.522 19.688 456.686 19.7141C440.12 20.0799 405.657 20.8115 405.396 44.3792C405.344 48.9517 405.265 56.0847 405.213 63.7925C402.809 64.2106 400.536 65.0467 398.472 66.2486C393.011 69.4624 389.431 75.1583 388.412 82.2914C386.427 96.3222 396.434 106.382 403.828 111.764L401.816 129.453C398.681 151.348 400.484 163.785 408.087 172.329C411.614 176.301 416.187 178.992 421.648 180.351C421.857 180.429 422.066 180.481 422.301 180.534C422.51 180.586 427.422 181.709 432.648 182.31C433.118 182.363 433.588 182.415 434.032 182.441H434.398C434.66 182.493 434.921 182.493 435.156 182.493C437.168 182.598 439.598 182.493 442.002 182.232C448.403 181.5 454.099 178.025 458.07 172.434C464.916 162.766 467.137 148.004 464.838 127.467C475.498 127.075 484.8 125.089 492.69 121.536C492.612 123.626 492.508 125.403 492.377 126.892L491.854 133.189C491.044 142.804 490.443 149.781 490.757 155.66C490.861 160.441 491.619 167.339 496.662 172.774C496.923 173.061 497.211 173.348 497.498 173.636C498.726 174.916 500.111 176.04 501.626 176.98C503.377 178.156 509.465 181.579 520.883 181.762C521.98 181.814 523.051 181.814 523.992 181.762C524.436 181.762 524.88 181.736 525.325 181.709C525.429 181.709 525.56 181.709 525.664 181.709C527.336 181.605 529.087 181.396 531.047 181.108C535.07 180.508 544.869 177.738 549.258 164.804C550.277 161.826 550.956 158.429 551.296 154.562C551.584 154.745 551.871 154.928 552.158 155.111C552.315 155.215 552.498 155.32 552.629 155.398C552.681 155.398 552.785 155.477 552.838 155.503C553.674 155.973 554.588 156.417 555.529 156.809C557.149 157.619 559.918 158.56 564.726 159.318C568.88 165.823 574.158 169.795 576.118 171.127C576.771 171.598 577.79 172.303 579.123 173.087C580.664 174.002 582.075 174.785 583.408 175.439C583.512 175.491 583.591 175.543 583.695 175.569C584.845 176.118 586.073 176.588 587.17 176.954C592.814 179.018 604.389 182.363 618.812 181.945C624.899 181.945 631.223 181.213 638.068 179.698C643.764 178.757 652.778 174.942 656.018 173.087C657.638 172.225 659.128 171.31 660.486 170.291C664.719 174.629 670.337 177.816 677.339 179.854C677.47 179.907 677.626 179.933 677.757 179.959C678.698 180.272 681.833 181.265 685.831 181.866L686.379 181.945L686.614 181.971L687.215 182.049C687.555 182.101 687.869 182.101 688.208 182.101C689.201 182.18 690.194 182.232 691.135 182.18C697.144 181.971 702.918 180.325 707.491 177.607C708.562 178.051 709.712 178.417 710.914 178.679C711.306 178.809 711.724 178.888 712.142 178.966H712.272C712.429 179.018 712.586 179.044 712.717 179.07C713.396 179.175 714.128 179.28 714.755 179.332C717.341 179.698 721.052 180.194 724.056 180.481C730.144 181.265 739.394 181.605 754.025 181.631H755.541H759.434C778.168 182.964 792.016 181.396 801.344 176.614C802.911 177.79 804.584 178.731 806.386 179.436C807.144 179.724 807.876 179.933 808.503 180.089C808.66 180.142 808.79 180.194 808.947 180.22C811.246 180.873 816.864 182.31 820.914 182.075C821.201 182.075 821.515 182.075 821.854 182.049C823.866 181.945 825.983 181.579 828.099 180.978C834.945 179.044 840.406 175.177 844.22 169.717C844.978 170.318 845.605 170.762 846.049 171.049C846.702 171.519 847.721 172.225 849.054 173.009C851.98 174.759 855.534 176.693 859.949 177.712C863.372 178.522 867.082 179.332 871.159 179.88C874.529 180.586 878.762 181.37 883.778 181.683C883.36 183.669 883.125 185.707 883.125 187.797C883.177 209.745 905.622 220.876 924.852 223.724L927.308 224.09C927.726 224.142 928.144 224.194 928.562 224.246H928.85C929.947 224.508 931.044 224.69 932.116 224.847L934.546 225.213C934.546 225.213 934.729 225.213 934.807 225.239C939.353 225.892 944.213 226.232 948.655 226.232C949.151 226.232 949.648 226.232 950.118 226.232C950.902 226.232 951.634 226.206 952.339 226.154C953.306 226.101 954.168 226.049 954.874 225.971C955.292 225.971 955.448 225.971 955.866 225.945C968.617 225.213 980.27 221.033 990.512 213.508C1022.91 190.933 1026.07 147.952 1026.36 141.942C1026.52 140.453 1026.62 139.146 1026.73 137.945C1028.29 124.253 1029.03 108.394 1029 87.9873C1029 81.0372 1029 73.8519 1023.23 68.1298L1023.2 68.2866Z" fill="white"/>
<path d="M802.468 139.931C802.468 139.931 797.686 132.615 792.226 132.301C785.772 131.935 776.705 134.182 776.705 134.182C775.085 134.548 773.57 135.045 772.211 135.463H772.159C771.558 135.672 770.983 135.855 770.461 136.011C770.356 136.037 770.226 136.064 770.095 136.116C769.363 136.273 768.788 136.403 768.449 136.455C768.344 136.455 768.24 136.482 768.135 136.508C777.306 126.083 785.223 117.068 797.268 103.403L797.321 103.351C804.14 95.4341 805.864 87.8308 806.701 84.1728C806.779 83.7809 806.857 83.4673 806.936 83.1799C807.955 79.3391 807.563 76.0208 805.786 73.3296C804.584 71.5006 802.207 69.2013 797.582 68.522C797.582 68.522 788.698 66.693 779.031 66.5623C779.031 66.5623 779.005 66.5623 778.979 66.5623C771.845 66.1966 763.249 66.1182 757.632 66.1182H756.874C747.86 66.1182 735.658 66.2749 728.708 67.0327H728.394C726.095 67.2417 723.926 67.3985 721.81 68.3652C719.537 69.3058 712.012 73.5647 712.534 88.6407V88.7714L712.613 89.8165L713.553 92.4816L713.397 92.4293C713.397 92.4293 714.233 100.581 728.394 101.783H728.368H728.499C729.857 101.888 731.321 101.94 732.914 101.914L736.311 102.018H736.468C736.86 102.018 737.252 102.018 737.696 102.018C739.394 102.018 741.302 101.94 743.235 101.809L710.209 140.296C710.209 140.296 707.727 144.477 707.283 146.489C705.558 150.486 704.879 154.589 704.278 157.097C703.416 160.833 703.86 164.021 705.61 166.608C707.256 169.037 709.843 170.553 713.24 171.206C713.24 171.206 713.397 171.258 713.684 171.311C713.762 171.311 713.815 171.337 713.867 171.363C714.337 171.441 714.886 171.494 715.408 171.572C717.812 171.912 721.758 172.434 724.893 172.748C724.919 172.748 724.945 172.748 724.971 172.748C730.693 173.479 739.734 173.819 753.974 173.845H755.489C756.9 173.845 758.285 173.845 759.644 173.845C763.903 174.159 767.952 174.315 771.636 174.315C790.214 174.315 801.423 170.318 805.865 162.061C809.993 154.432 806.805 145.627 802.468 139.931Z" fill="#481267"/>
<path d="M664.615 112C668.926 95.6955 657.221 79.6528 656.724 78.9996L656.672 78.9473C653.667 74.9758 649.722 71.9449 644.914 69.8808C644.914 69.8808 644.81 69.8285 644.653 69.7763C643.007 69.0708 641.256 68.496 639.427 68.0257C635.378 66.8499 629.473 65.5174 623.149 65.3867C623.045 65.3867 622.94 65.3867 622.862 65.4129C621.739 65.3606 620.615 65.2822 619.439 65.2822C618.028 65.2822 616.565 65.3345 615.076 65.4129C602.822 66.0922 592.606 69.4628 584.663 75.42C575.831 82.0827 569.796 91.9331 566.739 104.762C566.451 105.807 565.145 110.51 564.439 117.121C563.577 117.199 562.767 117.278 561.931 117.33C560.598 117.356 556.94 117.8 553.753 120.988C550.513 124.254 548.893 129.192 548.945 135.672C548.945 136.743 549.05 137.788 549.285 138.859C549.363 139.278 549.468 139.643 549.546 139.826C549.677 140.375 549.912 141.106 550.225 141.864C550.408 142.256 550.591 142.596 550.696 142.831C551.035 143.458 551.375 144.007 551.767 144.529C551.95 144.791 552.159 145.052 552.394 145.313C552.812 145.81 553.283 146.28 553.779 146.698L553.831 146.75C554.014 146.907 554.197 147.09 554.406 147.247C554.981 147.691 555.582 148.109 556.183 148.475C556.287 148.527 556.392 148.605 556.496 148.658L556.575 148.71C557.254 149.102 557.986 149.441 558.769 149.755C558.796 149.755 561.121 151.192 569.56 152.133C569.56 152.133 569.56 152.133 569.587 152.133C573.114 159.449 579.254 163.89 580.587 164.805C581.005 165.118 581.841 165.693 583.095 166.451C584.271 167.156 585.499 167.836 586.805 168.463C586.805 168.463 586.857 168.489 586.988 168.541C587.876 168.959 588.817 169.325 589.784 169.665C594.696 171.468 605.33 174.603 618.603 174.185C624.221 174.185 630.1 173.506 636.527 172.068C641.152 171.363 649.8 167.705 652.126 166.294C658.031 163.237 661.401 159.135 662.159 154.144C662.995 148.71 660.487 142.935 654.921 137.422C653.432 135.933 651.629 134.966 649.644 134.496C649.644 134.496 646.247 133.686 644.313 133.764C644.157 133.712 644 133.686 643.869 133.634C643.922 133.608 644.026 133.555 644.078 133.529C655.261 128.565 662.185 121.354 664.641 112.052L664.615 112ZM621.268 96.9497C622.549 98.7264 623.489 101.13 621.19 103.116C620.746 103.377 620.223 103.639 619.753 103.874C616.644 105.363 610.843 107.688 609.092 108.394C608.936 108.446 608.753 108.498 608.596 108.551C611.418 98.7787 616.435 96.8713 620.798 96.5578C620.981 96.6884 621.138 96.8191 621.268 96.9497Z" fill="#481267"/>
<path d="M503.377 41.2181C499.85 37.6646 495.46 34.895 490.313 32.857C489.869 32.6741 489.399 32.4651 488.772 32.2561C488.693 32.2299 488.615 32.2038 488.536 32.1777C488.432 32.1516 488.353 32.1254 488.249 32.0732C487.204 31.7074 486.107 31.3938 484.957 31.0803C484.774 31.028 484.617 30.9758 484.434 30.9497C479.287 29.6171 473.513 28.7287 469.985 28.2846C469.228 28.1801 468.444 28.0755 467.66 27.9972C467.007 27.9188 466.615 27.8926 466.615 27.8926C464.211 27.7098 461.729 27.5791 459.116 27.5791C458.358 27.5791 457.601 27.5791 456.843 27.5791C435.391 28.0494 413.418 30.401 413.261 44.458C413.182 50.5459 413.078 61.2323 413.026 71.7359C411.902 71.5007 410.57 71.3178 409.185 71.3178C406.65 71.3178 404.377 71.8927 402.418 73.0423C400.04 74.4271 397.035 77.3535 396.173 83.3891C394.37 95.9829 407.278 104.945 412.137 107.845L409.577 130.446C406.781 149.833 408.035 160.468 413.914 167.104C416.501 170.03 419.897 171.938 424.026 172.826H424C424 172.826 427.684 173.662 431.812 174.237C431.89 174.237 431.969 174.237 432.047 174.263C432.439 174.316 432.805 174.368 433.197 174.42C433.667 174.472 434.111 174.525 434.582 174.551C434.686 174.551 434.817 174.551 434.921 174.577C435.496 174.577 436.071 174.629 436.672 174.629H436.724C438.083 174.629 439.546 174.551 441.035 174.368C445.242 173.897 448.874 171.624 451.565 167.836C457.992 158.769 459.403 142.726 455.798 120.125L458.515 119.603H459.194C460.475 119.603 461.755 119.603 462.983 119.551C495.643 118.845 513.829 102.149 514.168 72.5197C514.325 59.1159 510.667 48.534 503.325 41.1136L503.377 41.2181ZM404.717 79.1302C403.515 80.2537 402.705 81.9521 402.365 84.3036C402.705 81.9521 403.489 80.2537 404.717 79.1302ZM421.282 40.7216C420.995 41.009 420.681 41.2965 420.472 41.6361C420.707 41.3226 420.995 41.0352 421.282 40.7216ZM457.418 87.1516C456.843 87.1516 456.294 87.1516 455.719 87.1516C455.197 87.1516 454.674 87.0993 454.152 87.0993L454.57 60.9188C457.757 60.4485 461.389 60.1611 464.969 60.0827C465.152 60.0827 465.361 60.0827 465.544 60.0827C466.484 60.5007 467.32 60.9972 467.947 61.6243C469.959 63.6623 470.926 67.268 470.874 72.363C470.743 82.6575 466.85 86.9164 457.391 87.1255L457.418 87.1516ZM474.218 84.9307C475.106 83.3891 475.734 81.6908 476.204 79.914C475.76 81.6908 475.106 83.363 474.218 84.9045V84.9307ZM477.092 72.4414C477.118 70.0637 476.935 67.7644 476.491 65.6219C476.935 67.7905 477.118 70.0898 477.092 72.4414Z" fill="#481267"/>
<path d="M456.085 112.261C489.137 111.556 500.921 94.1806 501.208 71.3706C501.47 48.7174 490.078 33.1188 456.999 33.8243C440.46 34.1901 419.61 35.8884 419.505 44.563C419.453 48.2471 419.296 62.0689 419.27 74.9502C428.467 79.8623 435.783 82.8148 441.166 84.5654C441.322 74.1141 441.453 66.8243 441.636 54.5701C445.816 53.5511 451.852 52.7934 458.018 52.6628C473.46 52.3231 477.223 61.7815 477.092 72.4419C476.961 82.9454 472.99 93.0048 457.548 93.3706C454.857 93.4229 452.218 93.3706 449.736 93.1616C448.09 93.3445 445.999 93.0571 443.674 92.4561C442.968 92.3255 442.263 92.221 441.61 92.0642C441.61 91.9858 441.584 91.9336 441.557 91.8552C441.557 91.9074 441.557 91.9858 441.557 92.0381C439.389 91.3587 429.538 88.0143 413.783 78.4252C413.757 78.4252 408.923 76.4917 405.605 78.4252C403.881 79.4442 402.783 81.43 402.365 84.3041C400.85 94.9906 416.553 103.221 416.71 103.299C424.444 108.603 439.154 111.268 443.674 111.974C444.196 112.026 444.745 112.052 445.268 112.105C448.9 112.287 452.584 112.314 456.085 112.235" fill="#FF6C0E"/>
<path d="M416.761 163.028C419.295 165.876 423.006 167.287 428.101 167.287C429.224 167.287 430.426 167.209 431.706 167.078C434.136 166.79 436.2 165.484 437.873 163.133C445.345 152.551 442.759 130.237 440.851 118.767C433.562 118.166 423.842 116.494 416.108 112.104C415.402 118.323 414.828 123.47 413.939 131.282C411.457 148.475 412.293 157.985 416.761 163.002" fill="#FF6C0E"/>
<path d="M587.275 76.9868C586.962 72.6234 585.237 69.0438 582.337 66.4832H582.389C582.389 66.4832 582.18 66.2742 581.762 65.9607C581.71 65.9345 581.657 65.8823 581.631 65.8561C581.292 65.5949 580.821 65.2813 580.247 64.9155C580.09 64.811 579.933 64.7065 579.75 64.6281C577.817 63.5046 574.838 62.1982 570.762 61.4927H570.788C570.788 61.4927 570.657 61.4666 570.448 61.4405C569.22 61.2576 567.888 61.1269 566.477 61.0747C564.648 60.944 562.61 60.8395 561.095 60.944C559.553 60.9963 557.933 61.1531 556.235 61.4143L555.294 61.5711C554.536 61.7018 553.857 61.8324 553.204 61.9892C552.42 62.1721 551.924 62.3027 551.924 62.3027L551.061 62.5379L546.75 64.2101C544.608 65.2029 542.543 66.4048 540.584 67.8158C539.826 67.3455 539.016 67.0058 538.206 66.7445C534.026 65.5687 530.969 65.0984 528.905 64.8894C528.905 64.8894 528.878 64.8894 528.852 64.8894C524.541 64.2362 514.952 65.3074 514.011 65.412C510.615 65.7516 508.211 66.3526 506.173 67.6329C501.235 70.7421 501.052 76.3075 500.921 80.3573C500.869 81.8466 500.895 84.9559 500.921 89.2671V89.5545C500.947 100.189 501.026 117.982 500.216 127.623L499.693 133.92C498.883 143.274 498.308 150.068 498.622 155.424C498.7 159.239 499.223 164.02 502.463 167.521C502.646 167.704 502.828 167.913 503.037 168.07C503.926 169.037 504.919 169.821 505.938 170.448C505.938 170.448 510.484 173.792 521.249 173.975C522.137 174.027 522.999 174.001 523.783 173.975C524.175 173.975 524.567 173.949 524.959 173.923C524.959 173.923 525.011 173.923 525.038 173.923C526.501 173.818 528.121 173.661 529.897 173.4C533.111 172.93 538.912 170.866 541.786 162.374C543.484 157.383 544.033 150.773 543.484 142.151L543.798 132.3C545.104 100.45 555.791 99.7707 561.565 99.431C561.696 99.431 561.852 99.431 561.983 99.431C563.551 99.3787 565.432 99.5616 566.921 99.7184C567.783 99.849 568.672 99.9274 569.56 99.9535H570.187C570.396 99.9535 570.605 99.9535 570.814 99.9535C574.864 99.8229 578.914 97.9155 581.919 94.7018C584.741 91.697 587.981 86.1839 587.353 77.0652L587.275 76.9868Z" fill="#481267"/>
<path d="M568.723 67.8165C568.357 67.6336 567.939 67.4507 567.469 67.2939C566.92 67.111 566.241 67.0065 565.379 66.9281C562.975 66.5885 560.205 66.6407 557.148 67.1372L556.26 67.2939C555.685 67.3984 555.084 67.503 554.509 67.6597C553.856 67.8165 553.464 67.921 553.464 67.921L552.68 68.1562C544.659 70.6906 537.683 76.6217 532.98 84.7999V83.9638C533.215 77.2488 533.241 73.9566 531.412 72.1538C529.714 70.4816 526.84 70.5338 521.509 70.769C508.21 71.3961 506.982 71.6835 506.695 80.5671C506.642 81.978 506.669 85.2702 506.695 89.5552C506.721 100.268 506.799 118.244 505.989 128.121L505.467 134.444C504.683 143.641 504.108 150.277 504.422 155.242C504.5 159.396 505.205 161.983 506.721 163.629C506.825 163.733 506.93 163.812 507.034 163.89C508.942 166.163 511.894 167.156 516.702 166.999C518.296 166.947 520.098 166.764 522.136 166.477C528.904 165.484 531.804 156.888 530.759 141.08L531.072 130.916C532.405 98.2037 543.562 93.1087 554.274 92.4293C556.443 92.2987 559.004 92.5339 560.702 92.7168C561.355 92.8213 562.061 92.8735 562.818 92.8996H563.341C566.006 92.9258 568.723 91.6716 570.761 89.4768C572.799 87.3082 575.125 83.2322 574.628 76.2298C574.341 72.1538 572.355 69.3319 568.749 67.8688" fill="#FF6C0E"/>
<path d="M583.956 160.022C583.956 160.022 584.662 160.597 586.073 161.407C588.215 162.688 590.488 163.942 593.049 164.543C602.638 166.79 612.331 168.723 628.636 165.091C632.163 164.647 640.681 161.068 642.327 160.049C642.379 160.022 642.431 159.996 642.484 159.97C655.104 153.49 648.049 144.372 643.999 140.348C638.747 135.148 629.707 144.084 617.035 146.906C612.54 147.899 609.039 147.481 606.244 146.488C594.042 149.885 583.538 152.315 577.293 153.673C580.377 157.775 583.956 160.049 583.956 160.049" fill="#FF6C0E"/>
<path d="M598.745 139.878C599.137 139.774 599.555 139.669 599.947 139.565C602.977 138.676 607.393 137.396 611.286 136.273C611.339 136.273 611.391 136.246 611.443 136.22C612.044 136.037 612.671 135.828 613.272 135.619C614.16 135.332 615.023 135.045 615.911 134.757C616.695 134.496 617.505 134.208 618.289 133.947C619.229 133.607 620.17 133.294 621.084 132.928C621.685 132.693 622.312 132.484 622.913 132.249C624.037 131.831 625.134 131.387 626.232 130.942C626.806 130.707 627.381 130.472 627.93 130.237C628.897 129.819 629.863 129.401 630.804 128.957C631.405 128.695 631.98 128.408 632.555 128.147C633.338 127.755 634.096 127.337 634.88 126.997C668.168 112.261 645.227 81.2986 645.227 81.2986C638.93 73.016 628.27 70.5338 615.415 71.2393C594.433 72.3889 578.103 82.0302 572.381 106.277C572.381 106.277 571.101 110.458 570.369 116.729C575.621 116.102 585.916 114.769 594.669 113.123C594.721 112.522 594.773 111.947 594.878 111.346C597.595 95.4602 605.042 90.0255 614.004 89.5552C618.785 89.2939 622.835 90.1823 625.657 93.1609C625.761 93.2915 631.222 100.189 626.388 106.094H626.441C624.246 109.204 617.662 111.764 612.776 113.306C607.942 115.083 601.932 116.885 594.381 118.531C594.381 118.531 594.355 118.531 594.329 118.531C589.626 119.629 580.272 121.562 569.925 122.372C569.925 122.372 569.925 122.398 569.925 122.425C567.443 122.686 564.909 122.947 562.243 123.156C562.243 123.156 554.718 122.843 554.797 135.645C554.797 136.403 554.875 137.083 555.006 137.736C555.058 137.945 555.11 138.128 555.163 138.311C555.267 138.729 555.398 139.147 555.581 139.539C555.659 139.721 555.764 139.904 555.868 140.087C556.051 140.427 556.26 140.767 556.469 141.054C556.574 141.211 556.704 141.368 556.835 141.498C557.096 141.812 557.384 142.073 557.671 142.36C557.802 142.465 557.906 142.569 558.037 142.674C558.429 142.988 558.847 143.249 559.265 143.51C559.317 143.536 559.369 143.588 559.422 143.615C560.441 144.189 561.59 144.607 562.74 144.921C562.844 144.947 562.975 144.973 563.08 144.999C563.55 145.104 564.02 145.208 564.491 145.313C564.647 145.339 564.778 145.365 564.935 145.391C565.379 145.47 565.823 145.522 566.267 145.574C566.424 145.574 566.555 145.6 566.711 145.626C567.156 145.679 567.6 145.705 568.044 145.705C568.175 145.705 568.279 145.705 568.41 145.705C568.906 145.705 569.403 145.705 569.847 145.705C569.899 145.705 569.925 145.705 569.977 145.705C570.448 145.705 570.918 145.705 571.336 145.679C584.609 144.477 598.588 139.878 598.588 139.878H598.745Z" fill="#FF6C0E"/>
<path d="M722.331 62.6167C721.339 61.5193 719.771 60.2912 717.498 59.5597C715.825 58.8803 713.683 58.2794 710.966 57.9136H710.783C710.025 57.7829 709.241 57.6784 708.353 57.6784C708.196 57.6784 708.013 57.6784 707.83 57.6784L708.091 53.6808C708.666 45.1368 708.954 40.8257 705.714 37.3506C705.714 37.3506 701.298 31.8637 688.783 33.353C688.547 33.353 688.312 33.4053 688.077 33.4314C687.842 33.4575 687.607 33.4836 687.372 33.5098C687.319 33.5098 687.267 33.5098 687.241 33.5098C677.861 34.8684 667.018 40.0941 664.039 61.0228C653.222 62.0157 650.583 70.2723 650.296 77.1179L650.061 80.7236C649.669 85.505 650.714 89.3198 653.222 92.0632C655.286 94.3364 658.108 95.5644 661.531 95.7996C661.635 95.8518 661.714 95.9302 661.844 95.9563C661.714 98.8305 661.583 101.731 661.452 104.709C661.113 112.208 660.773 119.994 660.303 128.329V128.617V128.904C660.329 130.446 660.068 132.693 659.806 135.07C658.578 145.705 656.253 165.458 679.507 172.225C679.716 172.277 679.925 172.303 680.16 172.355C680.16 172.355 683.087 173.427 687.11 174.028C687.267 174.028 687.398 174.08 687.555 174.08C687.764 174.106 687.973 174.132 688.208 174.184V174.132C688.913 174.211 689.567 174.289 690.246 174.289C690.481 174.289 690.69 174.289 690.925 174.289C696.438 174.106 701.821 172.329 705.322 169.586C712.664 163.785 715.773 151.819 712.115 143.431C710.861 140.557 708.719 138.154 705.531 136.089C705.061 135.776 704.512 135.253 704.015 134.6C703.179 133.555 702.787 132.275 702.866 131.099V130.89C703.702 118.218 704.486 106.12 705.322 94.5454C705.74 94.4932 706.132 94.4409 706.628 94.3625C707.464 94.2319 708.718 94.049 711.488 93.6832C722.488 92.3245 725.127 84.7212 725.388 78.5288L725.624 74.9492C726.12 69.4623 725.075 65.3863 722.462 62.486L722.331 62.6167Z" fill="#481267"/>
<path d="M663.753 89.1106C665.895 88.98 666.94 88.9016 669.083 88.771C668.43 101.208 667.986 114.168 667.149 128.878C667.385 139.042 659.337 159.343 681.389 165.771C682.8 166.189 684.29 166.398 685.753 166.346C690.404 166.189 694.166 164.647 696.126 163.106C701.247 159.056 703.154 150.303 700.881 145.051C700.071 143.196 698.53 141.811 696.831 140.714C695.577 139.904 694.506 138.807 693.67 137.735C691.841 135.384 690.874 132.457 691.057 129.479C691.057 129.479 691.057 129.453 691.057 129.427C692.024 114.586 692.938 100.476 693.957 87.0988C701.639 86.5762 697.955 86.7591 705.663 85.7923C708.798 85.4004 713.266 84.5121 713.579 77.0916C713.658 75.8375 713.736 74.6094 713.815 73.3553C714.625 64.8897 710.575 64.3149 707.047 64.6284C699.731 65.3078 702.971 64.7591 695.499 65.9348C695.786 61.5192 695.917 59.3244 696.204 54.9087C697.119 40.7994 697.693 39.6759 691.005 40.1462C682.408 40.7211 671.8 43.569 670.259 67.4503C670.259 67.5287 670.259 67.5548 670.259 67.6332C668.195 67.7638 667.176 67.8422 665.111 67.9729C661.584 68.208 657.456 69.227 657.142 77.6403C657.064 78.8945 656.986 80.1486 656.881 81.4289C656.228 88.8755 660.565 89.3458 663.727 89.1629" fill="#FF6C0E"/>
<path d="M788.018 142.23C784.517 137.631 778.403 139.565 773.961 140.976C773.282 141.185 772.655 141.394 772.054 141.577C767.612 142.857 748.931 145.026 748.878 145.026C746.501 144.973 744.227 144.895 742.163 144.817C758.18 126.605 766.619 116.99 783.08 98.3083C788.959 91.4627 790.396 85.0874 791.18 81.6384C791.284 81.1681 791.363 80.7762 791.467 80.4365C792.042 78.2417 791.938 76.5434 791.102 75.2631C790.318 74.0612 788.907 73.3035 786.895 73.0161C780.206 72.0232 764.189 71.8926 757.631 71.8926C750.159 71.8926 736.546 71.971 729.256 72.7809H728.864C726.826 72.9638 725.337 73.0945 724.135 73.6693C723.665 73.8261 717.942 76.1254 718.387 88.4056L718.465 89.3201H718.491C718.831 91.8546 720.425 93.6052 723.168 94.4151C725.885 95.8261 740.073 94.2061 744.358 93.6836C750.524 93.2132 757.344 92.7691 760.636 92.6646L759.904 93.579C742.895 112.862 734.011 122.947 716.61 142.7C713.814 145.888 711.045 153.805 709.973 158.429C709.477 160.546 709.634 162.166 710.444 163.368C711.254 164.57 712.665 165.301 714.729 165.615C720.059 166.425 729.125 166.79 744.149 166.817C746.135 166.817 748.121 166.817 750.028 166.817C754.261 167.13 758.206 167.287 761.812 167.287C777.855 167.287 787.627 164.204 790.945 158.09C794.577 151.401 789.142 143.719 788.018 142.256" fill="#FF6C0E"/>
<path d="M840.405 133.058L840.3 132.614C839.961 130.968 839.647 129.401 839.464 128.303C837.374 115.448 838.367 106.538 839.516 96.2437C840.039 91.4884 840.588 86.5501 840.849 80.9587C840.901 79.7568 841.006 77.6665 841.006 77.6665C841.79 61.8851 842.495 48.2461 835.284 41.2698C835.101 41.0869 834.892 40.9302 834.709 40.7473H834.735C834.735 40.7473 830.946 36.3055 819.45 36.0703H819.11C818.927 36.0703 818.771 36.0703 818.614 36.0703C817.752 36.0703 816.837 36.1226 815.897 36.2532C815.792 36.2532 815.688 36.3055 815.583 36.3055H815.452C815.452 36.3055 815.452 36.3055 815.426 36.3316C806.882 37.847 802.859 48.4551 800.611 56.372C795.961 72.676 792.825 104.213 792.956 113.227L792.904 113.671C791.127 133.764 791.859 150.172 801.212 164.883C802.963 167.626 805.262 170.657 809.155 172.199C809.73 172.434 810.357 172.564 811.011 172.721V172.773C811.011 172.773 817.464 174.602 820.521 174.341C820.809 174.341 821.07 174.341 821.357 174.341C822.794 174.263 824.31 174.001 825.877 173.557C833.69 171.336 842.887 164.778 842.391 146.07C842.286 142.621 841.319 137.788 840.379 133.111L840.405 133.058Z" fill="#481267"/>
<path d="M828.413 133.007C829.275 137.24 830.242 142.021 830.321 144.974C830.634 157.019 826.506 164.309 818.04 166.712C816.891 167.026 815.819 167.235 814.8 167.287C813.494 167.339 812.344 167.183 811.325 166.791C809 165.876 807.484 163.864 806.178 161.8C797.713 148.449 797.085 133.138 798.758 114.195C798.81 114.195 798.836 114.195 798.862 114.195C798.287 109.152 801.344 75.1067 806.23 57.9927C809.131 47.8026 812.579 42.577 816.708 42.0022C820.209 41.5318 822.978 42.2896 824.99 44.2231C830.321 49.3703 829.641 62.4083 828.962 76.1779C828.884 77.4844 828.857 78.1376 828.805 79.444C828.544 84.8525 827.995 89.7124 827.499 94.3894C826.349 104.684 825.278 114.377 827.499 128.016C827.708 129.323 828.074 131.073 828.465 133.007" fill="#FF6C0E"/>
<path d="M914.008 133.477C925.191 128.513 932.115 121.301 934.571 112C938.883 95.6955 927.177 79.6528 926.681 78.9996L926.628 78.9473C923.598 74.9758 919.678 71.9449 914.871 69.8808C914.871 69.8808 914.766 69.8285 914.609 69.7763C912.963 69.0708 911.213 68.496 909.384 68.0257C905.334 66.8499 899.429 65.5174 893.08 65.3867C892.975 65.3867 892.897 65.3867 892.792 65.4129C891.669 65.3606 890.545 65.2822 889.343 65.2822C887.932 65.2822 886.469 65.3345 884.98 65.4129C872.726 66.0922 862.51 69.4628 854.567 75.42C845.735 82.0827 839.7 91.9331 836.643 104.762C836.355 105.807 835.049 110.51 834.369 117.121C834.317 117.121 834.291 117.121 834.291 117.121C833.481 117.199 832.671 117.278 831.861 117.33C830.529 117.356 826.871 117.8 823.683 120.988C820.443 124.254 818.823 129.192 818.875 135.672C818.875 136.743 818.98 137.788 819.215 138.859C819.293 139.278 819.398 139.643 819.476 139.826C819.607 140.375 819.842 141.106 820.156 141.864C820.339 142.256 820.521 142.596 820.626 142.831C820.966 143.458 821.305 144.007 821.697 144.529C821.88 144.791 822.089 145.052 822.324 145.313C822.742 145.81 823.213 146.28 823.709 146.698L823.761 146.75C823.944 146.907 824.127 147.09 824.336 147.247C824.911 147.691 825.512 148.109 826.113 148.475C826.217 148.527 826.322 148.605 826.426 148.658L826.505 148.71C827.864 149.468 829.431 150.095 831.182 150.565C831.312 150.591 831.417 150.617 831.548 150.643H831.626C832.227 150.826 832.828 150.957 833.403 151.035C833.586 151.061 833.769 151.088 833.951 151.14C834.526 151.218 835.075 151.297 835.597 151.349L836.12 151.401C836.46 151.427 836.826 151.453 837.191 151.479C837.479 151.558 837.74 151.688 838.027 151.767C838.158 151.793 838.263 151.819 838.393 151.845H838.472C838.811 151.95 839.151 152.002 839.491 152.08C843.018 159.396 849.158 163.838 850.491 164.753C850.909 165.066 851.745 165.641 852.999 166.399C855.507 167.914 858.303 169.403 861.621 170.187C865.044 170.997 868.493 171.703 872.203 172.225C877.168 173.297 882.315 174.133 888.507 174.133C894.125 174.133 900.004 173.453 906.431 172.016C911.056 171.311 919.704 167.653 922.03 166.242C927.935 163.185 931.305 159.083 932.063 154.092C932.899 148.658 930.391 142.883 924.826 137.37C923.467 136.038 921.873 135.097 920.096 134.574C917.092 133.163 914.975 133.294 913.826 133.582C913.799 133.582 913.773 133.582 913.721 133.555C913.799 133.529 913.878 133.477 913.93 133.451L914.008 133.477ZM891.198 96.9497C892.479 98.7264 893.419 101.13 891.12 103.116C890.388 103.534 889.579 103.952 888.716 104.396C884.484 106.408 878.709 108.342 878.579 108.394C881.426 98.7787 886.417 96.8974 890.728 96.5578C890.911 96.6884 891.068 96.8191 891.198 96.9497Z" fill="#481267"/>
<path d="M853.914 160.022C853.914 160.022 854.62 160.597 856.031 161.407C858.173 162.688 860.446 163.942 863.007 164.543C872.596 166.79 882.29 168.723 898.594 165.091C902.121 164.647 910.639 161.068 912.285 160.049C912.337 160.022 912.389 159.996 912.442 159.97C925.062 153.49 918.007 144.372 913.957 140.348C908.705 135.148 899.665 144.084 886.993 146.906C882.499 147.899 878.997 147.481 876.202 146.488C864 149.885 853.496 152.315 847.252 153.673C850.335 157.775 853.914 160.049 853.914 160.049" fill="#FF6C0E"/>
<path d="M868.676 139.878C869.068 139.774 869.486 139.669 869.878 139.565C872.909 138.676 877.324 137.396 881.217 136.273C881.27 136.273 881.322 136.246 881.374 136.22C881.975 136.037 882.602 135.828 883.203 135.619C884.091 135.332 884.954 135.045 885.842 134.757C886.626 134.496 887.436 134.208 888.22 133.947C889.16 133.607 890.101 133.294 891.015 132.928C891.616 132.693 892.243 132.484 892.844 132.249C893.968 131.831 895.065 131.387 896.163 130.942C896.738 130.707 897.312 130.472 897.861 130.237C898.828 129.819 899.795 129.401 900.735 128.957C901.336 128.695 901.911 128.408 902.486 128.147C903.27 127.755 904.027 127.337 904.811 126.997C938.099 112.261 915.158 81.2986 915.158 81.2986C908.861 73.016 898.201 70.5338 885.346 71.2393C864.365 72.3889 848.034 82.0302 842.312 106.277C842.312 106.277 841.032 110.458 840.3 116.729C845.552 116.102 855.847 114.769 864.6 113.123C864.652 112.522 864.704 111.947 864.809 111.346C867.526 95.4602 874.973 90.0255 883.935 89.5552C888.716 89.2939 892.766 90.1823 895.588 93.1609C895.692 93.2915 901.153 100.189 896.319 106.094H896.372C894.177 109.204 887.593 111.764 882.707 113.306C877.873 115.083 871.863 116.885 864.312 118.531C864.312 118.531 864.286 118.531 864.26 118.531C859.557 119.629 850.203 121.562 839.856 122.372C839.856 122.372 839.856 122.398 839.856 122.425C837.374 122.686 834.84 122.947 832.175 123.156C832.175 123.156 824.65 122.843 824.728 135.645C824.728 136.403 824.806 137.083 824.937 137.736C824.989 137.945 825.042 138.128 825.094 138.311C825.198 138.729 825.329 139.147 825.512 139.539C825.59 139.721 825.695 139.904 825.799 140.087C825.982 140.427 826.191 140.767 826.4 141.054C826.505 141.211 826.635 141.368 826.766 141.498C827.027 141.812 827.315 142.073 827.602 142.36C827.733 142.465 827.837 142.569 827.968 142.674C828.36 142.988 828.778 143.249 829.196 143.51C829.248 143.536 829.3 143.588 829.353 143.615C830.372 144.189 831.521 144.607 832.671 144.921C832.775 144.947 832.906 144.973 833.011 144.999C833.481 145.104 833.951 145.208 834.422 145.313C834.578 145.339 834.709 145.365 834.866 145.391C835.31 145.47 835.754 145.522 836.198 145.574C836.355 145.574 836.486 145.6 836.643 145.626C837.087 145.679 837.531 145.705 837.975 145.705C838.106 145.705 838.21 145.705 838.341 145.705C838.837 145.705 839.334 145.705 839.778 145.705C839.83 145.705 839.856 145.705 839.909 145.705C840.379 145.705 840.849 145.705 841.267 145.679C854.54 144.477 868.519 139.878 868.519 139.878H868.676Z" fill="#FF6C0E"/>
<path d="M1017.66 73.8776C1016.14 72.3883 1014.32 71.5522 1012.2 71.0819C1005.3 69.0439 996.653 69.3835 996.653 69.3835C996.026 69.3835 995.372 69.3835 994.693 69.3835C994.301 69.3835 993.909 69.3835 993.543 69.3835C988.971 69.4619 983.249 69.5664 979.931 74.2173C977.422 77.7185 977.318 82.317 977.318 89.5284V99.7707C977.318 109.255 976.273 119.916 974.496 128.251C973.79 131.595 973.033 134.208 972.327 136.246C971.909 134.704 971.465 132.928 971.073 130.785C969.584 122.973 968.748 112.652 968.748 101.73V91.4881C968.748 83.9892 968.748 78.5546 965.09 75.0011C964.123 74.0605 963.052 73.4073 961.928 72.9631H961.954C954.09 69.5142 941.966 71.0035 941.966 71.0035C936.218 71.317 931.619 71.7873 928.484 74.7921C924.852 78.2671 924.826 83.127 924.8 89.2933C924.721 102.828 924.643 123.286 928.301 141.106C933.056 164.281 943.116 176.771 958.218 178.208C958.74 178.26 959.289 178.286 959.812 178.26C959.89 178.26 959.942 178.26 960.021 178.26C960.073 178.26 960.099 178.26 960.151 178.286C958.845 179.044 957.408 179.645 955.84 180.141H955.762C955.161 180.35 954.586 180.533 954.037 180.664L952.287 180.951C951.843 181.03 951.372 181.082 950.902 181.134C948.89 181.369 947.218 181.265 945.964 181.03C942.463 179.906 939.379 178.312 936.819 176.091C932.377 172.251 928.301 170.291 924.852 169.324C924.8 169.324 924.774 169.298 924.721 169.272C922.004 168.357 917.824 168.253 917.824 168.253C915.42 167.574 913.329 167.365 911.631 167.391C910.56 167.391 909.489 167.521 908.444 167.73C898.018 169.742 891.016 177.842 891.042 187.875C891.068 204.833 909.933 213.638 926.054 216.042L928.484 216.407C929.006 216.486 929.581 216.538 930.104 216.616C931.175 216.825 932.246 217.008 933.292 217.165L935.721 217.531C940.425 218.21 945.493 218.55 950.04 218.471C950.719 218.471 951.372 218.445 951.999 218.419C952.835 218.367 953.567 218.315 954.22 218.262C954.325 218.262 954.403 218.262 954.482 218.236C954.664 218.236 954.821 218.236 955.004 218.236C955.161 218.236 955.292 218.236 955.474 218.236C966.71 217.609 976.978 213.899 985.966 207.262C1016.14 186.308 1018.42 144.502 1018.55 141.524C1018.7 139.956 1018.84 138.623 1018.91 137.369C1020.46 123.966 1021.16 108.315 1021.16 88.1436C1021.16 82.0819 1021.16 77.3004 1017.71 73.9037L1017.66 73.8776Z" fill="#481267"/>
<path d="M1008.02 87.0207C1008.02 75.6026 1007.52 75.08 994.771 75.2107C983.797 75.3413 983.144 76.1774 983.144 89.5551C983.144 93.6572 983.144 95.6953 983.144 99.7974C983.144 119.524 978.65 148.762 968.878 149.075C959.158 149.389 955.683 123.208 955.657 100.66C955.657 96.5575 955.657 94.5195 955.657 90.4173C955.657 76.909 955.108 76.2297 944.004 76.7784C931.097 77.4316 930.652 78.0325 930.6 89.3722C930.469 116.258 930.339 169.743 958.74 172.46C962.268 172.8 968.277 170.892 974.26 161.382C974.26 161.382 976.194 158.9 976.089 160.911C975.776 163.786 975.044 168.201 972.876 172.669C972.823 172.8 972.719 172.904 972.667 173.061C972.458 173.479 972.222 173.897 971.987 174.315C968.591 180.429 963.469 183.721 958.479 185.446C956.31 186.125 953.619 186.674 952.992 186.805C949.517 187.353 946.565 187.301 944.918 187.196C944.814 187.196 944.683 187.196 944.579 187.196C944.37 187.196 944.161 187.144 943.978 187.118C943.717 187.092 943.534 187.066 943.534 187.066C937.811 186.282 931.279 184.244 925.714 179.436C919.391 173.976 913.747 172.669 909.462 173.505C901.363 175.073 896.764 181.135 896.764 187.928C896.764 200.417 911.735 208.099 926.811 210.346H926.864C933.317 211.47 939.954 211.757 944.396 211.522C945.101 211.496 945.728 211.444 946.329 211.391C946.408 211.391 946.486 211.391 946.643 211.339C946.852 211.339 946.956 211.339 947.139 211.339C947.374 211.339 947.61 211.339 947.845 211.339C958.479 210.738 967.598 207.132 975.279 201.436C1003.94 181.605 1005.43 140.113 1005.43 140.113C1005.59 138.65 1005.72 137.187 1005.82 135.75C1007.37 122.529 1008.04 107.061 1008.04 87.0729L1008.02 87.0207Z" fill="#FF6C0E"/>
</svg>
