<svg width="1509" height="487" viewBox="0 0 1509 487" fill="none" xmlns="http://www.w3.org/2000/svg">
<path d="M1495.13 114.408C1489.72 109.056 1483.14 105.427 1475.08 103.336C1474.89 103.274 1474.71 103.213 1474.52 103.151C1456.38 97.8 1435.4 98.2921 1432.14 98.4151H1424.95C1412.4 98.7226 1391.36 99.0917 1378.14 117.668C1377.15 119.021 1376.29 120.435 1375.49 121.85C1374.26 120.189 1372.85 118.59 1371.31 117.052C1367.99 113.792 1364.11 111.148 1359.69 109.118C1359.26 108.872 1358.76 108.626 1358.33 108.441C1336.74 99.0302 1307.59 101.798 1302.17 102.413C1291.35 103.028 1277.33 103.889 1265.58 111.455C1260.35 107.58 1254.69 104.258 1248.54 101.491C1248.05 101.245 1247.55 100.998 1247.06 100.814L1246.75 100.691C1242.2 98.7842 1237.28 97.1234 1232.12 95.7702C1221.91 92.8177 1206.22 89.2502 1189.24 88.8811C1188.81 88.8811 1188.32 88.8811 1187.89 88.8811C1181.86 88.5736 1175.47 88.5736 1168.76 88.8811C1136.22 90.6649 1108.73 99.8298 1087.08 116.191C1086.65 116.499 1086.15 116.868 1085.72 117.237C1086.77 85.006 1084.86 55.8506 1065.73 37.3362C1065.36 36.9672 1064.99 36.6596 1064.63 36.2906C1060.38 31.9849 1046.3 20.4827 1015.97 19.8676C1015.85 19.8676 1015.66 19.8676 1015.48 19.8676C1012.03 19.683 1008.34 19.8675 1004.72 20.4211C1004.41 20.4211 1004.04 20.5442 1003.67 20.6057C1002.87 20.7287 1002.13 20.8517 1001.33 21.0362C968.486 27.9253 957.476 66.4917 953.293 81.1309C952.186 85.006 951.079 89.2502 950.033 93.8634C941.853 92.8177 931.642 91.8951 920.817 91.7105C903.84 90.8494 883.788 90.6649 869.948 90.6649H868.164C847.928 90.6649 820.925 90.9724 803.764 92.5102C802.78 91.0955 801.673 89.7423 800.504 88.5121C795.522 83.0377 789.063 78.8551 781.805 76.3947C778.853 75.226 775.654 74.2419 772.271 73.3807C773.317 55.297 772.702 41.5189 761.507 29.2785C757.447 24.6038 741.209 9.59547 705.903 13.8396L703.934 14.0857C703.934 14.0857 703.442 14.0857 703.381 14.1472C703.073 14.1472 702.766 14.2087 702.458 14.2702C702.089 14.2702 701.72 14.3932 701.351 14.4547C701.166 14.4547 700.92 14.5162 700.736 14.5778C665.06 20.0521 642.486 42.7491 633.567 82.1766C623.541 85.6211 615.361 91.7106 609.456 100.076C605.396 98.4766 601.09 97.0619 596.6 95.8932C586.39 92.9407 570.705 89.3732 553.79 89.0041C553.298 89.0041 552.867 89.0041 552.436 89.0041C546.409 88.6966 540.011 88.6966 533.368 89.0041C511.84 90.1728 492.465 94.663 475.488 102.352C474.135 100.629 472.597 99.0302 471.059 97.5539C470.813 97.2464 470.567 97.0004 470.26 96.7543C470.26 96.7543 469.276 95.7702 467.369 94.294C467.246 94.1709 467 93.9864 466.815 93.8634C465.647 93.0023 464.047 91.8951 462.264 90.7264C461.587 90.2958 460.972 89.9268 460.603 89.6808C455.313 86.6053 446.579 82.5457 434.646 80.3313C433.969 80.1468 433.354 80.0238 432.616 79.9623H431.878C428.433 79.3472 424.804 78.9781 420.991 78.8551C414.84 78.4245 410.042 78.3015 406.659 78.486C402.231 78.6091 397.617 79.1011 392.82 79.8393L390.421 80.2083C388.268 80.5774 386.299 81.0079 384.393 81.4385C382.055 81.9921 380.579 82.4226 380.456 82.4226L378.426 83.0377C377.934 83.1607 377.442 83.3453 376.95 83.5298L366.801 87.4664C366.432 87.5894 366.124 87.774 365.755 87.897C362.803 89.2502 359.912 90.7264 357.021 92.4487C348.533 90.1728 340.721 88.6966 333.771 87.9585C327.681 87.0974 319.193 87.2204 311.443 87.6509C306.706 67.7219 297.726 50.9298 284.563 37.6438C275.521 28.4789 264.572 21.1593 251.901 15.5619C250.241 14.6393 247.842 13.6551 244.582 12.5479C244.459 12.5479 244.336 12.4864 244.151 12.4249C239.415 10.7026 234.433 9.28793 229.204 8.05774C208.476 2.70642 192.483 1.41474 192.483 1.41474C184.426 0.492096 175.999 0 167.203 0C165.358 0 163.451 1.31412e-05 161.483 0.0615226C122.486 0.922654 41.3546 2.64491 40.7395 58.1264C40.6165 68.8906 40.432 85.6826 40.309 103.828C34.6502 104.812 29.2988 106.78 24.4396 109.61C11.5841 117.175 3.15728 130.585 0.758412 147.377C-3.9163 180.407 19.6419 204.088 37.049 216.759L32.3128 258.401C24.9316 309.946 29.1758 339.224 47.075 359.338C55.3788 368.687 66.1429 375.023 78.9984 378.221C79.4905 378.406 79.9826 378.529 80.5361 378.652C81.0282 378.775 92.5919 381.42 104.894 382.835C106.001 382.958 107.108 383.081 108.154 383.142H109.015C109.63 383.265 110.245 383.265 110.799 383.265C115.535 383.511 121.255 383.265 126.914 382.65C141.984 380.928 155.393 372.747 164.743 359.584C180.858 336.826 186.086 302.073 180.673 253.726C205.769 252.804 227.667 248.129 246.243 239.764C246.058 244.685 245.812 248.867 245.504 252.373L244.274 267.197C242.367 289.832 240.953 306.255 241.691 320.095C241.937 331.351 243.721 347.59 255.592 360.384C256.207 361.06 256.884 361.737 257.56 362.414C260.451 365.427 263.711 368.072 267.279 370.287C271.4 373.055 285.732 381.112 312.611 381.543C315.195 381.666 317.717 381.666 319.931 381.543C320.977 381.543 322.022 381.481 323.068 381.42C323.314 381.42 323.621 381.42 323.867 381.42C327.804 381.174 331.925 380.682 336.538 380.005C346.011 378.59 369.077 372.071 379.41 341.623C381.809 334.611 383.409 326.615 384.208 317.512C384.885 317.942 385.561 318.373 386.238 318.803C386.607 319.049 387.038 319.295 387.345 319.48C387.468 319.48 387.714 319.664 387.837 319.726C389.805 320.833 391.958 321.879 394.173 322.801C397.986 324.708 404.506 326.923 415.824 328.706C425.604 344.022 438.029 353.372 442.642 356.509C444.18 357.616 446.579 359.277 449.716 361.122C453.345 363.275 456.666 365.12 459.803 366.658C460.049 366.781 460.234 366.904 460.48 366.965C463.186 368.257 466.077 369.364 468.661 370.225C481.947 375.084 509.195 382.958 543.148 381.974C557.48 381.974 572.366 380.251 588.481 376.684C601.89 374.469 623.111 365.489 630.738 361.122C634.552 359.092 638.058 356.939 641.256 354.54C651.221 364.751 664.445 372.255 680.93 377.053C681.237 377.176 681.606 377.237 681.914 377.299C684.128 378.037 691.509 380.374 700.92 381.789L702.212 381.974L702.765 382.035L704.18 382.22C704.98 382.343 705.718 382.343 706.518 382.343C708.855 382.527 711.192 382.65 713.407 382.527C727.554 382.035 741.147 378.16 751.911 371.763C754.433 372.809 757.14 373.67 759.969 374.285C760.892 374.592 761.876 374.777 762.86 374.961H763.168C763.537 375.084 763.906 375.146 764.213 375.207C765.813 375.454 767.535 375.7 769.011 375.823C775.1 376.684 783.835 377.852 790.908 378.529C805.24 380.374 827.014 381.174 861.46 381.235H865.027H874.192C918.295 384.372 950.895 380.682 972.853 369.426C976.544 372.194 980.481 374.408 984.725 376.069C986.508 376.745 988.231 377.237 989.707 377.606C990.076 377.729 990.384 377.852 990.753 377.914C996.166 379.452 1009.39 382.835 1018.92 382.281C1019.6 382.281 1020.34 382.281 1021.14 382.22C1025.87 381.974 1030.86 381.112 1035.84 379.698C1051.95 375.146 1064.81 366.043 1073.79 353.187C1075.57 354.602 1077.05 355.647 1078.1 356.324C1079.63 357.431 1082.03 359.092 1085.17 360.937C1092.06 365.058 1100.42 369.61 1110.82 372.009C1118.88 373.916 1127.61 375.823 1137.21 377.114C1145.14 378.775 1155.11 380.62 1166.92 381.358C1165.93 386.033 1165.38 390.831 1165.38 395.752C1165.5 447.42 1218.34 473.623 1263.61 480.327L1269.39 481.188C1270.37 481.311 1271.36 481.434 1272.34 481.557H1273.02C1275.6 482.172 1278.19 482.603 1280.71 482.972L1286.43 483.833C1286.43 483.833 1286.86 483.833 1287.04 483.895C1297.75 485.432 1309.19 486.232 1319.64 486.232C1320.81 486.232 1321.98 486.232 1323.09 486.232C1324.93 486.232 1326.66 486.171 1328.32 486.047C1330.59 485.924 1332.62 485.801 1334.28 485.617C1335.27 485.617 1335.64 485.617 1336.62 485.555C1366.64 483.833 1394.07 473.992 1418.18 456.277C1494.45 403.133 1501.9 301.95 1502.57 287.803C1502.94 284.297 1503.19 281.221 1503.43 278.392C1507.12 246.161 1508.85 208.825 1508.79 160.786C1508.79 144.424 1508.78 127.509 1495.19 114.038L1495.13 114.408Z" fill="white"/>
<path d="M975.499 283.067C975.499 283.067 964.243 265.844 951.387 265.106C936.195 264.245 914.851 269.535 914.851 269.535C911.037 270.396 907.47 271.565 904.271 272.549H904.148C902.733 273.041 901.38 273.471 900.15 273.84C899.904 273.902 899.596 273.963 899.289 274.086C897.567 274.456 896.213 274.763 895.414 274.886C895.168 274.886 894.922 274.948 894.676 275.009C916.265 250.467 934.903 229.246 963.259 197.077L963.382 196.954C979.436 178.316 983.495 160.417 985.463 151.806C985.648 150.883 985.832 150.145 986.017 149.468C988.416 140.427 987.493 132.615 983.311 126.279C980.481 121.974 974.884 116.561 963.997 114.962C963.997 114.962 943.083 110.656 920.325 110.348C920.325 110.348 920.264 110.348 920.202 110.348C903.41 109.487 883.173 109.303 869.949 109.303H868.165C846.944 109.303 818.219 109.672 801.858 111.456H801.12C795.707 111.948 790.602 112.317 785.619 114.593C780.268 116.807 762.553 126.833 763.784 162.324V162.631L763.968 165.092L766.182 171.366L765.813 171.243C765.813 171.243 767.782 190.434 801.12 193.263H801.058H801.366C804.564 193.509 808.009 193.632 811.761 193.571L819.757 193.817H820.126C821.049 193.817 821.971 193.817 823.017 193.817C827.015 193.817 831.505 193.632 836.057 193.325L758.309 283.928C758.309 283.928 752.466 293.769 751.42 298.506C747.361 307.917 745.761 317.574 744.347 323.479C742.317 332.274 743.362 339.779 747.483 345.868C751.359 351.588 757.448 355.156 765.444 356.694C765.444 356.694 765.813 356.817 766.49 356.94C766.675 356.94 766.797 357.001 766.92 357.063C768.028 357.247 769.319 357.37 770.549 357.555C776.208 358.354 785.496 359.585 792.877 360.323C792.939 360.323 793 360.323 793.062 360.323C806.533 362.045 827.815 362.845 861.337 362.906H864.905C868.227 362.906 871.487 362.906 874.685 362.906C884.711 363.644 894.245 364.013 902.918 364.013C946.651 364.013 973.039 354.602 983.495 335.165C993.214 317.205 985.71 296.476 975.499 283.067Z" fill="#481267"/>
<path d="M650.976 217.314C661.125 178.932 633.569 141.166 632.4 139.628L632.277 139.505C625.204 130.155 615.916 123.02 604.598 118.161C604.598 118.161 604.352 118.038 603.983 117.915C600.108 116.254 595.987 114.901 591.681 113.794C582.147 111.026 568.246 107.889 553.36 107.581C553.114 107.581 552.869 107.581 552.684 107.643C550.039 107.52 547.394 107.335 544.626 107.335C541.305 107.335 537.86 107.458 534.354 107.643C505.506 109.242 481.456 117.177 462.757 131.201C441.967 146.886 427.758 170.075 420.562 200.276C419.885 202.737 416.81 213.808 415.149 229.37C413.119 229.555 411.212 229.739 409.244 229.862C406.107 229.924 397.496 230.969 389.991 238.474C382.364 246.162 378.551 257.787 378.674 273.042C378.674 275.564 378.92 278.024 379.473 280.546C379.658 281.53 379.904 282.391 380.089 282.822C380.396 284.114 380.95 285.836 381.688 287.62C382.118 288.542 382.549 289.342 382.795 289.895C383.595 291.372 384.394 292.663 385.317 293.894C385.747 294.509 386.239 295.124 386.793 295.739C387.777 296.907 388.884 298.015 390.053 298.999L390.176 299.122C390.607 299.491 391.037 299.921 391.529 300.291C392.882 301.336 394.297 302.32 395.712 303.181C395.958 303.304 396.204 303.489 396.45 303.612L396.635 303.735C398.234 304.658 399.956 305.457 401.801 306.195C401.863 306.195 407.337 309.578 427.205 311.793C427.205 311.793 427.205 311.793 427.266 311.793C435.57 329.015 450.025 339.472 453.162 341.625C454.146 342.363 456.114 343.716 459.067 345.5C461.835 347.161 464.725 348.76 467.801 350.236C467.801 350.236 467.924 350.298 468.231 350.421C470.323 351.405 472.537 352.266 474.813 353.066C486.377 357.31 511.411 364.691 542.658 363.707C555.882 363.707 569.722 362.107 584.853 358.724C595.74 357.064 616.1 348.452 621.574 345.131C635.476 337.934 643.41 328.277 645.194 316.529C647.163 303.735 641.257 290.141 628.156 277.163C624.65 273.657 620.406 271.381 615.731 270.274C615.731 270.274 607.735 268.367 603.183 268.552C602.814 268.429 602.445 268.367 602.138 268.244C602.261 268.183 602.507 268.06 602.63 267.998C628.956 256.311 645.256 239.335 651.037 217.437L650.976 217.314ZM548.932 181.885C551.946 186.068 554.16 191.726 548.747 196.401C547.702 197.016 546.472 197.631 545.364 198.185C538.045 201.691 524.39 207.165 520.268 208.826C519.899 208.949 519.469 209.072 519.1 209.195C525.743 186.191 537.553 181.7 547.825 180.962C548.255 181.27 548.624 181.577 548.932 181.885Z" fill="#481267"/>
<path d="M271.401 50.6846C263.097 42.3193 252.763 35.7993 240.646 31.0016C239.6 30.571 238.493 30.0789 237.017 29.5869C236.832 29.5253 236.648 29.4638 236.463 29.4023C236.217 29.3408 236.033 29.2793 235.787 29.1563C233.326 28.2952 230.743 27.557 228.037 26.8189C227.606 26.6959 227.237 26.5729 226.806 26.5114C214.689 23.3744 201.095 21.2831 192.792 20.2374C191.008 19.9914 189.163 19.7453 187.317 19.5608C185.78 19.3763 184.857 19.3148 184.857 19.3148C179.198 18.8842 173.355 18.5767 167.204 18.5767C165.42 18.5767 163.636 18.5767 161.852 18.5767C111.353 19.6838 59.6237 25.2197 59.2547 58.3118C59.0701 72.6435 58.8241 97.8008 58.7011 122.528C56.0562 121.974 52.9192 121.543 49.6592 121.543C43.6928 121.543 38.3414 122.897 33.7282 125.603C28.1308 128.863 21.0572 135.752 19.0274 149.961C14.7833 179.608 45.169 200.706 56.6098 207.534L50.5818 260.739C44.0003 306.379 46.9528 331.414 60.7924 347.037C66.8818 353.926 74.878 358.416 84.5965 360.508H84.5349C84.5349 360.508 93.2079 362.476 102.926 363.829C103.111 363.829 103.295 363.829 103.48 363.891C104.403 364.014 105.264 364.137 106.186 364.26C107.294 364.383 108.339 364.506 109.446 364.567C109.692 364.567 110 364.567 110.246 364.629C111.599 364.629 112.952 364.752 114.367 364.752H114.49C117.689 364.752 121.133 364.567 124.639 364.137C134.542 363.029 143.092 357.678 149.427 348.759C164.559 327.416 167.88 289.649 159.392 236.443L165.789 235.213H167.388C170.402 235.213 173.416 235.213 176.307 235.09C253.194 233.429 296.004 194.125 296.804 124.373C297.173 92.8185 288.562 67.9072 271.278 50.4385L271.401 50.6846ZM39.141 139.935C36.3116 142.58 34.4049 146.578 33.6052 152.114C34.4049 146.578 36.2501 142.58 39.141 139.935ZM78.1381 49.5159C77.4615 50.1925 76.7234 50.8691 76.2313 51.6687C76.7849 50.9306 77.4615 50.254 78.1381 49.5159ZM163.206 158.818C161.852 158.818 160.561 158.818 159.207 158.818C157.977 158.818 156.747 158.695 155.517 158.695L156.501 97.0627C164.005 95.9555 172.555 95.2789 180.982 95.0944C181.412 95.0944 181.905 95.0944 182.335 95.0944C184.549 96.0786 186.518 97.2472 187.994 98.7235C192.73 103.521 195.006 112.009 194.883 124.004C194.575 148.239 185.41 158.265 163.144 158.757L163.206 158.818ZM202.756 153.59C204.847 149.961 206.324 145.963 207.431 141.78C206.385 145.963 204.847 149.899 202.756 153.528V153.59ZM209.522 124.188C209.584 118.591 209.153 113.178 208.107 108.134C209.153 113.24 209.584 118.653 209.522 124.188Z" fill="#481267"/>
<path d="M160.068 217.929C237.877 216.269 265.618 175.365 266.294 121.667C266.91 68.3384 240.091 31.6172 162.22 33.278C123.285 34.1391 74.2004 38.1372 73.9544 58.5584C73.8314 67.2312 73.4624 99.7697 73.4008 130.094C95.0522 141.658 112.275 148.608 124.946 152.729C125.315 128.126 125.622 110.964 126.053 82.1165C135.894 79.7176 150.103 77.9339 164.619 77.6263C200.971 76.8267 209.829 99.0931 209.521 124.189C209.214 148.916 199.864 172.597 163.512 173.458C157.177 173.581 150.964 173.458 145.121 172.966C141.246 173.396 136.325 172.72 130.851 171.305C129.19 170.998 127.529 170.752 125.992 170.383C125.992 170.198 125.93 170.075 125.868 169.89C125.868 170.013 125.868 170.198 125.868 170.321C120.763 168.722 97.574 160.849 60.4838 138.275C60.4223 138.275 49.0431 133.723 41.2314 138.275C37.1718 140.673 34.5885 145.348 33.6043 152.114C30.0368 177.272 67.004 196.647 67.373 196.832C85.5798 209.318 120.209 215.592 130.851 217.253C132.081 217.376 133.373 217.437 134.603 217.56C143.153 217.991 151.825 218.052 160.068 217.868" fill="#FF6C0E"/>
<path d="M67.4949 337.441C73.4614 344.146 82.1957 347.467 94.19 347.467C96.8349 347.467 99.6644 347.283 102.678 346.975C108.399 346.299 113.258 343.223 117.194 337.687C134.786 312.776 128.697 260.247 124.207 233.244C107.046 231.83 84.164 227.893 65.9572 217.56C64.2965 232.199 62.9433 244.316 60.852 262.707C55.0086 303.181 56.9768 325.57 67.4949 337.38" fill="#FF6C0E"/>
<path d="M468.907 134.889C468.169 124.617 464.11 116.19 457.282 110.162H457.405C457.405 110.162 456.913 109.67 455.929 108.932C455.806 108.87 455.683 108.747 455.621 108.686C454.822 108.071 453.715 107.333 452.361 106.472C451.992 106.226 451.623 105.98 451.193 105.795C446.641 103.15 439.629 100.075 430.033 98.4138H430.095C430.095 98.4138 429.787 98.3524 429.295 98.2908C426.404 97.8603 423.267 97.5527 419.946 97.4297C415.64 97.1221 410.842 96.8761 407.275 97.1222C403.646 97.2452 399.832 97.6142 395.834 98.2293L393.62 98.5984C391.836 98.9059 390.237 99.2135 388.699 99.5825C386.854 100.013 385.685 100.321 385.685 100.321L383.655 100.874L373.506 104.811C368.462 107.148 363.603 109.978 358.99 113.299C357.206 112.192 355.299 111.392 353.393 110.777C343.551 108.009 336.355 106.902 331.495 106.41C331.495 106.41 331.434 106.41 331.372 106.41C321.223 104.872 298.649 107.394 296.435 107.64C288.439 108.44 282.78 109.855 277.982 112.869C266.357 120.188 265.926 133.29 265.619 142.824C265.496 146.33 265.557 153.649 265.619 163.798V164.475C265.68 189.509 265.865 231.397 263.958 254.094L262.728 268.918C260.821 290.938 259.468 306.931 260.206 319.54C260.39 328.521 261.62 339.777 269.248 348.019C269.678 348.45 270.109 348.942 270.601 349.311C272.692 351.587 275.03 353.432 277.429 354.908C277.429 354.908 288.131 362.781 313.473 363.212C315.564 363.335 317.594 363.273 319.439 363.212C320.362 363.212 321.285 363.15 322.207 363.089C322.207 363.089 322.33 363.089 322.392 363.089C325.836 362.843 329.65 362.474 333.833 361.859C341.398 360.752 355.053 355.892 361.819 335.902C365.818 324.153 367.109 308.592 365.818 288.293L366.556 265.104C369.631 190.124 394.789 188.525 408.382 187.726C408.69 187.726 409.059 187.726 409.366 187.726C413.057 187.603 417.485 188.033 420.991 188.402C423.021 188.71 425.113 188.894 427.204 188.956H428.68C429.172 188.956 429.664 188.956 430.156 188.956C439.69 188.648 449.224 184.158 456.298 176.592C462.941 169.519 470.568 156.54 469.092 135.073L468.907 134.889Z" fill="#481267"/>
<path d="M425.234 113.3C424.373 112.87 423.389 112.439 422.282 112.07C420.99 111.639 419.391 111.393 417.361 111.209C411.702 110.409 405.182 110.532 397.986 111.701L395.894 112.07C394.541 112.316 393.126 112.562 391.773 112.931C390.235 113.3 389.313 113.546 389.313 113.546L387.467 114.1C368.584 120.066 352.161 134.029 341.089 153.281V151.313C341.643 135.505 341.704 127.755 337.399 123.511C333.401 119.574 326.635 119.697 314.087 120.251C282.778 121.727 279.888 122.404 279.211 143.317C279.088 146.638 279.149 154.388 279.211 164.476C279.272 189.695 279.457 232.013 277.55 255.264L276.32 270.149C274.475 291.801 273.121 307.424 273.859 319.111C274.044 328.891 275.705 334.98 279.272 338.855C279.518 339.101 279.764 339.286 280.01 339.47C284.501 344.822 291.451 347.159 302.769 346.79C306.521 346.667 310.765 346.236 315.563 345.56C331.494 343.222 338.321 322.986 335.861 285.773L336.599 261.845C339.736 184.836 366.001 172.841 391.22 171.242C396.325 170.935 402.353 171.488 406.351 171.919C407.889 172.165 409.549 172.288 411.333 172.349H412.563C418.837 172.411 425.234 169.458 430.032 164.292C434.83 159.186 440.304 149.591 439.135 133.106C438.459 123.511 433.784 116.868 425.296 113.423" fill="#FF6C0E"/>
<path d="M461.094 330.366C461.094 330.366 462.755 331.719 466.077 333.626C471.121 336.64 476.472 339.592 482.5 341.007C505.074 346.297 527.894 350.849 566.276 342.299C574.579 341.253 594.631 332.826 598.507 330.428C598.63 330.366 598.753 330.305 598.876 330.243C628.585 314.989 611.977 293.522 602.443 284.049C590.08 271.809 568.798 292.845 538.965 299.488C528.386 301.826 520.144 300.842 513.562 298.504C484.837 306.5 460.11 312.221 445.41 315.419C452.668 325.076 461.094 330.428 461.094 330.428" fill="#FF6C0E"/>
<path d="M495.908 282.944C496.83 282.698 497.814 282.452 498.737 282.206C505.872 280.114 516.267 277.1 525.432 274.455C525.555 274.455 525.678 274.394 525.801 274.332C527.216 273.902 528.692 273.41 530.107 272.918C532.198 272.241 534.228 271.564 536.319 270.888C538.165 270.273 540.071 269.596 541.917 268.981C544.131 268.181 546.345 267.443 548.498 266.582C549.913 266.029 551.389 265.537 552.804 264.983C555.449 263.999 558.032 262.953 560.616 261.907C561.969 261.354 563.322 260.8 564.614 260.247C566.89 259.263 569.165 258.278 571.38 257.233C572.794 256.618 574.148 255.941 575.501 255.326C577.346 254.403 579.13 253.419 580.975 252.62C659.338 217.928 605.333 145.04 605.333 145.04C590.509 125.541 565.413 119.698 535.151 121.358C485.759 124.065 447.315 146.762 433.845 203.843C433.845 203.843 430.831 213.684 429.108 228.446C441.472 226.97 465.706 223.833 486.312 219.958C486.435 218.543 486.558 217.19 486.804 215.775C493.201 178.378 510.731 165.584 531.829 164.476C543.085 163.861 552.619 165.953 559.262 172.965C559.508 173.272 572.364 189.511 560.985 203.412H561.108C555.941 210.732 540.44 216.76 528.938 220.389C517.559 224.571 503.412 228.815 485.636 232.69C485.636 232.69 485.574 232.69 485.512 232.69C474.441 235.274 452.42 239.826 428.063 241.732C428.063 241.732 428.063 241.794 428.063 241.855C422.219 242.47 416.253 243.086 409.979 243.578C409.979 243.578 392.264 242.84 392.449 272.979C392.449 274.763 392.633 276.362 392.941 277.9C393.064 278.392 393.187 278.823 393.31 279.253C393.556 280.237 393.864 281.221 394.294 282.144C394.479 282.575 394.725 283.005 394.971 283.436C395.401 284.235 395.893 285.035 396.385 285.712C396.631 286.081 396.939 286.45 397.246 286.757C397.862 287.495 398.538 288.11 399.215 288.787C399.522 289.033 399.768 289.279 400.076 289.525C400.999 290.263 401.983 290.878 402.967 291.493C403.09 291.555 403.213 291.678 403.336 291.74C405.735 293.093 408.441 294.077 411.148 294.815C411.394 294.876 411.701 294.938 411.947 295C413.054 295.246 414.162 295.492 415.269 295.738C415.638 295.799 415.945 295.861 416.314 295.922C417.36 296.107 418.406 296.23 419.451 296.353C419.82 296.353 420.128 296.414 420.497 296.476C421.543 296.599 422.588 296.66 423.634 296.66C423.942 296.66 424.188 296.66 424.495 296.66C425.664 296.66 426.833 296.66 427.878 296.66C428.001 296.66 428.063 296.66 428.186 296.66C429.293 296.66 430.4 296.66 431.384 296.599C462.631 293.769 495.539 282.944 495.539 282.944H495.908Z" fill="#FF6C0E"/>
<path d="M786.848 101.06C784.511 98.4765 780.82 95.5855 775.469 93.8633C771.532 92.264 766.488 90.8493 760.091 89.9882H759.661C757.877 89.6806 756.032 89.4346 753.941 89.4346C753.571 89.4346 753.141 89.4346 752.71 89.4346L753.325 80.0237C754.679 59.9101 755.355 49.761 747.728 41.5803C747.728 41.5803 737.333 28.6633 707.87 32.1693C707.316 32.1693 706.763 32.2923 706.209 32.3538C705.656 32.4154 705.102 32.4769 704.548 32.5384C704.425 32.5384 704.302 32.5384 704.241 32.5384C682.159 35.7369 656.633 48.0387 649.621 97.3078C624.156 99.6451 617.943 119.082 617.267 135.198L616.713 143.686C615.79 154.942 618.251 163.923 624.156 170.381C629.015 175.732 635.658 178.623 643.716 179.177C643.962 179.3 644.146 179.484 644.454 179.546C644.146 186.312 643.839 193.139 643.531 200.152C642.731 217.805 641.932 236.135 640.825 255.756V256.433V257.109C640.886 260.738 640.271 266.028 639.656 271.626C636.765 296.66 631.291 343.161 686.034 359.092C686.526 359.215 687.018 359.276 687.572 359.399C687.572 359.399 694.461 361.921 703.933 363.336C704.302 363.336 704.61 363.459 704.979 363.459C705.471 363.521 705.963 363.582 706.517 363.705V363.582C708.178 363.767 709.715 363.951 711.315 363.951C711.868 363.951 712.36 363.951 712.914 363.951C725.892 363.521 738.563 359.338 746.805 352.879C764.09 339.224 771.409 311.053 762.798 291.309C759.845 284.542 754.802 278.884 747.297 274.024C746.19 273.286 744.899 272.056 743.73 270.518C741.762 268.058 740.839 265.044 741.023 262.276V261.784C742.992 231.952 744.837 203.473 746.805 176.224C747.79 176.101 748.712 175.978 749.881 175.794C751.849 175.486 754.802 175.056 761.322 174.195C787.217 170.996 793.429 153.097 794.045 138.519L794.598 130.092C795.767 117.175 793.306 107.58 787.156 100.752L786.848 101.06Z" fill="#481267"/>
<path d="M648.946 163.43C653.99 163.123 656.45 162.938 661.494 162.63C659.956 191.909 658.911 222.418 656.942 257.047C657.496 280.975 638.551 328.767 690.465 343.899C693.786 344.883 697.293 345.375 700.737 345.252C711.686 344.883 720.543 341.254 725.156 337.625C737.212 328.091 741.702 307.485 736.351 295.122C734.444 290.755 730.815 287.495 726.817 284.911C723.865 283.004 721.343 280.421 719.374 277.899C715.069 272.363 712.793 265.474 713.223 258.462C713.223 258.462 713.223 258.401 713.223 258.339C715.499 223.402 717.652 190.187 720.051 158.694C738.135 157.464 729.462 157.894 747.607 155.618C754.988 154.696 765.506 152.604 766.245 135.136C766.429 132.183 766.614 129.292 766.798 126.34C768.705 106.411 759.171 105.058 750.867 105.796C733.645 107.395 741.272 106.103 723.68 108.871C724.357 98.4762 724.664 93.3094 725.341 82.9143C727.494 49.6992 728.847 47.0543 713.1 48.1614C692.864 49.5147 667.891 56.2192 664.262 112.439C664.262 112.623 664.262 112.685 664.262 112.869C659.403 113.177 657.004 113.361 652.144 113.669C643.841 114.223 634.122 116.621 633.384 136.427C633.2 139.38 633.015 142.332 632.769 145.346C631.231 162.877 641.442 163.984 648.885 163.553" fill="#FF6C0E"/>
<path d="M941.485 288.479C933.242 277.654 918.849 282.205 908.393 285.527C906.793 286.019 905.317 286.511 903.902 286.942C893.446 289.956 849.466 295.061 849.343 295.061C843.746 294.938 838.395 294.753 833.536 294.569C871.241 251.697 891.109 229.061 929.859 185.082C943.699 168.967 947.082 153.958 948.927 145.839C949.173 144.732 949.358 143.809 949.604 143.01C950.957 137.843 950.711 133.845 948.743 130.831C946.897 128.001 943.576 126.217 938.84 125.541C923.093 123.204 885.388 122.896 869.949 122.896C852.357 122.896 820.311 123.081 803.15 124.987H802.227C797.43 125.418 793.924 125.725 791.094 127.079C789.987 127.448 776.516 132.861 777.562 161.77L777.747 163.923H777.808C778.608 169.889 782.36 174.01 788.818 175.917C795.215 179.239 828.615 175.425 838.702 174.195C853.219 173.088 869.273 172.042 877.023 171.796L875.3 173.949C835.258 219.343 814.345 243.085 773.379 289.587C766.798 297.091 760.278 315.728 757.756 326.615C756.587 331.597 756.956 335.411 758.863 338.24C760.77 341.07 764.092 342.792 768.951 343.53C781.499 345.437 802.842 346.298 838.21 346.36C842.885 346.36 847.56 346.36 852.05 346.36C862.014 347.098 871.302 347.467 879.791 347.467C917.557 347.467 940.562 340.209 948.374 325.816C956.923 310.069 944.13 291.985 941.485 288.541" fill="#FF6C0E"/>
<path d="M1064.81 266.89L1064.56 265.844C1063.76 261.969 1063.02 258.278 1062.59 255.695C1057.67 225.432 1060.01 204.458 1062.72 180.223C1063.95 169.028 1065.24 157.403 1065.85 144.24C1065.98 141.41 1066.22 136.49 1066.22 136.49C1068.07 99.338 1069.73 67.2301 1052.75 50.807C1052.32 50.3765 1051.83 50.0074 1051.4 49.5768H1051.46C1051.46 49.5768 1042.54 39.1202 1015.48 38.5667H1014.68C1014.25 38.5667 1013.88 38.5667 1013.51 38.5667C1011.48 38.5667 1009.33 38.6897 1007.11 38.9972C1006.87 38.9972 1006.62 39.1202 1006.37 39.1202H1006.07C1006.07 39.1202 1006.07 39.1202 1006.01 39.1818C985.892 42.7493 976.42 67.7221 971.13 86.3595C960.181 124.741 952.8 198.983 953.107 220.204L952.984 221.25C948.802 268.55 950.524 307.178 972.544 341.808C976.666 348.267 982.078 355.402 991.243 359.031C992.596 359.584 994.073 359.892 995.611 360.261V360.384C995.611 360.384 1010.8 364.69 1018 364.075C1018.68 364.075 1019.29 364.075 1019.97 364.075C1023.35 363.89 1026.92 363.275 1030.61 362.229C1049 357.001 1070.65 341.562 1069.48 297.521C1069.24 289.402 1066.96 278.023 1064.75 267.013L1064.81 266.89Z" fill="#481267"/>
<path d="M1036.58 266.768C1038.61 276.732 1040.88 287.989 1041.07 294.939C1041.81 323.295 1032.09 340.456 1012.16 346.115C1009.45 346.853 1006.93 347.345 1004.53 347.468C1001.46 347.591 998.75 347.222 996.351 346.3C990.877 344.147 987.309 339.411 984.234 334.551C964.305 303.12 962.829 267.075 966.765 222.481C966.888 222.481 966.95 222.481 967.011 222.481C965.658 210.61 972.854 130.463 984.357 90.1743C991.184 66.1856 999.304 53.8838 1009.02 52.5306C1017.26 51.4234 1023.78 53.2072 1028.52 57.7589C1041.07 69.8762 1039.47 100.569 1037.87 132.985C1037.69 136.06 1037.62 137.598 1037.5 140.674C1036.89 153.406 1035.59 164.847 1034.43 175.857C1031.72 200.092 1029.2 222.912 1034.43 255.02C1034.92 258.095 1035.78 262.216 1036.7 266.768" fill="#FF6C0E"/>
<path d="M1238.08 267.875C1264.41 256.188 1280.71 239.212 1286.49 217.314C1296.64 178.932 1269.08 141.166 1267.91 139.628L1267.79 139.505C1260.65 130.155 1251.43 123.02 1240.11 118.161C1240.11 118.161 1239.86 118.038 1239.5 117.915C1235.62 116.254 1231.5 114.901 1227.19 113.794C1217.66 111.026 1203.76 107.889 1188.81 107.581C1188.57 107.581 1188.38 107.581 1188.14 107.643C1185.49 107.52 1182.85 107.335 1180.02 107.335C1176.69 107.335 1173.25 107.458 1169.74 107.643C1140.9 109.242 1116.85 117.177 1098.15 131.201C1077.36 146.886 1063.15 170.075 1055.95 200.276C1055.27 202.737 1052.2 213.808 1050.6 229.37C1050.48 229.37 1050.42 229.37 1050.42 229.37C1048.51 229.555 1046.6 229.739 1044.7 229.862C1041.56 229.924 1032.95 230.969 1025.44 238.474C1017.82 246.162 1014 257.787 1014.12 273.042C1014.12 275.564 1014.37 278.024 1014.92 280.546C1015.11 281.53 1015.36 282.391 1015.54 282.822C1015.85 284.114 1016.4 285.836 1017.14 287.62C1017.57 288.542 1018 289.342 1018.25 289.895C1019.05 291.372 1019.85 292.663 1020.77 293.894C1021.2 294.509 1021.69 295.124 1022.24 295.739C1023.23 296.907 1024.34 298.015 1025.5 298.999L1025.63 299.122C1026.06 299.491 1026.49 299.921 1026.98 300.291C1028.33 301.336 1029.75 302.32 1031.16 303.181C1031.41 303.304 1031.66 303.489 1031.9 303.612L1032.09 303.735C1035.28 305.519 1038.97 306.995 1043.1 308.102C1043.4 308.164 1043.65 308.225 1043.96 308.287H1044.14C1045.56 308.717 1046.97 309.025 1048.32 309.209C1048.75 309.271 1049.19 309.332 1049.62 309.455C1050.97 309.64 1052.26 309.824 1053.49 309.947L1054.72 310.071C1055.52 310.132 1056.38 310.194 1057.24 310.255C1057.92 310.44 1058.53 310.747 1059.21 310.932C1059.52 310.993 1059.76 311.055 1060.07 311.116H1060.26C1061.06 311.362 1061.86 311.485 1062.66 311.67C1070.96 328.892 1085.41 339.349 1088.55 341.502C1089.54 342.24 1091.5 343.593 1094.46 345.377C1100.36 348.944 1106.94 352.45 1114.75 354.296C1122.81 356.203 1130.93 357.863 1139.67 359.094C1151.35 361.615 1163.47 363.584 1178.05 363.584C1191.27 363.584 1205.11 361.984 1220.24 358.601C1231.13 356.941 1251.49 348.329 1256.96 345.008C1270.87 337.811 1278.8 328.154 1280.58 316.406C1282.55 303.612 1276.65 290.018 1263.55 277.04C1260.35 273.903 1256.6 271.689 1252.41 270.458C1245.34 267.137 1240.36 267.444 1237.65 268.121C1237.59 268.121 1237.53 268.121 1237.4 268.06C1237.59 267.998 1237.77 267.875 1237.9 267.814L1238.08 267.875ZM1184.38 181.885C1187.4 186.068 1189.61 191.726 1184.2 196.401C1182.48 197.385 1180.57 198.369 1178.54 199.415C1168.58 204.151 1154.98 208.703 1154.67 208.826C1161.38 186.191 1173.13 181.762 1183.28 180.962C1183.71 181.27 1184.08 181.577 1184.38 181.885Z" fill="#481267"/>
<path d="M1096.61 330.366C1096.61 330.366 1098.27 331.719 1101.59 333.626C1106.64 336.64 1111.99 339.592 1118.02 341.007C1140.59 346.297 1163.41 350.849 1201.79 342.299C1210.1 341.253 1230.15 332.826 1234.02 330.428C1234.15 330.366 1234.27 330.305 1234.39 330.243C1264.1 314.989 1247.49 293.522 1237.96 284.049C1225.6 271.809 1204.31 292.845 1174.48 299.488C1163.9 301.826 1155.66 300.842 1149.08 298.504C1120.35 306.5 1095.63 312.221 1080.93 315.419C1088.18 325.076 1096.61 330.428 1096.61 330.428" fill="#FF6C0E"/>
<path d="M1131.36 282.944C1132.29 282.698 1133.27 282.452 1134.19 282.206C1141.33 280.114 1151.72 277.1 1160.89 274.455C1161.01 274.455 1161.13 274.394 1161.26 274.332C1162.67 273.902 1164.15 273.41 1165.56 272.918C1167.65 272.241 1169.68 271.564 1171.77 270.888C1173.62 270.273 1175.53 269.596 1177.37 268.981C1179.59 268.181 1181.8 267.443 1183.95 266.582C1185.37 266.029 1186.84 265.537 1188.26 264.983C1190.9 263.999 1193.49 262.953 1196.07 261.907C1197.42 261.354 1198.78 260.8 1200.07 260.247C1202.34 259.263 1204.62 258.278 1206.83 257.233C1208.25 256.618 1209.6 255.941 1210.96 255.326C1212.8 254.403 1214.58 253.419 1216.43 252.62C1294.79 217.928 1240.79 145.04 1240.79 145.04C1225.96 125.541 1200.87 119.698 1170.61 121.358C1121.21 124.065 1082.77 146.762 1069.3 203.843C1069.3 203.843 1066.29 213.684 1064.56 228.446C1076.93 226.97 1101.16 223.833 1121.77 219.958C1121.89 218.543 1122.01 217.19 1122.26 215.775C1128.66 178.378 1146.19 165.584 1167.28 164.476C1178.54 163.861 1188.07 165.953 1194.72 172.965C1194.96 173.272 1207.82 189.511 1196.44 203.412H1196.56C1191.4 210.732 1175.9 216.76 1164.39 220.389C1153.01 224.571 1138.87 228.815 1121.09 232.69C1121.09 232.69 1121.03 232.69 1120.97 232.69C1109.9 235.274 1087.88 239.826 1063.52 241.732C1063.52 241.732 1063.52 241.794 1063.52 241.855C1057.67 242.47 1051.71 243.086 1045.43 243.578C1045.43 243.578 1027.72 242.84 1027.9 272.979C1027.9 274.763 1028.09 276.362 1028.4 277.9C1028.52 278.392 1028.64 278.823 1028.76 279.253C1029.01 280.237 1029.32 281.221 1029.75 282.144C1029.93 282.575 1030.18 283.005 1030.43 283.436C1030.86 284.235 1031.35 285.035 1031.84 285.712C1032.09 286.081 1032.39 286.45 1032.7 286.757C1033.32 287.495 1033.99 288.11 1034.67 288.787C1034.98 289.033 1035.22 289.279 1035.53 289.525C1036.45 290.263 1037.44 290.878 1038.42 291.493C1038.54 291.555 1038.67 291.678 1038.79 291.74C1041.19 293.093 1043.9 294.077 1046.6 294.815C1046.85 294.876 1047.16 294.938 1047.4 295C1048.51 295.246 1049.62 295.492 1050.72 295.738C1051.09 295.799 1051.4 295.861 1051.77 295.922C1052.81 296.107 1053.86 296.23 1054.91 296.353C1055.28 296.353 1055.58 296.414 1055.95 296.476C1057 296.599 1058.04 296.66 1059.09 296.66C1059.4 296.66 1059.64 296.66 1059.95 296.66C1061.12 296.66 1062.29 296.66 1063.33 296.66C1063.46 296.66 1063.52 296.66 1063.64 296.66C1064.75 296.66 1065.86 296.66 1066.84 296.599C1098.09 293.769 1130.99 282.944 1130.99 282.944H1131.36Z" fill="#FF6C0E"/>
<path d="M1482.09 127.57C1478.52 124.064 1474.22 122.096 1469.23 120.989C1453 116.191 1432.64 116.99 1432.64 116.99C1431.16 116.99 1429.62 116.99 1428.02 116.99C1427.1 116.99 1426.18 116.99 1425.32 116.99C1414.55 117.175 1401.08 117.421 1393.27 128.37C1387.37 136.612 1387.12 147.438 1387.12 164.414V188.526C1387.12 210.854 1384.66 235.95 1380.48 255.571C1378.82 263.444 1377.03 269.595 1375.37 274.393C1374.39 270.764 1373.34 266.581 1372.42 261.538C1368.91 243.146 1366.94 218.85 1366.94 193.139V169.027C1366.94 151.374 1366.94 138.58 1358.33 130.215C1356.06 128.001 1353.54 126.463 1350.89 125.417H1350.95C1332.44 117.298 1303.9 120.804 1303.9 120.804C1290.37 121.542 1279.54 122.649 1272.16 129.723C1263.61 137.904 1263.55 149.344 1263.49 163.861C1263.3 195.722 1263.12 243.884 1271.73 285.834C1282.92 340.393 1306.6 369.794 1342.16 373.177C1343.39 373.3 1344.68 373.362 1345.91 373.3C1346.09 373.3 1346.22 373.3 1346.4 373.3C1346.52 373.3 1346.58 373.3 1346.71 373.362C1343.63 375.145 1340.25 376.56 1336.56 377.729H1336.37C1334.96 378.221 1333.61 378.651 1332.31 378.959L1328.19 379.636C1327.15 379.82 1326.04 379.943 1324.93 380.066C1320.2 380.62 1316.26 380.374 1313.31 379.82C1305.07 377.175 1297.81 373.423 1291.78 368.195C1281.32 359.153 1271.73 354.54 1263.61 352.264C1263.49 352.264 1263.42 352.202 1263.3 352.141C1256.9 349.988 1247.06 349.742 1247.06 349.742C1241.4 348.143 1236.48 347.651 1232.48 347.712C1229.96 347.712 1227.44 348.02 1224.98 348.512C1200.44 353.248 1183.95 372.316 1184.02 395.936C1184.08 435.855 1228.49 456.584 1266.44 462.243L1272.16 463.104C1273.39 463.288 1274.74 463.411 1275.97 463.596C1278.49 464.088 1281.02 464.519 1283.48 464.888L1289.2 465.749C1300.27 467.348 1312.2 468.148 1322.9 467.963C1324.5 467.963 1326.04 467.902 1327.52 467.84C1329.49 467.717 1331.21 467.594 1332.75 467.471C1332.99 467.471 1333.18 467.471 1333.36 467.41C1333.79 467.41 1334.16 467.41 1334.59 467.41C1334.96 467.41 1335.27 467.41 1335.7 467.41C1362.15 465.933 1386.32 457.199 1407.48 441.576C1478.52 392.245 1483.87 293.83 1484.18 286.818C1484.55 283.127 1484.86 279.99 1485.04 277.038C1488.67 245.484 1490.33 208.639 1490.33 161.154C1490.33 146.884 1490.33 135.628 1482.21 127.632L1482.09 127.57Z" fill="#481267"/>
<path d="M1459.39 158.511C1459.39 131.631 1458.22 130.401 1428.21 130.708C1402.37 131.016 1400.84 132.984 1400.84 164.477C1400.84 174.134 1400.84 178.932 1400.84 188.589C1400.84 235.028 1390.26 303.857 1367.25 304.596C1344.37 305.334 1336.19 243.701 1336.13 190.619C1336.13 180.962 1336.13 176.164 1336.13 166.507C1336.13 134.707 1334.84 133.107 1308.69 134.399C1278.31 135.937 1277.26 137.351 1277.14 164.047C1276.83 227.34 1276.52 353.25 1343.39 359.647C1351.69 360.446 1365.84 355.956 1379.92 333.567C1379.92 333.567 1384.47 327.723 1384.23 332.459C1383.49 339.225 1381.77 349.62 1376.66 360.139C1376.54 360.446 1376.29 360.692 1376.17 361.061C1375.68 362.045 1375.12 363.03 1374.57 364.014C1366.57 378.407 1354.52 386.157 1342.77 390.217C1337.66 391.816 1331.33 393.108 1329.85 393.415C1321.67 394.707 1314.72 394.584 1310.85 394.338C1310.6 394.338 1310.29 394.338 1310.05 394.338C1309.56 394.338 1309.06 394.215 1308.63 394.153C1308.02 394.092 1307.59 394.03 1307.59 394.03C1294.12 392.185 1278.74 387.387 1265.64 376.07C1250.75 363.214 1237.47 360.139 1227.38 362.107C1208.31 365.797 1197.48 380.068 1197.48 396.06C1197.48 425.462 1232.73 443.545 1268.22 448.835H1268.34C1283.54 451.48 1299.16 452.157 1309.62 451.603C1311.28 451.542 1312.75 451.419 1314.17 451.296C1314.35 451.296 1314.54 451.296 1314.91 451.173C1315.4 451.173 1315.64 451.173 1316.08 451.173C1316.63 451.173 1317.18 451.173 1317.74 451.173C1342.77 449.758 1364.24 441.27 1382.32 427.86C1449.8 381.175 1453.3 283.498 1453.3 283.498C1453.67 280.053 1453.98 276.609 1454.23 273.226C1457.85 242.102 1459.45 205.688 1459.45 158.634L1459.39 158.511Z" fill="#FF6C0E"/>
</svg>
