<svg width="292" height="289" viewBox="0 0 292 289" fill="none" xmlns="http://www.w3.org/2000/svg">
<path d="M31.0508 289C22.3738 289 15.0294 286.025 9.01765 280.075C3.00588 274.125 0 266.856 0 258.268V30.7317C0 22.1439 3.00588 14.875 9.01765 8.925C15.0294 2.975 22.3738 0 31.0508 0H146.163V25.5H31.0508C29.7282 25.5 28.5172 26.0454 27.4179 27.1362C26.3158 28.2242 25.7647 29.4227 25.7647 30.7317V258.268C25.7647 259.577 26.3158 260.776 27.4179 261.864C28.5172 262.955 29.7282 263.5 31.0508 263.5H146.163V289H31.0508ZM218.669 217.077L200.832 198.637L242.652 157.25H96.1238V131.75H242.652L200.832 90.3635L218.669 71.9227L292 144.5L218.669 217.077Z" fill="#E8EAED"/>
</svg>
