<svg width="128" height="120" viewBox="0 0 128 120" fill="none" xmlns="http://www.w3.org/2000/svg">
<path d="M64 120L0 24.6567C9.14817 17.2153 19.1306 11.2457 29.9474 6.74813C40.7642 2.24938 52.115 0 64 0C75.885 0 87.2358 2.22096 98.0526 6.66288C108.869 11.1037 118.852 17.1016 128 24.6567L64 120ZM64 101.614L114.092 26.9379C106.659 21.8231 98.7102 17.7597 90.2471 14.7477C81.784 11.7356 73.0349 10.2296 64 10.2296C54.9651 10.2296 46.2446 11.7356 37.8387 14.7477C29.4328 17.7597 21.4557 21.8231 13.9075 26.9379L64 101.614ZM44.5943 42.3608C46.9743 42.3608 49.0003 41.5327 50.6723 39.8767C52.3432 38.2206 53.1787 36.2099 53.1787 33.8446C53.1787 31.4782 52.3455 29.4647 50.6792 27.8041C49.0129 26.1423 46.9897 25.3114 44.6098 25.3114C42.2286 25.3114 40.2026 26.1395 38.5318 27.7955C36.8597 29.4516 36.0237 31.4628 36.0237 33.8293C36.0237 36.1946 36.8569 38.2081 38.5232 39.8699C40.1895 41.5305 42.2132 42.3608 44.5943 42.3608ZM63.9914 76.722C66.3725 76.722 68.3985 75.894 70.0694 74.2379C71.7415 72.5818 72.5775 70.5712 72.5775 68.2058C72.5775 65.8394 71.7443 63.8259 70.078 62.1653C68.4117 60.5035 66.3885 59.6727 64.0086 59.6727C61.6275 59.6727 59.6015 60.5007 57.9306 62.1567C56.2585 63.8128 55.4225 65.8235 55.4225 68.1888C55.4225 70.5552 56.2557 72.5688 57.922 74.2294C59.5883 75.8911 61.6115 76.722 63.9914 76.722Z" fill="#E8EAED"/>
</svg>
