<svg width="101" height="103" viewBox="0 0 101 103" fill="none" xmlns="http://www.w3.org/2000/svg">
<path d="M21.0942 43.0037L47.7299 0L74.3657 43.0037H21.0942ZM78.2008 103C71.8435 103 66.4543 100.824 62.0332 96.4713C57.6122 92.1189 55.4017 86.8133 55.4017 80.5546C55.4017 74.2959 57.6122 68.9903 62.0332 64.6378C66.4543 60.2854 71.8435 58.1091 78.2008 58.1091C84.5582 58.1091 89.9474 60.2854 94.3684 64.6378C98.7895 68.9903 101 74.2959 101 80.5546C101 86.8133 98.7895 92.1189 94.3684 96.4713C89.9474 100.824 84.5582 103 78.2008 103ZM0 100.273V60.8362H40.0582V100.273H0ZM78.1994 94.82C82.2558 94.82 85.6851 93.441 88.4875 90.683C91.2899 87.925 92.6911 84.5493 92.6911 80.5559C92.6911 76.5625 91.2904 73.1864 88.4889 70.4275C85.6874 67.6685 82.2585 66.2891 78.2022 66.2891C74.1459 66.2891 70.7165 67.6681 67.9141 70.4261C65.1117 73.1841 63.7105 76.5598 63.7105 80.5532C63.7105 84.5466 65.1113 87.9228 67.9127 90.6817C70.7142 93.4406 74.1431 94.82 78.1994 94.82ZM8.30887 92.0929H31.7493V69.0162H8.30887V92.0929ZM35.7549 34.8238H59.705L47.7299 15.8595L35.7549 34.8238Z" fill="#E8EAED"/>
</svg>
