<svg width="286" height="289" viewBox="0 0 286 289" fill="none" xmlns="http://www.w3.org/2000/svg">
<path d="M107.878 289L102.083 242.665C98.0068 241.301 93.8266 239.391 89.5424 236.934C85.2607 234.475 81.4318 231.843 78.0557 229.036L35.1184 247.171L0 186.329L37.1388 158.277C36.7887 156.016 36.5401 153.744 36.393 151.463C36.2459 149.181 36.1723 146.908 36.1723 144.644C36.1723 142.482 36.2459 140.284 36.393 138.051C36.5401 135.817 36.7887 133.375 37.1388 130.723L0 102.671L35.1184 42.1218L77.9073 60.112C81.5777 57.2068 85.4954 54.55 89.6604 52.1417C93.8254 49.7333 97.9181 47.7978 101.938 46.3351L107.878 0H178.122L183.917 46.4796C188.483 48.1375 192.613 50.0731 196.309 52.2862C200.007 54.4993 203.74 57.1079 207.507 60.112L250.882 42.1218L286 102.671L248.275 131.16C248.821 133.617 249.119 135.914 249.169 138.051C249.218 140.185 249.242 142.335 249.242 144.5C249.242 146.566 249.192 148.668 249.093 150.805C248.997 152.939 248.647 155.382 248.043 158.132L285.475 186.329L250.353 247.171L207.507 228.888C203.74 231.892 199.896 234.549 195.974 236.858C192.053 239.17 188.034 241.058 183.917 242.52L178.122 289H107.878ZM127.781 266.184H157.694L163.165 225.439C170.932 223.411 178.03 220.53 184.457 216.796C190.887 213.059 197.088 208.256 203.059 202.387L240.871 218.271L255.858 192.413L222.844 167.552C224.112 163.612 224.975 159.75 225.431 155.965C225.89 152.183 226.12 148.361 226.12 144.5C226.12 140.54 225.89 136.719 225.431 133.035C224.975 129.349 224.112 125.584 222.844 121.741L256.147 96.5868L241.164 70.7289L202.911 86.8445C197.817 81.4042 191.716 76.5977 184.606 72.4249C177.493 68.2522 170.298 65.2975 163.021 63.561L158.219 22.8158H128.017L122.979 63.4165C115.215 65.2494 108.045 68.057 101.47 71.8393C94.8932 75.6242 88.6191 80.4992 82.6481 86.4642L44.8359 70.7289L29.8525 96.5868L62.7185 121.068C61.4502 124.678 60.5624 128.433 60.0551 132.332C59.5478 136.231 59.2942 140.335 59.2942 144.644C59.2942 148.604 59.5478 152.486 60.0551 156.288C60.5624 160.091 61.402 163.845 62.5739 167.552L29.8525 192.413L44.8359 218.271L82.5035 202.3C88.2792 208.227 94.4544 213.083 101.029 216.868C107.606 220.65 114.875 223.555 122.834 225.584L127.781 266.184ZM143.175 190.132C155.837 190.132 166.613 185.69 175.501 176.807C184.389 167.924 188.833 157.155 188.833 144.5C188.833 131.845 184.389 121.076 175.501 112.193C166.613 103.31 155.837 98.8684 143.175 98.8684C130.355 98.8684 119.541 103.31 110.731 112.193C101.922 121.076 97.5173 131.845 97.5173 144.5C97.5173 157.155 101.922 167.924 110.731 176.807C119.541 185.69 130.355 190.132 143.175 190.132Z" fill="#E8EAED"/>
</svg>
