<svg width="118" height="118" viewBox="0 0 118 118" fill="none" xmlns="http://www.w3.org/2000/svg">
<path d="M54.6045 101.28H63.085V93.7557C67.9023 93.1025 72.2636 91.2927 76.169 88.3261C80.0744 85.3606 82.0271 80.8642 82.0271 74.8368C82.0271 70.4895 80.7451 66.6436 78.1812 63.2992C75.6173 59.9559 70.609 56.9386 63.1564 54.2474C56.6271 52.0178 52.2916 50.0869 50.15 48.4545C48.0084 46.8222 46.9376 44.5409 46.9376 41.6105C46.9376 38.6802 48.0343 36.2995 50.2276 34.4684C52.421 32.6374 55.4486 31.7218 59.3105 31.7218C62.5431 31.7218 65.1505 32.4842 67.1327 34.0088C69.1159 35.5335 70.6411 37.4464 71.7083 39.7474L79.3752 36.6654C78.0772 33.3614 75.9615 30.533 73.028 28.1803C70.0935 25.8275 66.8827 24.5155 63.3955 24.2443V16.7203H54.915V24.2443C49.6206 25.2639 45.5542 27.4117 42.716 30.6878C39.8768 33.9649 38.4571 37.6058 38.4571 41.6105C38.4571 46.2767 39.8705 50.031 42.6974 52.8733C45.5242 55.7157 50.1303 58.2832 56.5158 60.5759C63.1165 62.997 67.6254 65.1691 70.0423 67.0923C72.4582 69.0145 73.6662 71.596 73.6662 74.8368C73.6662 78.7308 72.261 81.5592 69.4508 83.322C66.6395 85.0858 63.4664 85.9677 59.9316 85.9677C56.4361 85.9677 53.3091 84.917 50.5506 82.8158C47.791 80.7136 45.6707 77.6399 44.1894 73.5947L36.3316 76.7963C37.9401 81.4055 40.2509 85.0676 43.2641 87.7827C46.2783 90.4977 50.0584 92.3852 54.6045 93.4451V101.28ZM59 118C50.8466 118 43.1813 116.449 36.004 113.348C28.8256 110.247 22.581 106.041 17.2699 100.73C11.9589 95.419 7.75281 89.1744 4.65169 81.996C1.55056 74.8187 0 67.1534 0 59C0 50.8466 1.55056 43.1813 4.65169 36.004C7.75281 28.8256 11.9589 22.581 17.2699 17.2699C22.581 11.9589 28.8256 7.75281 36.004 4.65169C43.1813 1.55056 50.8466 0 59 0C67.1534 0 74.8187 1.55056 81.996 4.65169C89.1744 7.75281 95.419 11.9589 100.73 17.2699C106.041 22.581 110.247 28.8256 113.348 36.004C116.449 43.1813 118 50.8466 118 59C118 67.1534 116.449 74.8187 113.348 81.996C110.247 89.1744 106.041 95.419 100.73 100.73C95.419 106.041 89.1744 110.247 81.996 113.348C74.8187 116.449 67.1534 118 59 118ZM59 108.684C72.8702 108.684 84.6184 103.871 94.2447 94.2447C103.871 84.6184 108.684 72.8702 108.684 59C108.684 45.1298 103.871 33.3816 94.2447 23.7553C84.6184 14.1289 72.8702 9.31579 59 9.31579C45.1298 9.31579 33.3816 14.1289 23.7553 23.7553C14.1289 33.3816 9.31579 45.1298 9.31579 59C9.31579 72.8702 14.1289 84.6184 23.7553 94.2447C33.3816 103.871 45.1298 108.684 59 108.684Z" fill="#E8EAED"/>
</svg>
