<svg width="44" height="49" viewBox="0 0 44 49" fill="none" xmlns="http://www.w3.org/2000/svg">
<g filter="url(#filter0_ddiii_928_6243)">
<rect x="3" width="38" height="43" rx="11.2381" fill="#E3663F"/>
<rect x="3.93651" y="0.936508" width="36.127" height="41.127" rx="10.3016" stroke="url(#paint0_linear_928_6243)" stroke-width="1.87302"/>
<path opacity="0.5" d="M22.0005 11.5957C16.5302 11.5957 12.0957 16.0302 12.0957 21.5005C12.0957 26.9707 16.5302 31.4052 22.0005 31.4052C26.9082 31.4052 30.9823 27.8357 31.7682 23.1512H31.6972C30.9642 25.9992 28.3788 28.1036 25.302 28.1036C21.6552 28.1036 18.6988 25.1472 18.6988 21.5005C18.6988 17.8536 21.6552 14.8973 25.302 14.8973C28.3788 14.8973 30.9642 17.0017 31.6972 19.8496H31.7682C30.9823 15.1652 26.9082 11.5957 22.0005 11.5957Z" fill="url(#paint1_linear_928_6243)"/>
<path d="M12.0957 21.5005C12.0957 16.0302 16.5302 11.5957 22.0005 11.5957C26.9082 11.5957 30.9823 15.1652 31.7682 19.8496H25.094C24.361 17.0017 21.7757 14.8973 18.6988 14.8973C15.0521 14.8973 12.0957 17.8536 12.0957 21.5005Z" fill="url(#paint2_linear_928_6243)"/>
<path d="M12.0957 21.5C12.0957 26.9702 16.5302 31.4047 22.0005 31.4047C26.9082 31.4047 30.9823 27.8352 31.7682 23.1508H25.094C24.361 25.9988 21.7757 28.1031 18.6988 28.1031C15.0521 28.1031 12.0957 25.1468 12.0957 21.5Z" fill="url(#paint3_linear_928_6243)"/>
</g>
<defs>
<filter id="filter0_ddiii_928_6243" x="0.190477" y="-2.80952" width="43.619" height="51.4286" filterUnits="userSpaceOnUse" color-interpolation-filters="sRGB">
<feFlood flood-opacity="0" result="BackgroundImageFix"/>
<feColorMatrix in="SourceAlpha" type="matrix" values="0 0 0 0 0 0 0 0 0 0 0 0 0 0 0 0 0 0 127 0" result="hardAlpha"/>
<feOffset dy="0.936508"/>
<feGaussianBlur stdDeviation="0.468254"/>
<feComposite in2="hardAlpha" operator="out"/>
<feColorMatrix type="matrix" values="0 0 0 0 0.162923 0 0 0 0 0.162923 0 0 0 0 0.162923 0 0 0 0.08 0"/>
<feBlend mode="normal" in2="BackgroundImageFix" result="effect1_dropShadow_928_6243"/>
<feColorMatrix in="SourceAlpha" type="matrix" values="0 0 0 0 0 0 0 0 0 0 0 0 0 0 0 0 0 0 127 0" result="hardAlpha"/>
<feMorphology radius="0.936508" operator="erode" in="SourceAlpha" result="effect2_dropShadow_928_6243"/>
<feOffset dy="2.80952"/>
<feGaussianBlur stdDeviation="1.87302"/>
<feComposite in2="hardAlpha" operator="out"/>
<feColorMatrix type="matrix" values="0 0 0 0 0.164706 0 0 0 0 0.164706 0 0 0 0 0.164706 0 0 0 0.14 0"/>
<feBlend mode="normal" in2="effect1_dropShadow_928_6243" result="effect2_dropShadow_928_6243"/>
<feBlend mode="normal" in="SourceGraphic" in2="effect2_dropShadow_928_6243" result="shape"/>
<feColorMatrix in="SourceAlpha" type="matrix" values="0 0 0 0 0 0 0 0 0 0 0 0 0 0 0 0 0 0 127 0" result="hardAlpha"/>
<feOffset dy="-2.80952"/>
<feGaussianBlur stdDeviation="1.40476"/>
<feComposite in2="hardAlpha" operator="arithmetic" k2="-1" k3="1"/>
<feColorMatrix type="matrix" values="0 0 0 0 0 0 0 0 0 0 0 0 0 0 0 0 0 0 0.1 0"/>
<feBlend mode="normal" in2="shape" result="effect3_innerShadow_928_6243"/>
<feColorMatrix in="SourceAlpha" type="matrix" values="0 0 0 0 0 0 0 0 0 0 0 0 0 0 0 0 0 0 127 0" result="hardAlpha"/>
<feOffset dy="2.80952"/>
<feGaussianBlur stdDeviation="1.40476"/>
<feComposite in2="hardAlpha" operator="arithmetic" k2="-1" k3="1"/>
<feColorMatrix type="matrix" values="0 0 0 0 1 0 0 0 0 1 0 0 0 0 1 0 0 0 0.1 0"/>
<feBlend mode="normal" in2="effect3_innerShadow_928_6243" result="effect4_innerShadow_928_6243"/>
<feColorMatrix in="SourceAlpha" type="matrix" values="0 0 0 0 0 0 0 0 0 0 0 0 0 0 0 0 0 0 127 0" result="hardAlpha"/>
<feMorphology radius="0.936508" operator="erode" in="SourceAlpha" result="effect5_innerShadow_928_6243"/>
<feOffset/>
<feComposite in2="hardAlpha" operator="arithmetic" k2="-1" k3="1"/>
<feColorMatrix type="matrix" values="0 0 0 0 0.0627451 0 0 0 0 0.0941176 0 0 0 0 0.156863 0 0 0 0.24 0"/>
<feBlend mode="normal" in2="effect4_innerShadow_928_6243" result="effect5_innerShadow_928_6243"/>
</filter>
<linearGradient id="paint0_linear_928_6243" x1="22" y1="0" x2="22" y2="43" gradientUnits="userSpaceOnUse">
<stop stop-color="white" stop-opacity="0.12"/>
<stop offset="1" stop-color="white" stop-opacity="0"/>
</linearGradient>
<linearGradient id="paint1_linear_928_6243" x1="21.932" y1="11.5957" x2="21.932" y2="31.4052" gradientUnits="userSpaceOnUse">
<stop stop-color="white" stop-opacity="0.8"/>
<stop offset="1" stop-color="white" stop-opacity="0.5"/>
</linearGradient>
<linearGradient id="paint2_linear_928_6243" x1="21.932" y1="11.5957" x2="21.932" y2="21.5005" gradientUnits="userSpaceOnUse">
<stop stop-color="white" stop-opacity="0.8"/>
<stop offset="1" stop-color="white" stop-opacity="0.5"/>
</linearGradient>
<linearGradient id="paint3_linear_928_6243" x1="21.932" y1="31.4047" x2="21.932" y2="21.5" gradientUnits="userSpaceOnUse">
<stop stop-color="white" stop-opacity="0.8"/>
<stop offset="1" stop-color="white" stop-opacity="0.5"/>
</linearGradient>
</defs>
</svg>
