<svg width="81" height="80" viewBox="0 0 81 80" fill="none" xmlns="http://www.w3.org/2000/svg">
<path d="M40.5001 49.1668C43.3118 49.1668 45.8662 48.4991 48.1634 47.1635C50.4606 45.8279 52.3101 44.0599 53.7117 41.8593C51.874 40.4404 49.8342 39.3593 47.5926 38.616C45.3515 37.8721 42.9873 37.5002 40.5001 37.5002C38.0129 37.5002 35.6487 37.8721 33.4076 38.616C31.1659 39.3593 29.1262 40.4404 27.2884 41.8593C28.6901 44.0599 30.5395 45.8279 32.8368 47.1635C35.134 48.4991 37.6884 49.1668 40.5001 49.1668ZM40.5001 32.5002C42.1195 32.5002 43.4968 31.9329 44.6318 30.7985C45.7662 29.6635 46.3334 28.2863 46.3334 26.6668C46.3334 25.0474 45.7662 23.6702 44.6318 22.5352C43.4968 21.4007 42.1195 20.8335 40.5001 20.8335C38.8806 20.8335 37.5034 21.4007 36.3684 22.5352C35.234 23.6702 34.6668 25.0474 34.6668 26.6668C34.6668 28.2863 35.234 29.6635 36.3684 30.7985C37.5034 31.9329 38.8806 32.5002 40.5001 32.5002ZM40.5001 65.0452C47.0212 59.2074 52.0115 53.6079 55.4709 48.2468C58.9304 42.8857 60.6601 38.1902 60.6601 34.1602C60.6601 28.0835 58.7295 23.0879 54.8684 19.1735C51.0073 15.2591 46.2179 13.3018 40.5001 13.3018C34.7823 13.3018 29.9929 15.2591 26.1318 19.1735C22.2706 23.0879 20.3401 28.0835 20.3401 34.1602C20.3401 38.1902 22.0698 42.8857 25.5293 48.2468C28.9887 53.6079 33.979 59.2074 40.5001 65.0452ZM40.5001 71.6985C32.1112 64.4296 25.8206 57.6649 21.6284 51.4043C17.4362 45.1432 15.3401 39.3952 15.3401 34.1602C15.3401 26.4679 17.8281 20.2404 22.8043 15.4777C27.7809 10.7149 33.6795 8.3335 40.5001 8.3335C47.3206 8.3335 53.2192 10.7149 58.1959 15.4777C63.172 20.2404 65.6601 26.4679 65.6601 34.1602C65.6601 39.3952 63.564 45.1432 59.3718 51.4043C55.1795 57.6649 48.889 64.4296 40.5001 71.6985Z" fill="#FF6C0E"/>
</svg>
